<?xml version="1.0" encoding="UTF-8"?>
<!DOCTYPE svg  PUBLIC '-//W3C//DTD SVG 1.1//EN'  'http://www.w3.org/Graphics/SVG/1.1/DTD/svg11.dtd'>
<svg enable-background="new 0 0 140.25 150.35" version="1.1" viewBox="0 0 140.25 150.35" xml:space="preserve" xmlns="http://www.w3.org/2000/svg" xmlns:xlink="http://www.w3.org/1999/xlink">
<symbol id="cb" viewBox="0 -2.75 8.003 2.8">
			<linearGradient id="di" x1="16071" x2="16073" y1="163.43" y2="163.43" gradientTransform="matrix(.0201 .9998 -.9998 .0201 -155.59 -16073)" gradientUnits="userSpaceOnUse">
			<stop stop-color="#043840" offset="0"/>
			<stop stop-color="#00562E" offset=".3255"/>
			<stop stop-color="#599D4A" offset="1"/>
		</linearGradient>
		<path d="m7.85-0.75c0.233-0.333 0.2-0.633-0.1-0.9-0.333-0.3-0.883-0.417-1.65-0.35-2.2 0.167-4.233-0.083-6.1-0.75 0.933 1.067 2.2 1.85 3.8 2.35 2.1 0.7 3.45 0.583 4.05-0.35z" clip-rule="evenodd" fill="url(#di)" fill-rule="evenodd"/>
</symbol>
<symbol id="cc" viewBox="-0.004 -10.553 21.188 10.569">
			<linearGradient id="dt" x1="16035" x2="16045" y1="183.25" y2="183.25" gradientTransform="matrix(.0234 .9997 -.9997 .0234 -182.09 -16046)" gradientUnits="userSpaceOnUse">
			<stop stop-color="#043840" offset="0"/>
			<stop stop-color="#00562E" offset=".3255"/>
			<stop stop-color="#599D4A" offset="1"/>
		</linearGradient>
		<path d="m10.8-7.05c1.433 0.367 2.467 1.05 3.1 2.05s0.483 1.417-0.45 1.25c-0.7-0.133-1.95-0.583-3.75-1.35-0.933-0.367-1.783-0.733-2.55-1.1 3.533 2.1 6.517 3.767 8.95 5 2.066 1 3.55 1.383 4.45 1.15 1-0.267 0.817-1.317-0.55-3.15-1.433-1.966-3.567-3.633-6.4-5-2.867-1.367-5.817-2.133-8.85-2.3-2.833-0.2-4.4 0.167-4.7 1.1-0.267 0.867 0.45 1.683 2.15 2.45l4.65 2.3c-1.767-1.133-1.967-1.934-0.6-2.4 1.233-0.433 2.75-0.433 4.55 0z" clip-rule="evenodd" fill="url(#dt)" fill-rule="evenodd"/>
</symbol>
<symbol id="cd" viewBox="-0.043 -10.483 2.902 10.608">
			<linearGradient id="ef" x1="1572.8" x2="1581.8" y1="1310.2" y2="1310.2" gradientTransform="matrix(.984 .1779 -.1779 .984 -1314.3 -1574.4)" gradientUnits="userSpaceOnUse">
			<stop stop-color="#3A3866" offset="0"/>
			<stop stop-color="#44828C" offset="1"/>
		</linearGradient>
		<path d="m2.7-2.1c0.367-2.333 0.1-4.65-0.8-6.95-0.9-2.333-1.5-1.817-1.8 1.55-0.333 3.4-0.083 5.717 0.75 6.95 0.833 1.267 1.45 0.75 1.85-1.55z" clip-rule="evenodd" fill="url(#ef)" fill-rule="evenodd"/>
</symbol>
<symbol id="ce" viewBox="-0.031 -18.166 6.566 18.257">
			<linearGradient id="eq" x1="1555.7" x2="1576.7" y1="1294.4" y2="1294.4" gradientTransform="matrix(.9844 .1762 -.1762 .9844 -1302.7 -1557.7)" gradientUnits="userSpaceOnUse">
			<stop stop-color="#3A3866" offset="0"/>
			<stop stop-color="#44828C" offset="1"/>
		</linearGradient>
		<path d="m5.6-0.6c0.9-1.133 1.15-3.167 0.75-6.1-0.434-3.433-1.333-6.483-2.7-9.15-1.467-2.833-2.517-3.066-3.15-0.7-0.633 2.466-0.7 5.333-0.2 8.6 0.467 3.2 1.25 5.483 2.35 6.85 1.1 1.4 2.083 1.567 2.95 0.5z" clip-rule="evenodd" fill="url(#eq)" fill-rule="evenodd"/>
</symbol>
<symbol id="cf" viewBox="-0.002 -7.064 3.641 7.173">
			<linearGradient id="ev" x1="1565.9" x2="1577.4" y1="1306.7" y2="1306.7" gradientTransform="matrix(.9842 .1772 -.1772 .9842 -1309.3 -1567.2)" gradientUnits="userSpaceOnUse">
			<stop stop-color="#3A3866" offset="0"/>
			<stop stop-color="#44828C" offset="1"/>
		</linearGradient>
		<path d="m3.6-0.8c0.2-1.434-0.367-3.067-1.7-4.9-1.267-1.767-1.9-1.817-1.9-0.15-0.033 1.633 0.417 3.1 1.35 4.4 1.333 1.833 2.083 2.05 2.25 0.65z" clip-rule="evenodd" fill="url(#ev)" fill-rule="evenodd"/>
</symbol>
<symbol id="cg" viewBox="-0.023 -16.163 5.176 16.295">
			<linearGradient id="ew" x1="1566.9" x2="1583.8" y1="1303.2" y2="1303.2" gradientTransform="matrix(.9842 .1773 -.1773 .9842 -1310.5 -1568.9)" gradientUnits="userSpaceOnUse">
			<stop stop-color="#3A3866" offset="0"/>
			<stop stop-color="#44828C" offset="1"/>
		</linearGradient>
		<path d="m5.15-4.85c-0.067-4.767-0.917-8.283-2.55-10.55-0.733-1-1.333-1.017-1.8-0.05-0.467 0.9-0.733 2.35-0.8 4.35-0.167 5 0.583 8.4 2.25 10.2 2 2.2 2.967 0.883 2.9-3.95z" clip-rule="evenodd" fill="url(#ew)" fill-rule="evenodd"/>
</symbol>
<symbol id="ch" viewBox="-0.005 -27.206 140.246 27.206">
		<path d="m140.2-12.2c0.1-0.2 0.017-0.466-0.25-0.8-0.3-0.4-1.284-0.667-2.95-0.8-0.967-0.1-2.133-0.117-3.5-0.05-1.567 0.1-2.733 0.184-3.5 0.25-1.133 0.1-2.167 0.083-3.1-0.05-1.267-0.133-1.983-0.283-2.15-0.45-0.233-0.267-0.2-0.467 0.1-0.6 0.167-0.066 0.45-0.15 0.85-0.25 0.2-0.066 0.85-0.25 1.95-0.55 1.033-0.333 1.583-0.65 1.65-0.95 0.167-0.667-1.5-1.066-5-1.2h-6.1c-4.034-0.067-7.017-0.017-8.95 0.15-1.033 0.167-1.917 0.267-2.65 0.3-1.367 0.034-1.817-0.316-1.35-1.05 0.133-0.233 0.45-0.45 0.95-0.65 0.267-0.133 0.65-0.3 1.15-0.5 1.733-0.9 3.417-1.483 5.05-1.75 0.233-0.033 1.05-0.083 2.45-0.15 1.267-0.167 1.833-0.517 1.7-1.05-0.066-0.367-0.8-0.633-2.2-0.8-1.5-0.1-2.383-0.15-2.65-0.15-3.434-0.434-6.017-0.75-7.75-0.95-3-0.333-5.583-0.533-7.75-0.6-2.167-0.033-3.784-0.066-4.85-0.1-1.934-0.066-3.567-0.167-4.9-0.3-0.967-0.133-2.6-0.417-4.9-0.85-2.066-0.4-3.7-0.65-4.9-0.75-3.9-0.367-7.7-0.45-11.4-0.25-1.833 0.1-4.35 0.434-7.55 1-3.5 0.667-6.017 1.067-7.55 1.2-0.4 0.033-2.217 0.15-5.45 0.35-1.667 0.133-2.6 0.267-2.8 0.4-0.5 0.3-0.667 0.533-0.5 0.7 0.133 0.167 0.55 0.3 1.25 0.4 0.667 0.1 1.867 0.283 3.6 0.55 1.5 0.3 2.467 0.733 2.9 1.3 0.267 0.333-0.367 0.633-1.9 0.9-1.367 0.233-2.667 0.333-3.9 0.3-1.567-0.033-4.5-0.183-8.8-0.45-3.667-0.2-6.6-0.3-8.8-0.3-1 0-2.467-0.1-4.4-0.3-0.7-0.1-2.233-0.184-4.6-0.25-1.267-0.133-2.267-0.2-3-0.2-1.267 0.033-2.15 0.35-2.65 0.95-0.233 0.267-0.3 0.483-0.2 0.65 0.033 0.1 0.217 0.25 0.55 0.45 0.6 0.4 1.333 0.767 2.2 1.1 0.033 0 0.65 0.167 1.85 0.5 0.733 0.167 1.317 0.383 1.75 0.65 1.8 1.067 3.2 1.75 4.2 2.05 1.2 0.3 2 0.683 2.4 1.15-0.934 0.167-2.083 0.217-3.45 0.15-2-0.066-3.15-0.1-3.45-0.1-1.233 0-2.967 0.05-5.2 0.15-2.433 0.133-4.167 0.2-5.2 0.2-1.7 0-3.133 0.117-4.3 0.35-2.1 0.433-2.733 1.183-1.9 2.25 0.433 0.533 1.4 1.05 2.9 1.55 0.8 0.267 1.9 0.617 3.3 1.05 1.367 0.5 3.383 1.217 6.05 2.15 2.367 0.867 4.333 1.7 5.9 2.5 2.3 1.233 4.2 2.1 5.7 2.6 2.167 0.767 4.2 1.1 6.1 1 2.2-0.133 5.05-0.15 8.55-0.05 4.433 0.133 7.283 0.2 8.55 0.2 3.133-0.033 7.867-0.467 14.2-1.3 6.233-0.833 10.983-1.25 14.25-1.25 7.4 0 13.517-0.167 18.35-0.5 6.767-0.467 12.816-1.317 18.15-2.55 1.467-0.333 3.083-0.6 4.85-0.8 2.1-0.267 5.267-0.667 9.5-1.2 0.367-0.033 0.9-0.183 1.6-0.45s1.233-0.417 1.6-0.45c0.5-0.067 2.033-0.45 4.6-1.15 0.333-0.1 0.75-0.267 1.25-0.5 0.733-0.4 2.017-0.95 3.85-1.65 0.33-0.133 0.53-0.267 0.6-0.4z" clip-rule="evenodd" fill="#0D5069" fill-rule="evenodd"/>
</symbol>
<symbol id="ci" viewBox="0 -6.75 37.2 6.75">
		<path d="m37.2-3.4c0-0.934-1.817-1.717-5.45-2.35-3.633-0.667-8.017-1-13.15-1s-9.517 0.333-13.15 1c-3.633 0.633-5.45 1.417-5.45 2.35s1.817 1.733 5.45 2.4 8.017 1 13.15 1c5.167 0 9.55-0.333 13.15-1 3.633-0.667 5.45-1.467 5.45-2.4z" clip-rule="evenodd" fill="#A89676" fill-rule="evenodd"/>
</symbol>
<symbol id="cj" viewBox="0 -37.005 7.606 37.005">
			<linearGradient id="ex" x1="1555.7" x2="1566.5" y1="1290.9" y2="1290.9" gradientTransform="matrix(.9842 .1771 -.1771 .9842 -1308.7 -1566.4)" gradientUnits="userSpaceOnUse">
			<stop stop-color="#242224" offset="0"/>
			<stop stop-color="#27252E" offset=".1529"/>
			<stop stop-color="#302E49" offset=".4157"/>
			<stop stop-color="#3A3866" offset=".6471"/>
			<stop stop-color="#44828C" offset="1"/>
		</linearGradient>
		<path d="m2.65 0l3.35-18.9 0.45-5.2c0.333-3.867 0.667-6.75 1-8.65 0.333-1.867 0.133-3.133-0.6-3.8-0.367-0.333-0.767-0.483-1.2-0.45-1.633 0.433-2.8 0.917-3.5 1.45l-0.6 0.7c-0.267 0.3-0.517 0.767-0.75 1.4-0.533 1.233-0.8 2.633-0.8 4.2 0 4.067 0.517 8.85 1.55 14.35 0.733 3.733 1.1 8.7 1.1 14.9z" clip-rule="evenodd" fill="url(#ex)" fill-rule="evenodd"/>
</symbol>
<symbol id="ck" viewBox="0 -3.276 22.8 3.276">
			<linearGradient id="ey" x1="16030" x2="16033" y1="194.9" y2="194.9" gradientTransform="matrix(.025 .9997 -.9997 .025 -194.46 -16033)" gradientUnits="userSpaceOnUse">
			<stop stop-color="#043840" offset="0"/>
			<stop stop-color="#00562E" offset=".3255"/>
			<stop stop-color="#599D4A" offset="1"/>
		</linearGradient>
		<path d="m0 0c7.467-0.2 12.567-0.217 15.3-0.05 1.7 0.1 3.467-0.133 5.3-0.7 0.9-0.267 1.633-0.55 2.2-0.85-0.867 0.067-1.966 0.067-3.3 0-2.7-0.1-5.217-0.483-7.55-1.15-2.567-0.733-5.117-0.7-7.65 0.1-2.167 0.667-3.6 1.55-4.3 2.65z" clip-rule="evenodd" fill="url(#ey)" fill-rule="evenodd"/>
</symbol>
<symbol id="cl" viewBox="-0.063 -85.876 20.213 85.876">
			<linearGradient id="ca" x1="1528.4" x2="1573.4" y1="1262.8" y2="1262.8" gradientTransform="matrix(.9843 .1766 -.1766 .9843 -1305.9 -1562.3)" gradientUnits="userSpaceOnUse">
			<stop stop-color="#242224" offset="0"/>
			<stop stop-color="#27252E" offset=".1529"/>
			<stop stop-color="#302E49" offset=".4157"/>
			<stop stop-color="#3A3866" offset=".6471"/>
			<stop stop-color="#44828C" offset="1"/>
		</linearGradient>
		<path d="m13.95-39.85c-0.867-4.167-1.817-7.75-2.85-10.75-1.8-5.1-2.867-10.867-3.2-17.3-0.167-3.2 0.633-8.783 2.4-16.75-1.6 0.267-3.2 0.433-4.8 0.5-3.2 0.1-4.833-0.417-4.9-1.55-0.867-1-0.883 2.267-0.05 9.8 0.867 7.7 1.983 13.566 3.35 17.6 1.467 4.233 3 9.216 4.6 14.95s2.733 10.333 3.4 13.8c0.533 2.833 1.267 5.9 2.2 9.2 1.033 3.267 1.717 5.533 2.05 6.8 0.7 2.466 1.417 6.983 2.15 13.55 1.067-4.967 1.684-9.05 1.85-12.25-2.667-7.8-4.183-13.567-4.55-17.3-0.267-2.9-0.817-6.333-1.65-10.3z" clip-rule="evenodd" fill="url(#ca)" fill-rule="evenodd"/>
</symbol>
<symbol id="cm" viewBox="0 -102.338 18.65 102.338">
			<linearGradient id="cy" x1="1525.9" x2="1575.5" y1="1256.5" y2="1256.5" gradientTransform="matrix(.9842 .1769 -.1769 .9842 -1307.6 -1564.7)" gradientUnits="userSpaceOnUse">
			<stop stop-color="#242224" offset="0"/>
			<stop stop-color="#27252E" offset=".1529"/>
			<stop stop-color="#302E49" offset=".4157"/>
			<stop stop-color="#3A3866" offset=".6471"/>
			<stop stop-color="#44828C" offset="1"/>
		</linearGradient>
		<path d="m15.95-42.85c-2.1-6.9-4.4-15.6-6.9-26.1-0.767-3.2-1.183-9.65-1.25-19.35-0.033-4.867 0-9.4 0.1-13.6-3.133-0.567-5.767-0.583-7.9-0.05 0.533 3.133 0.983 5.75 1.35 7.85 0.667 3.934 1.1 7.35 1.3 10.25 0.434 5.467 2.033 13.55 4.8 24.25 1.167 4.233 2.017 7.417 2.55 9.55 0.933 3.733 1.5 6.667 1.7 8.8 0.167 1.567 0.4 5.4 0.7 11.5 0.233 5.6 0.45 8.95 0.65 10.05 0.367 2.133 1.167 8.7 2.4 19.7h3.2c-1.6-9.4-2.4-16.583-2.4-21.55 0-2.5 0.183-6.217 0.55-11.15 0.2-4.3-0.083-7.683-0.85-10.15z" clip-rule="evenodd" fill="url(#cy)" fill-rule="evenodd"/>
</symbol>
<symbol id="cn" viewBox="0 -97.15 31.5 97.15">
			<linearGradient id="cz" x1="1517.7" x2="1583.3" y1="1255.3" y2="1255.3" gradientTransform="matrix(.9843 .1766 -.1766 .9843 -1305.7 -1562)" gradientUnits="userSpaceOnUse">
			<stop stop-color="#242224" offset="0"/>
			<stop stop-color="#27252E" offset=".1529"/>
			<stop stop-color="#302E49" offset=".4157"/>
			<stop stop-color="#3A3866" offset=".6471"/>
			<stop stop-color="#44828C" offset="1"/>
		</linearGradient>
		<path d="m24.3-12.75c0.9 3.533 1.883 7.7 2.95 12.5l4.25 0.25c-0.667-2.3-1.35-4.917-2.05-7.85-1.433-5.833-2.25-10.317-2.45-13.45-0.433-6.067-0.717-9.667-0.85-10.8-0.4-4.033-1.017-7.967-1.85-11.8-0.6-2.934-1.8-7.934-3.6-15-1.5-6.267-2.25-10.85-2.25-13.75 0-4.8-0.167-11.017-0.5-18.65 0-1.934-0.367-3.7-1.1-5.3-2.533-0.367-5.4-0.55-8.6-0.55-2.667 0-5.417 0.033-8.25 0.1 1.367 0.966 3.25 3.716 5.65 8.25 3.067 5.767 5.3 11.85 6.7 18.25 0.933 4.3 2.2 10.617 3.8 18.95 1.167 6.067 2.033 10.05 2.6 11.95 0.933 2.7 1.583 4.6 1.95 5.7 0.566 1.8 1.066 4.167 1.5 7.1 0.167 1.067 0.483 3.633 0.95 7.7 0.267 2.167 0.65 4.3 1.15 6.4z" clip-rule="evenodd" fill="url(#cz)" fill-rule="evenodd"/>
</symbol>
<symbol id="co" viewBox="0.066 -90.25 29.084 90.25">
			<linearGradient id="da" x1="1523" x2="1583.6" y1="1260.9" y2="1260.9" gradientTransform="matrix(.9842 .1768 -.1768 .9842 -1307.1 -1564)" gradientUnits="userSpaceOnUse">
			<stop stop-color="#242224" offset="0"/>
			<stop stop-color="#27252E" offset=".1529"/>
			<stop stop-color="#302E49" offset=".4157"/>
			<stop stop-color="#3A3866" offset=".6471"/>
			<stop stop-color="#44828C" offset="1"/>
		</linearGradient>
		<path d="m19-1.3l10.15 1.3c-2.333-7.267-4.017-13.183-5.05-17.75-0.467-2.1-0.95-5.433-1.45-10-0.433-3.933-0.933-6.75-1.5-8.45-1.733-5.233-3.333-12.6-4.8-22.1-1-6.434-3.217-14.067-6.65-22.9-1.6-4.066-2.75-7.083-3.45-9.05-0.667 0.2-2.217 0.383-4.65 0.55-1.5 0.133-1.9 0.4-1.2 0.8 0.733 0.4 1.75 1.783 3.05 4.15 1.767 3.233 2.783 5.033 3.05 5.4 0.767 1.1 1.367 2.75 1.8 4.95 0.567 3.1 1.117 5.8 1.65 8.1 0.833 3.867 1.433 6.566 1.8 8.1 0.567 2.5 1.3 5.133 2.2 7.9s1.55 7.883 1.95 15.35c0.3 8.3 0.533 13.833 0.7 16.6 0.267 3.967 0.633 7.567 1.1 10.8 0.433 3.033 0.867 5.117 1.3 6.25z" clip-rule="evenodd" fill="url(#da)" fill-rule="evenodd"/>
</symbol>
<symbol id="cp" viewBox="0 -2.211 14.95 2.191">
			<linearGradient id="db" x1="16037" x2="16039" y1="192.8" y2="192.8" gradientTransform="matrix(.0242 .9997 -.9997 .0242 -188.46 -16039)" gradientUnits="userSpaceOnUse">
			<stop stop-color="#043840" offset="0"/>
			<stop stop-color="#00562E" offset=".3255"/>
			<stop stop-color="#599D4A" offset="1"/>
		</linearGradient>
		<path d="m0-2.15c0.767 0.4 1.717 0.783 2.85 1.15 2.233 0.767 4.2 1.083 5.9 0.95 2.733-0.167 4.8-0.617 6.2-1.35-3.167-0.033-5.683-0.2-7.55-0.5s-4.333-0.383-7.4-0.25z" clip-rule="evenodd" fill="url(#db)" fill-rule="evenodd"/>
</symbol>
<symbol id="cq" viewBox="0 -8.156 24.7 8.156">
			<linearGradient id="dc" x1="16020" x2="16027" y1="198.22" y2="198.22" gradientTransform="matrix(.0255 .9997 -.9997 .0255 -198.79 -16028)" gradientUnits="userSpaceOnUse">
			<stop stop-color="#043840" offset="0"/>
			<stop stop-color="#00562E" offset=".3255"/>
			<stop stop-color="#599D4A" offset="1"/>
		</linearGradient>
		<path d="m10.55-5.15c2.133 0.533 5.133 0.667 9 0.4 1.934-0.133 3.65-0.317 5.15-0.55-0.9-0.5-2.083-1-3.55-1.5-2.967-0.967-5.917-1.417-8.85-1.35s-5.867 1.45-8.8 4.15c-1.467 1.333-2.633 2.667-3.5 4 1.033-1.033 2.25-2.033 3.65-3 2.767-1.9 5.067-2.617 6.9-2.15z" clip-rule="evenodd" fill="url(#dc)" fill-rule="evenodd"/>
</symbol>
<symbol id="cr" viewBox="-0.044 -22.788 50.928 22.816">
			<linearGradient id="dd" x1="16017" x2="16037" y1="174.64" y2="174.64" gradientTransform="matrix(.0242 .9997 -.9997 .0242 -188.41 -16039)" gradientUnits="userSpaceOnUse">
			<stop stop-color="#043840" offset="0"/>
			<stop stop-color="#00562E" offset=".3255"/>
			<stop stop-color="#599D4A" offset="1"/>
		</linearGradient>
		<path d="m45.3-19.6c-3.167-1.3-6.033-2.217-8.6-2.75-3-0.6-5.817-0.583-8.45 0.05-2.567 0.6-4.533 1.683-5.9 3.25-1.667 2.133-2.95 3.583-3.85 4.35-1.5 1.3-3.133 1.6-4.9 0.9-2.2-0.867-4.65-1.217-7.35-1.05-2.9 0.2-4.767 0.95-5.6 2.25-0.833 1.267-0.917 2.8-0.25 4.6 0.6 1.633 1.633 3.083 3.1 4.35-0.433-0.667-0.8-1.4-1.1-2.2-0.6-1.566-0.6-2.683 0-3.35 0.733-0.833 2.033-1.233 3.9-1.2 1.934 0.066 3.417 0.633 4.45 1.7s0.867 1.934-0.5 2.6c-1.333 0.7-2.45 0.683-3.35-0.05-0.7-0.567-0.767-1.117-0.2-1.65 0.3-0.267 0.667-0.483 1.1-0.65-0.667 0-1.316 0.083-1.95 0.25-1.267 0.4-1.75 1.1-1.45 2.1 0.467 1.5 1.283 2.783 2.45 3.85 1.5 1.333 3.417 2.083 5.75 2.25 3.1 0.2 5.816-0.667 8.15-2.6 2.6-2.1 4.683-3.25 6.25-3.45 2.567-0.333 4.517-0.333 5.85 0 0.267 0.066 1.367 0.55 3.3 1.45 2.233 1.033 4.9 1.583 8 1.65 3.533 0.067 5.684-0.716 6.45-2.35 0.833-1.7-0.167-3.45-3-5.25-2.767-1.767-5.434-2.534-8-2.3l3.85 1.8c2.5 1.367 3.55 2.45 3.15 3.25-0.467 0.933-1.983 1.083-4.55 0.45-2.466-0.633-4.417-1.566-5.85-2.8-1.534-1.367-2.267-3.133-2.2-5.3 0.067-2.333 1.267-3.6 3.6-3.8 3.4-0.333 7.3 0.15 11.7 1.45-1.067-0.567-2.4-1.167-4-1.8z" clip-rule="evenodd" fill="url(#dd)" fill-rule="evenodd"/>
</symbol>
<symbol id="cs" viewBox="-0.126 -15.667 8.078 15.789">
			<linearGradient id="de" x1="1564.8" x2="1590.7" y1="1301.7" y2="1301.7" gradientTransform="matrix(.9842 .1771 -.1771 .9842 -1308.9 -1566.7)" gradientUnits="userSpaceOnUse">
			<stop stop-color="#3A3866" offset="0"/>
			<stop stop-color="#44828C" offset="1"/>
		</linearGradient>
		<path d="m5.85-6.95c-2.6-6.066-4.417-8.966-5.45-8.7-0.967 0.267-0.6 2.566 1.1 6.9 1.667 4.367 3.333 7.167 5 8.4 2.133 1.533 1.917-0.667-0.65-6.6z" clip-rule="evenodd" fill="url(#de)" fill-rule="evenodd"/>
</symbol>
<symbol id="ct" viewBox="0 -57.702 79.1 57.747">
			<linearGradient id="df" x1="16190" x2="16241" y1="-33.39" y2="-33.39" gradientTransform="matrix(1.99e-5 1 -1 -.001 5.8384 -16246)" gradientUnits="userSpaceOnUse">
			<stop stop-color="#043840" offset="0"/>
			<stop stop-color="#00562E" offset=".3255"/>
			<stop stop-color="#599D4A" offset="1"/>
		</linearGradient>
		<path d="m73.55-46.8c-1-0.367-2.216-1.217-3.65-2.55-1.467-1.333-2.6-2.15-3.4-2.45-2.067-0.767-3.4-0.6-4 0.5s0.05 2.216 1.95 3.35c-1.233-0.633-2.983-1.933-5.25-3.9-2.133-1.9-3.883-3.133-5.25-3.7-0.367-0.167-0.85 0.117-1.45 0.85-0.6 0.767-1.1 1.133-1.5 1.1-0.367-0.033-0.7-0.333-1-0.9-0.133-0.3-0.333-0.733-0.6-1.3-0.667-1.233-1.467-1.867-2.4-1.9-0.767-0.033-1.733 0.35-2.9 1.15-3.6 2-5.483 3.25-5.65 3.75 0.466-1.534 1.417-3 2.85-4.4-1.066 0.333-2.2 1.017-3.4 2.05-1.267 1.233-2.25 2.133-2.95 2.7-1.833 1.434-4.167 2.284-7 2.55-1.833 0.2-3.8-0.383-5.9-1.75-2.667-1.7-4.483-2.667-5.45-2.9 1.6 0.5 2.467 1.25 2.6 2.25-1.133-0.467-2.583-0.5-4.35-0.1-2.5 0.733-4.35 1.2-5.55 1.4-2.1 0.367-3.867 0.15-5.3-0.65-0.533-0.3-1.183-1-1.95-2.1-0.966-1.4-1.65-2.3-2.05-2.7 0.667 13.9 1.133 22.333 1.4 25.3 1.033 11.2 2.684 17.367 4.95 18.5 2.633 1.133 4.8 2.083 6.5 2.85 3.167 1.4 6.1 2.933 8.8 4.6 6.4 3.967 14.467 5.684 24.2 5.15 8.967-0.534 16.2-2.65 21.7-6.35 3-2 5.65-8.267 7.95-18.8 1.467-6.7 2.667-14.367 3.6-23-1.533 0.934-2.883 1.333-4.05 1.2-1.197-0.123-2.297-0.814-3.3-2.075 0.18 0.266 0.38 0.607 0.6 1.025 0.367 0.567 0.767 0.983 1.2 1.25z" clip-rule="evenodd" fill="url(#df)" fill-rule="evenodd"/>
</symbol>
<symbol id="cu" viewBox="0 -11.041 22.867 11.041">
			<linearGradient id="dg" x1="16030" x2="16040" y1="187.69" y2="187.69" gradientTransform="matrix(.0241 .9997 -.9997 .0241 -187.35 -16040)" gradientUnits="userSpaceOnUse">
			<stop stop-color="#043840" offset="0"/>
			<stop stop-color="#00562E" offset=".3255"/>
			<stop stop-color="#599D4A" offset="1"/>
		</linearGradient>
		<path d="m0-3.6c1.833-0.867 3.967-1.633 6.4-2.3 4.867-1.333 8.783-1.533 11.75-0.6 2.2 0.7 3.583 2 4.15 3.9 0.267 0.934 0.317 1.8 0.15 2.6 0.333-1.3 0.466-2.683 0.4-4.15-0.133-2.967-1.233-4.917-3.3-5.85-3.933-1.8-8.367-1.267-13.3 1.6-2.467 1.4-4.55 3-6.25 4.8z" clip-rule="evenodd" fill="url(#dg)" fill-rule="evenodd"/>
</symbol>
<symbol id="cv" viewBox="-0.014 -18.062 12.414 18.062">
			<linearGradient id="dh" x1="1563.2" x2="1600.9" y1="1299.1" y2="1299.1" gradientTransform="matrix(.9842 .1768 -.1768 .9842 -1307.3 -1564.3)" gradientUnits="userSpaceOnUse">
			<stop stop-color="#3A3866" offset="0"/>
			<stop stop-color="#44828C" offset="1"/>
		</linearGradient>
		<path d="m2.8 0l9.6-0.25c-1.1-3.767-2.983-7.85-5.65-12.25-2.967-4.833-4.983-6.517-6.05-5.05-1 1.333-0.95 4.65 0.15 9.95 0.567 2.667 1.217 5.2 1.95 7.6z" clip-rule="evenodd" fill="url(#dh)" fill-rule="evenodd"/>
</symbol>
<symbol id="cw" viewBox="-0.155 -13.4 53.955 13.414">
			<linearGradient id="dj" x1="16023" x2="16036" y1="175.83" y2="175.83" gradientTransform="matrix(.0246 .9997 -.9997 .0246 -191.02 -16036)" gradientUnits="userSpaceOnUse">
			<stop stop-color="#043840" offset="0"/>
			<stop stop-color="#00562E" offset=".3255"/>
			<stop stop-color="#599D4A" offset="1"/>
		</linearGradient>
		<path d="m53.8-9.55c-2.1-1.167-4.95-1.784-8.55-1.85-3.633-0.067-7.683 0.433-12.15 1.5-4.233 1-7.633 1.35-10.2 1.05-2.133-0.2-4.333-0.95-6.6-2.25 0.434 0.567 1.017 1.167 1.75 1.8 1.534 1.3 3.117 2.1 4.75 2.4 0.467 0.1 2.9 0.316 7.3 0.65 2.833 0.2 4.2 0.65 4.1 1.35-0.133 0.867-1.534 1.4-4.2 1.6-2.6 0.233-5.033 0.033-7.3-0.6-1.5-0.434-3.467-1.7-5.9-3.8-2.733-2.333-5.05-3.933-6.95-4.8-3.1-1.4-5.85-1.167-8.25 0.7-2.467 1.933-2.333 4.2 0.4 6.8 2.633 2.5 5.883 3.45 9.75 2.85 1.533-0.233 2.683-0.684 3.45-1.35 0.8-0.7 0.933-1.417 0.4-2.15-0.9-1.3-2.367-2.25-4.4-2.85-1-0.3-1.917-0.467-2.75-0.5 1 0.4 1.95 0.883 2.85 1.45 1.8 1.133 2.467 2.066 2 2.8-0.5 0.833-1.633 0.967-3.4 0.4-1.633-0.5-2.967-1.267-4-2.3-0.967-1-1.1-1.983-0.4-2.95 0.733-1 1.983-1.383 3.75-1.15 1.433 0.167 3.267 1.1 5.5 2.8 3.533 2.7 5.417 4.117 5.65 4.25 2 1.233 4.333 2.184 7 2.85 2.8 0.733 5.483 1 8.05 0.8 3.333-0.267 6.167-1.133 8.5-2.6 2.466-1.567 2.867-2.983 1.2-4.25-1.233-0.967-2.683-1.517-4.35-1.65l-2.1 0.05 5.85-1.15c4.3-0.633 7.383-0.6 9.25 0.1z" clip-rule="evenodd" fill="url(#dj)" fill-rule="evenodd"/>
</symbol>
<symbol id="cx" viewBox="-0.06 -6.414 2.842 6.503">
			<linearGradient id="dk" x1="1559.9" x2="1568.2" y1="1302.9" y2="1302.9" gradientTransform="matrix(.9843 .1765 -.1765 .9843 -1305.1 -1561.1)" gradientUnits="userSpaceOnUse">
			<stop stop-color="#3A3866" offset="0"/>
			<stop stop-color="#44828C" offset="1"/>
		</linearGradient>
		<path d="m2.65-0.7c0.333-1.133 0.033-2.617-0.9-4.45-0.867-1.733-1.433-1.683-1.7 0.15-0.267 1.9-0.05 3.283 0.65 4.15 0.967 1.2 1.617 1.25 1.95 0.15z" clip-rule="evenodd" fill="url(#dk)" fill-rule="evenodd"/>
</symbol>
<symbol id="dy" viewBox="-0.026 -24.4 67.606 24.395">
			<linearGradient id="dl" x1="16018" x2="16040" y1="164.12" y2="164.12" gradientTransform="matrix(.024 .9997 -.9997 .024 -186.32 -16041)" gradientUnits="userSpaceOnUse">
			<stop stop-color="#043840" offset="0"/>
			<stop stop-color="#00562E" offset=".3255"/>
			<stop stop-color="#599D4A" offset="1"/>
		</linearGradient>
		<path d="m65.8-8.95c2.133-2.7 2.35-5.033 0.65-7-1.633-1.9-4.784-2.367-9.45-1.4-4 0.833-8.1 2.417-12.3 4.75-3.733 2.033-6.767 3.3-9.1 3.8-2.467 0.533-5.317 0.5-8.55-0.1-3-0.567-3.466-1.467-1.4-2.7 1.7-1.033 4.75-2.117 9.15-3.25 3.133-0.8 6.383-2.633 9.75-5.5 1.7-1.433 3.083-2.783 4.15-4.05-4.767 3.833-11.184 6.017-19.25 6.55-1.567 0.1-3.95 0.033-7.15-0.2-3.9-0.267-6.5-0.4-7.8-0.4-6.267-0.1-10.567 1.2-12.9 3.9-2.5 2.867-2.117 5.633 1.15 8.3 2.367 1.9 5.433 3.35 9.2 4.35 3.267 0.833 7.733 0.917 13.4 0.25 4.433-0.533 7.883-1.217 10.35-2.05 1.367-0.466 3.367-0.1 6 1.1 3.4 1.567 5.267 2.383 5.6 2.45 1.233 0.267 2.75 0.167 4.55-0.3 0.9-0.233 1.683-0.483 2.35-0.75-2.467 0.567-4.583 0.284-6.35-0.85-1.667-1.133-2.233-2.517-1.7-4.15 0.533-1.6 2.167-3.216 4.9-4.85 2.667-1.6 5.2-2.534 7.6-2.8 2.233-0.2 3.467 0.233 3.7 1.3 0.2 1-0.45 2.133-1.95 3.4-1.367 1.133-2.7 1.867-4 2.2s-1.867 0.1-1.7-0.7c0.167-1.033 1.833-2.35 5-3.95-0.833 0.167-1.8 0.45-2.9 0.85-2.2 0.8-3.9 1.8-5.1 3-1.467 1.467-1.55 2.65-0.25 3.55 1.367 0.967 3.517 1.067 6.45 0.3 3.233-0.8 5.867-2.483 7.9-5.05z" clip-rule="evenodd" fill="url(#dl)" fill-rule="evenodd"/>
</symbol>
<symbol id="ez" viewBox="-0.014 -29.358 12.348 29.371">
			<linearGradient id="dm" x1="1561.4" x2="1601.9" y1="1292.6" y2="1292.6" gradientTransform="matrix(.9842 .1768 -.1768 .9842 -1307.1 -1564)" gradientUnits="userSpaceOnUse">
			<stop stop-color="#3A3866" offset="0"/>
			<stop stop-color="#44828C" offset="1"/>
		</linearGradient>
		<path d="m4.8-5c0.867 0.667 1.6 0.617 2.2-0.15 0.667 2.6 1.6 4.233 2.8 4.9 1.333 0.733 2.15-0.067 2.45-2.4 0.233-2.133-0.017-4.35-0.75-6.65-0.433-1.333-0.95-2.367-1.55-3.1-0.534-0.633-1.083-0.967-1.65-1-0.1-2.9-0.466-5.684-1.1-8.35-1.3-5.233-2.867-7.767-4.7-7.6-1.8 0.167-2.633 2.434-2.5 6.8 0.133 4.233 0.617 7.933 1.45 11.1 0.867 3.3 1.983 5.45 3.35 6.45z" clip-rule="evenodd" fill="url(#dm)" fill-rule="evenodd"/>
</symbol>
		<use transform="matrix(1 0 0 -1 27.05 117.7)" y="-6.75" width="37.2" height="6.75" enable-background="new" opacity=".2695" xlink:href="#ci"/>
		<use transform="matrix(1 0 0 -1 0 123.15)" x="-0.005" y="-27.206" width="140.246" height="27.206" enable-background="new" opacity=".4688" xlink:href="#ch"/>
		<linearGradient id="dn" x1="20.925" x2="127.57" y1="93.677" y2="93.677" gradientUnits="userSpaceOnUse">
			<stop stop-color="#3A3866" offset="0"/>
			<stop stop-color="#373557" offset=".0745"/>
			<stop stop-color="#2F2D36" offset=".2745"/>
			<stop stop-color="#2C2A29" offset=".3804"/>
			<stop stop-color="#2E2C33" offset=".4627"/>
			<stop stop-color="#34324E" offset=".5961"/>
			<stop stop-color="#3A3866" offset=".698"/>
			<stop stop-color="#44828C" offset="1"/>
		</linearGradient>
		<path d="m110.2 43.55l-0.351 3.5c-0.1 2.9 0.134 5.75 0.7 8.55 0.634 3 1.05 6.5 1.25 10.5 0.134 2.367 0.2 5.85 0.2 10.45 0 3.2 0.217 6.566 0.65 10.101 0.399 3.233 0.883 5.899 1.449 8 0.467 1.666 1.034 4.416 1.7 8.25 0.4 2.366 1.134 6.716 2.2 13.05 0.833 4.7 2.55 8.383 5.15 11.05 2 2.033 4.783 3.667 8.35 4.9 2.866 1.033 4 1.8 3.4 2.3-0.601 0.5-2.334 0.566-5.2 0.2-1.533-0.2-3.584-0.167-6.15 0.1-2.133 0.2-4.1 0.05-5.899-0.45-2.4-0.666-3.434-0.666-3.101 0 0.334 0.7 1.601 1.417 3.8 2.15 2 0.666 2.301 1.133 0.9 1.399-1.233 0.233-3.95 0.351-8.15 0.351-1.633 0-5.133-0.566-10.5-1.7-4.133-0.866-6.833-0.934-8.1-0.2-1.066 0.867-0.566 1.9 1.5 3.101 1.233 0.733 3.517 1.716 6.85 2.949 0.467 0.167 1.351 0.4 2.65 0.7 0.967 0.267 1.25 0.483 0.85 0.65-0.8 0.434-2.183 0.566-4.149 0.399-2.2-0.267-3.717-0.399-4.55-0.399-6.534 0-13.584 0.533-21.15 1.6-1.5 0.2-3.8 0.134-6.9-0.2-3.233-0.366-5.533-0.483-6.9-0.35-2 0.333-3.617 0.55-4.85 0.65-2.267 0.199-3.55-0.067-3.85-0.801 0.367-0.5 1.817-1.233 4.35-2.199 2.566-0.967 4.066-1.7 4.5-2.2-0.2-0.634-1.367-0.816-3.5-0.55-3.434 0.466-5.333 0.699-5.7 0.699-6.5-0.1-11.783-0.083-15.85 0.051-4.633 0.166-9.316 0.517-14.05 1.05l-1.1 0.25c-0.467 0.066-0.85 0.083-1.15 0.05-1-0.167-0.9-0.6 0.3-1.3 0.5-0.3 1.583-0.816 3.25-1.55 1.7-0.733 2.784-1.25 3.25-1.551 0.8-0.5 1.5-1.166 2.1-2 0.167-1.267-1.433-2-4.8-2.199-2.633-0.167-5.65-0.017-9.05 0.449-2.566 0.334-4.15 0.233-4.75-0.3-0.633-0.566 0.233-1.3 2.6-2.2 1.833-0.666 3.067-1.183 3.7-1.55 1.167-0.733 2.417-1.866 3.75-3.399 1.1-1.267 2.217-3.384 3.35-6.351 1.167-3.033 2.183-6.483 3.05-10.35 0.8-3.434 1.55-8.283 2.25-14.55 0.333-3.101 0.883-8.9 1.65-17.4 0.6-6.5 1.067-13.017 1.4-19.55 0.233-5.767 0.367-9.184 0.4-10.25 0.133-3.7 13.216-5.467 39.25-5.3 13.033 0.1 26.033 0.567 39 1.4z" clip-rule="evenodd" fill="url(#dn)" fill-rule="evenodd"/>
			<use transform="matrix(1 0 0 -1 21.35 43)" x="0.066" y="-90.25" width="29.084" height="90.25" enable-background="new" opacity=".2109" xlink:href="#co"/>
			<use transform="matrix(1 0 0 -1 40.8 42.75)" y="-97.15" width="31.5" height="97.15" enable-background="new" opacity=".2109" xlink:href="#cn"/>
			<use transform="matrix(1 0 0 -1 68.85 42.75)" y="-102.338" width="18.65" height="102.338" enable-background="new" opacity=".2109" xlink:href="#cm"/>
			<use transform="matrix(1 0 0 -1 91.3 51.25)" x="-0.063" y="-85.876" width="20.213" height="85.876" enable-background="new" opacity=".2109" xlink:href="#cl"/>
			<use transform="matrix(1 0 0 -1 112 97.05)" y="-37.005" width="7.606" height="37.005" enable-background="new" opacity=".2109" xlink:href="#cj"/>
			<linearGradient id="do" x1="71.727" x2="95.854" y1="112.51" y2="112.51" gradientTransform="matrix(.9844 -.1761 .1761 .9844 6.4671e-5 -9.9868e-5)" gradientUnits="userSpaceOnUse">
			<stop stop-color="#3A3866" offset="0"/>
			<stop stop-color="#44828C" offset="1"/>
		</linearGradient>
		<path d="m94.15 88.5c1.767-1.533 2.699-0.8 2.8 2.2 0.133 2.833-0.45 6.1-1.75 9.8-1.3 3.767-2.483 6.017-3.55 6.75-1.167 0.8-1.75-0.733-1.75-4.6 0-3.767 0.449-6.934 1.35-9.5 0.733-2.067 1.7-3.617 2.9-4.65z" clip-rule="evenodd" fill="url(#do)" fill-rule="evenodd"/>
			<linearGradient id="dp" x1="72.138" x2="99.771" y1="85.534" y2="85.534" gradientTransform="matrix(.9843 -.1764 .1764 .9843 .00029469 7.0304e-5)" gradientUnits="userSpaceOnUse">
			<stop stop-color="#3A3866" offset="0"/>
			<stop stop-color="#44828C" offset="1"/>
		</linearGradient>
		<path d="m94.65 60.3c1.833-1.267 3.283-0.816 4.35 1.35 1.134 2.267 1.116 5.184-0.05 8.75-1.334 4.1-2.7 7-4.101 8.7-1.566 1.867-2.6 1.367-3.1-1.5-0.533-3.133-0.5-6.55 0.1-10.25 0.601-3.833 1.535-6.183 2.801-7.05z" clip-rule="evenodd" fill="url(#dp)" fill-rule="evenodd"/>
			<linearGradient id="dq" x1="82.975" x2="94.15" y1="91.875" y2="91.875" gradientTransform="matrix(.9843 -.1767 .1767 .9843 0 -.00012404)" gradientUnits="userSpaceOnUse">
			<stop stop-color="#3A3866" offset="0"/>
			<stop stop-color="#44828C" offset="1"/>
		</linearGradient>
		<path d="m102.65 71.2c0.933-0.667 1.25 0.033 0.949 2.1-0.3 2.1-0.966 3.8-2 5.101-1.133 1.399-1.55 0.767-1.25-1.9 0.27-2.634 1.03-4.401 2.3-5.301z" clip-rule="evenodd" fill="url(#dq)" fill-rule="evenodd"/>
			<linearGradient id="dr" x1="58.901" x2="77.163" y1="129.59" y2="129.59" gradientTransform="matrix(.9843 -.1766 .1766 .9843 -9.3579e-5 .00014988)" gradientUnits="userSpaceOnUse">
			<stop stop-color="#3A3866" offset="0"/>
			<stop stop-color="#44828C" offset="1"/>
		</linearGradient>
		<path d="m80.55 122.6c-0.467-2.833-0.583-5.6-0.35-8.3 0.267-3.2 1.017-5.316 2.25-6.35 1.533-1.3 2.616-0.4 3.25 2.7 0.633 2.933 0.6 6.466-0.101 10.6-0.5 3-1.366 4.6-2.6 4.8s-2.049-0.95-2.449-3.45z" clip-rule="evenodd" fill="url(#dr)" fill-rule="evenodd"/>
			<linearGradient id="ds" x1="59.405" x2="69.639" y1="145.48" y2="145.48" gradientTransform="matrix(.9844 -.1759 .1759 .9844 -.00036496 7.1108e-5)" gradientUnits="userSpaceOnUse">
			<stop stop-color="#3A3866" offset="0"/>
			<stop stop-color="#44828C" offset="1"/>
		</linearGradient>
		<path d="m85.1 129c0.967-1.267 1.584-0.95 1.851 0.95 0.233 1.899-0.217 3.8-1.351 5.7-1.133 1.899-1.733 1.566-1.8-1-0.067-2.57 0.367-4.45 1.3-5.65z" clip-rule="evenodd" fill="url(#ds)" fill-rule="evenodd"/>
			<use transform="matrix(1 0 0 -1 61.85 99.55)" x="-0.023" y="-16.163" width="5.176" height="16.295" enable-background="new" opacity=".2813" xlink:href="#cg"/>
			<use transform="matrix(1 0 0 -1 69.9 83.6)" x="-0.002" y="-7.064" width="3.641" height="7.173" enable-background="new" opacity=".2813" xlink:href="#cf"/>
			<use transform="matrix(1 0 0 -1 71.8 51.2)" x="-0.031" y="-18.166" width="6.566" height="18.257" enable-background="new" opacity=".2813" xlink:href="#ce"/>
			<use transform="matrix(1 0 0 -1 64 117.8)" x="-0.043" y="-10.483" width="2.902" height="10.608" enable-background="new" opacity=".2813" xlink:href="#cd"/>
			<use transform="matrix(1 0 0 -1 41.7 75)" x="-0.014" y="-29.358" width="12.348" height="29.371" enable-background="new" opacity=".2813" xlink:href="#ez"/>
			<use transform="matrix(1 0 0 -1 57.5 63.95)" x="-0.06" y="-6.414" width="2.842" height="6.503" enable-background="new" opacity=".2813" xlink:href="#cx"/>
			<use transform="matrix(1 0 0 -1 49.8 41.4)" x="-0.014" y="-18.062" width="12.414" height="18.062" enable-background="new" opacity=".2813" xlink:href="#cv"/>
			<use transform="matrix(1 0 0 -1 39.15 117.35)" x="-0.126" y="-15.667" width="8.078" height="15.789" enable-background="new" opacity=".2813" xlink:href="#cs"/>
			<linearGradient id="du" x1="78.856" x2="94.273" y1="130.38" y2="130.38" gradientTransform="matrix(.9843 -.1767 .1767 .9843 -.00024021 6.6161e-6)" gradientUnits="userSpaceOnUse">
			<stop stop-color="#3A3866" offset="0"/>
			<stop stop-color="#44828C" offset="1"/>
		</linearGradient>
		<path d="m110.4 106.35c1.767-1.399 2.517 0.134 2.25 4.601s-1.117 7.2-2.551 8.2c-1.333 0.933-1.949-0.717-1.85-4.95 0.1-4.2 0.82-6.82 2.15-7.85z" clip-rule="evenodd" fill="url(#du)" fill-rule="evenodd"/>
			<linearGradient id="dv" x1="69.753" x2="86.95" y1="143.14" y2="143.14" gradientTransform="matrix(.9841 -.1774 .1774 .9841 6.2525e-5 1.8328e-5)" gradientUnits="userSpaceOnUse">
			<stop stop-color="#3A3866" offset="0"/>
			<stop stop-color="#44828C" offset="1"/>
		</linearGradient>
		<path d="m102.15 121c0.933-1.566 1.899-2.116 2.899-1.65 0.867 0.4 1.617 1.467 2.25 3.2 1.533 4.2 1.584 7.584 0.15 10.15-0.634 1.133-1.4 1.383-2.3 0.75-0.801-0.533-1.551-1.634-2.25-3.3-1.73-4.07-1.98-7.12-0.75-9.15z" clip-rule="evenodd" fill="url(#dv)" fill-rule="evenodd"/>
			<linearGradient id="dw" x1="77.207" x2="94.684" y1="116.81" y2="116.81" gradientTransform="matrix(.9841 -.1774 .1774 .9841 9.4891e-5 .00012395)" gradientUnits="userSpaceOnUse">
			<stop stop-color="#3A3866" offset="0"/>
			<stop stop-color="#44828C" offset="1"/>
		</linearGradient>
		<path d="m106.9 94.9c0.899-1.067 1.683-1.45 2.35-1.15 0.634 0.233 1.05 0.95 1.25 2.15 0.533 2.933-0.134 5.533-2 7.8-0.866 1.066-1.616 1.416-2.25 1.05-0.566-0.3-0.934-1.066-1.1-2.3-0.47-3.066 0.12-5.584 1.75-7.55z" clip-rule="evenodd" fill="url(#dw)" fill-rule="evenodd"/>
			<linearGradient id="dx" x1="-56.997" x2="-40.037" y1="-69.16" y2="-69.16" gradientTransform="matrix(-.9685 -.2491 .2491 -.9685 -2.6524e-5 -.00015891)" gradientUnits="userSpaceOnUse">
			<stop stop-color="#3A3866" offset="0"/>
			<stop stop-color="#44828C" offset="1"/>
		</linearGradient>
		<path d="m33.7 70.4c1.2-1.733 1.583 0.7 1.15 7.3-0.467 6.6-1.283 10.566-2.45 11.899-1.233 1.367-1.667-1-1.3-7.1 0.367-6.065 1.233-10.099 2.6-12.099z" clip-rule="evenodd" fill="url(#dx)" fill-rule="evenodd"/>
			<linearGradient id="dz" x1="-48.246" x2="-34.09" y1="-47.643" y2="-47.643" gradientTransform="matrix(-.9784 -.2066 .2066 -.9784 .00022805 .00065178)" gradientUnits="userSpaceOnUse">
			<stop stop-color="#3A3866" offset="0"/>
			<stop stop-color="#44828C" offset="1"/>
		</linearGradient>
		<path d="m34.25 51.25c0.8-1.3 1.25-0.617 1.35 2.05 0.133 2.633-0.15 4.967-0.85 7-0.633 1.967-1.033 1.217-1.2-2.25s0.067-5.733 0.7-6.8z" clip-rule="evenodd" fill="url(#dz)" fill-rule="evenodd"/>
			<linearGradient id="ea" x1="-53.538" x2="-38.74" y1="-105.95" y2="-105.95" gradientTransform="matrix(-.9782 -.2078 .2078 -.9782 .00028795 -4.2498e-5)" gradientUnits="userSpaceOnUse">
			<stop stop-color="#3A3866" offset="0"/>
			<stop stop-color="#44828C" offset="1"/>
		</linearGradient>
		<path d="m28.1 109c1.133-1.5 1.55-0.917 1.25 1.75s-1.15 5.283-2.55 7.85c-0.7 1.267-1.183 1.7-1.45 1.301-0.233-0.334-0.25-1.217-0.05-2.65 0.467-3.57 1.4-6.32 2.8-8.25z" clip-rule="evenodd" fill="url(#ea)" fill-rule="evenodd"/>
		<linearGradient id="eb" x1="-133.53" x2="-105.61" y1="21.98" y2="21.98" gradientTransform="matrix(3.581e-5 -1 1 -.001 -.00016512 .00021055)" gradientUnits="userSpaceOnUse">
		<stop stop-color="#3A3866" offset="0"/>
		<stop stop-color="#3B557C" offset=".4"/>
		<stop stop-color="#3B678A" offset=".749"/>
		<stop stop-color="#3B6E8F" offset="1"/>
	</linearGradient>
	<path d="m18.25 134.05c0.267-7.399 1.717-14.583 4.35-21.55l3.1-6.525c-1.896 4.38-3.08 10.171-3.55 17.375-0.233 4.067-0.25 7.684-0.05 10.851-0.8 0.566-1.684 0.717-2.65 0.45l-1.2-0.61z" clip-rule="evenodd" fill="url(#eb)" fill-rule="evenodd"/>
		<linearGradient id="ec" x1="-137.87" x2="-110.24" y1="54.556" y2="54.556" gradientTransform="matrix(3.6199e-5 -1 1 -.001 6.3753e-5 .0002115)" gradientUnits="userSpaceOnUse">
		<stop stop-color="#242224" offset="0"/>
		<stop stop-color="#31324A" offset=".5412"/>
		<stop stop-color="#3B3D66" offset="1"/>
	</linearGradient>
	<path d="m51.65 140.6c0.2-7.399 1.35-14.583 3.45-21.55l2.35-6.35c-1.457 4.356-2.373 10.073-2.75 17.149-0.2 4.101-0.217 7.733-0.05 10.9-0.9 0.267-1.667 0.316-2.3 0.15l-0.7-0.3z" clip-rule="evenodd" fill="url(#ec)" fill-rule="evenodd"/>
	<linearGradient id="ed" x1="46.85" x2="46.85" y1="101.22" y2="138.57" gradientUnits="userSpaceOnUse">
		<stop stop-color="#365387" offset="0"/>
		<stop stop-color="#31456B" offset=".3176"/>
		<stop stop-color="#242224" offset="1"/>
	</linearGradient>
	<path d="m50.1 140.1c-0.133 0.167-0.383 0.301-0.75 0.4-0.7 0.167-1.567 0.083-2.6-0.25 0.2-3.866 0.167-8.283-0.1-13.25-0.401-8.502-1.417-15.394-3.05-20.675l2.6 7.524c2.367 8.48 3.667 17.23 3.9 26.26z" clip-rule="evenodd" fill="url(#ed)" fill-rule="evenodd"/>
		<linearGradient id="ee" x1="-143.65" x2="-117.7" y1="73.456" y2="73.456" gradientTransform="matrix(3.8536e-5 -1 1 -.001 0 .0002115)" gradientUnits="userSpaceOnUse">
		<stop stop-color="#242224" offset="0"/>
		<stop stop-color="#252329" offset=".0431"/>
		<stop stop-color="#353670" offset=".698"/>
		<stop stop-color="#3B3D8C" offset="1"/>
	</linearGradient>
	<path d="m68.75 145.45c0.333-6.8 2.2-13.367 5.6-19.7l3.8-5.75c-2.356 3.962-3.822 9.179-4.4 15.65-0.333 3.733-0.366 7.05-0.1 9.949-1.2 0.934-2.367 1.184-3.5 0.75l-1.4-0.9z" clip-rule="evenodd" fill="url(#ee)" fill-rule="evenodd"/>
		<linearGradient id="eg" x1="-144.87" x2="-129.87" y1="72.647" y2="72.647" gradientTransform="matrix(6.6667e-5 -1 1 -.001 -4.6234e-5 .00020961)" gradientUnits="userSpaceOnUse">
		<stop stop-color="#242224" offset="0"/>
		<stop stop-color="#242629" offset=".0431"/>
		<stop stop-color="#225F70" offset=".698"/>
		<stop stop-color="#21758C" offset="1"/>
	</linearGradient>
	<path d="m70.35 146.1c0.167-3.966 1.101-7.816 2.801-11.55l1.774-3.175c-1.136 2.302-1.844 5.293-2.125 8.975-0.166 2.167-0.184 4.101-0.05 5.801-0.934 0.56-1.733 0.54-2.4-0.06z" clip-rule="evenodd" fill="url(#eg)" fill-rule="evenodd"/>
	<g clip-rule="evenodd" fill-rule="evenodd">
		<linearGradient id="eh" x1="66.675" x2="66.675" y1="102.6" y2="138.9" gradientUnits="userSpaceOnUse">
			<stop stop-color="#70A834" offset="0"/>
			<stop stop-color="#158434" offset=".2431"/>
			<stop stop-color="#187231" offset=".349"/>
			<stop stop-color="#1E472A" offset=".6392"/>
			<stop stop-color="#222C26" offset=".8667"/>
			<stop stop-color="#242224" offset="1"/>
		</linearGradient>
		<path d="m63.05 108.9c0-1.634 0.617-2.75 1.85-3.351 1.2-0.633 2.45-0.5 3.75 0.4 1.033 0.7 1.484 1.583 1.35 2.649-0.133 1-0.617 1.534-1.45 1.601-0.5 0.033-0.816-0.017-0.95-0.15l-0.1-0.25c1.1 0.101 1.65-0.316 1.65-1.25 0-0.899-0.433-1.5-1.3-1.8-0.934-0.3-1.817-0.2-2.65 0.3-0.9 0.566-1.217 1.4-0.95 2.5 0.3 1.233 1.217 1.983 2.75 2.25 1.533 0.233 2.75-0.116 3.65-1.05 0.899-0.967 1.216-2.2 0.949-3.7-0.3-1.566-1.133-2.767-2.5-3.6-1.4-0.9-2.9-1.017-4.5-0.351-1.633 0.667-2.567 1.834-2.8 3.5-0.3 1.867 0.067 4.65 1.1 8.351 1.533 5.533 2.483 9.316 2.85 11.35 0.733 4.2 1.25 8.25 1.55 12.15 0.267 3.5 0.3 5.883 0.1 7.149-0.367 0.5-1.133 0.717-2.3 0.65-1.167-0.033-1.934-0.267-2.3-0.7 0-0.366 0.167-1.733 0.5-4.1 0.4-2.634 0.667-5.384 0.8-8.25 0.167-3.634-0.283-7.7-1.35-12.2-1.233-4.6-2.017-7.866-2.35-9.8-0.6-3.334-0.233-5.967 1.1-7.9 1.4-2 3.55-2.717 6.45-2.149 2.899 0.6 4.616 2.449 5.149 5.55 0.5 3.066-0.433 5.083-2.8 6.05-2.033 0.8-3.767 0.767-5.2-0.1-1.365-0.83-2.048-2.08-2.048-3.75z" fill="url(#eh)"/>
		<path d="m63.6 119.4c0.4 0.333 0.617 0.933 0.65 1.8 0.033 0.833-0.133 1.184-0.5 1.05-0.367-0.167-0.583-0.767-0.65-1.8-0.067-1.03 0.1-1.38 0.5-1.05z" fill="#158434"/>
		<path d="m62.3 115.95c0.267 0.166 0.434 0.533 0.5 1.1 0.1 0.566 0.034 0.851-0.2 0.851s-0.417-0.384-0.55-1.15c-0.133-0.73-0.05-1 0.25-0.8z" fill="#158434"/>
		<path d="m61.6 111.4c0.267 0.366 0.417 0.866 0.45 1.5 0.034 0.699-0.117 1-0.45 0.899-0.333-0.066-0.5-0.583-0.5-1.55 0.033-0.97 0.2-1.25 0.5-0.85z" fill="#158434"/>
		<path d="m60.5 109c0.233 0.2 0.35 0.5 0.35 0.9 0 0.366-0.083 0.55-0.25 0.55s-0.283-0.283-0.35-0.851c-0.033-0.57 0.05-0.77 0.25-0.6z" fill="#158434"/>
		<path d="m65.25 124.65c0.133 0.466 0.133 0.85 0 1.149-0.1 0.267-0.2 0.2-0.3-0.2-0.2-0.8-0.25-1.333-0.15-1.6 0.1-0.3 0.25-0.08 0.45 0.65z" fill="#158434"/>
		<path d="m64.25 122.85c0.167 0.2 0.233 0.534 0.2 1-0.034 0.467-0.184 0.617-0.45 0.45-0.3-0.166-0.417-0.533-0.35-1.1 0.067-0.57 0.267-0.68 0.6-0.35z" fill="#158434"/>
		<path d="m64.85 126.95c0.167 0.333 0.233 0.684 0.2 1.05s-0.15 0.4-0.35 0.1-0.25-0.633-0.15-1c0.067-0.4 0.167-0.45 0.3-0.15z" fill="#158434"/>
	</g>
	<g clip-rule="evenodd" fill-rule="evenodd">
			<linearGradient id="ei" x1="-131.98" x2="-86.318" y1="54.58" y2="54.58" gradientTransform="matrix(.0542 -.9985 .9985 .0542 -.00041282 -.00016434)" gradientUnits="userSpaceOnUse">
			<stop stop-color="#242224" offset="0"/>
			<stop stop-color="#222C26" offset=".1333"/>
			<stop stop-color="#1E472A" offset=".3608"/>
			<stop stop-color="#187231" offset=".651"/>
			<stop stop-color="#158434" offset=".7569"/>
			<stop stop-color="#70A834" offset="1"/>
		</linearGradient>
		<path d="m48.75 82.65c1.933 0.199 3.7 0.949 5.3 2.25 2.534 2.1 3.883 5.233 4.05 9.399 0.2 3.5-0.383 6.95-1.75 10.351-2.133 5.866-3.5 11.883-4.1 18.05-0.467 5.033-0.467 10.883 0 17.55 0 0.533-0.567 0.884-1.7 1.05-0.633 0.101-1.316 0.066-2.05-0.1l-0.85-0.3c-0.167-2.5-0.083-6 0.25-10.5 0.667-9.2 2.65-18.267 5.95-27.2 2.9-7.634 2.333-13.15-1.7-16.55-1.1-1.034-2.383-1.617-3.85-1.75-1.566-0.134-2.8 0.383-3.7 1.55-0.767 0.866-1.217 1.883-1.35 3.05-0.067 0.9 0.033 2.217 0.3 3.95 0.633 1.733 1.534 3.083 2.7 4.05 1.233 1.033 2.417 1.267 3.55 0.7 1.133-0.533 1.917-1.45 2.35-2.75 0.434-1.267 0.417-2.45-0.05-3.55-0.3-0.733-0.767-1.351-1.4-1.851-0.667-0.533-1.4-0.833-2.2-0.899-1.767-0.301-2.7 0.416-2.8 2.149-0.034 1.566 0.65 2.834 2.05 3.8 0.767 0.5 1.533 0.45 2.3-0.149 0.614-0.521 1.005-1.196 1.175-2.025 0 0.172 0.025 0.447 0.075 0.825-0.1 0.934-0.633 1.684-1.6 2.25-0.6 0.267-1.317 0.233-2.15-0.1-0.833-0.334-1.483-0.817-1.95-1.45-0.633-0.834-1-1.783-1.1-2.851-0.133-1.199 0.167-2.283 0.9-3.25 0.833-0.8 1.85-1.166 3.05-1.1 1.267 0.066 2.333 0.583 3.2 1.55 1.7 1.934 2.467 4.117 2.3 6.55-0.133 1.567-0.7 2.834-1.7 3.801-1.067 1-2.417 1.399-4.05 1.199-1.7-0.3-3.067-0.949-4.1-1.949-0.934-0.934-1.684-2.217-2.25-3.851-0.567-1.6-0.833-2.983-0.8-4.149 0.067-1.5 0.55-3.134 1.45-4.9 0.567-0.934 1.417-1.667 2.55-2.2 1.233-0.601 2.467-0.818 3.7-0.651z" fill="url(#ei)"/>
		<path d="m53.85 105.2c0.533-0.667 0.8-0.533 0.8 0.399 0.033 0.9-0.2 1.634-0.7 2.2-0.5 0.533-0.75 0.384-0.75-0.45-0.033-0.83 0.183-1.55 0.65-2.15z" fill="#158434"/>
		<path d="m56 102.5c0.467-0.4 0.633-0.116 0.5 0.85-0.167 1-0.417 1.517-0.75 1.551-0.333 0.033-0.467-0.284-0.4-0.95 0.033-0.67 0.25-1.15 0.65-1.45z" fill="#158434"/>
		<path d="m55.75 100.45c0.333-0.4 0.583-0.384 0.75 0.05 0.133 0.434 0.05 0.783-0.25 1.05-0.267 0.233-0.467 0.15-0.6-0.25-0.1-0.37-0.067-0.65 0.1-0.85z" fill="#158434"/>
		<path d="m54.1 103.25c0.2-0.2 0.3-0.15 0.3 0.15 0 0.333-0.117 0.6-0.35 0.8-0.333 0.3-0.317-0.02 0.05-0.95z" fill="#158434"/>
		<path d="m54.15 108.25c0.367-0.267 0.55-0.116 0.55 0.45 0.033 0.566-0.1 0.916-0.4 1.05-0.3 0.1-0.45-0.083-0.45-0.55-0.033-0.47 0.067-0.78 0.3-0.95z" fill="#158434"/>
		<path d="m55.3 106.2c0.167-0.167 0.233-0.117 0.2 0.149s-0.133 0.567-0.3 0.9-0.25 0.3-0.25-0.1c0.033-0.4 0.15-0.72 0.35-0.95z" fill="#158434"/>
		<path d="m52.4 108.35c0.233-0.233 0.2 0.167-0.1 1.2s-0.533 1.566-0.7 1.601c-0.167 0.066-0.133-0.334 0.1-1.2 0.233-0.87 0.467-1.4 0.7-1.6z" fill="#158434"/>
		<path d="m53 109.1c0.4-0.3 0.567-0.116 0.5 0.551-0.1 0.633-0.3 0.916-0.6 0.85-0.233-0.066-0.316-0.283-0.25-0.65 0.033-0.37 0.15-0.62 0.35-0.75z" fill="#158434"/>
		<path d="m53.65 111.45c0.434-0.4 0.533-0.2 0.3 0.6-0.1 0.367-0.217 0.851-0.35 1.45-0.1 0.4-0.217 0.483-0.35 0.25-0.2-0.3-0.25-0.7-0.15-1.2s0.283-0.87 0.55-1.1z" fill="#158434"/>
		<path d="m52.1 113.05c0.167-0.166 0.333-0.166 0.5 0 0.133 0.2 0.183 0.5 0.15 0.9-0.033 0.434-0.15 0.8-0.35 1.1s-0.4 0.384-0.6 0.25c-0.233-0.133-0.316-0.483-0.25-1.05 0.067-0.53 0.25-0.93 0.55-1.2z" fill="#158434"/>
		<path d="m52.05 111.1c0.133-0.233 0.267-0.267 0.4-0.1 0.1 0.134 0.083 0.333-0.05 0.6-0.133 0.233-0.267 0.25-0.4 0.051-0.1-0.17-0.083-0.35 0.05-0.55z" fill="#158434"/>
		<path d="m51.05 113.75c0.367-0.333 0.434-0.033 0.2 0.9-0.2 0.966-0.417 1.449-0.65 1.449-0.2-0.033-0.217-0.383-0.05-1.05 0.133-0.67 0.3-1.1 0.5-1.3z" fill="#158434"/>
		<path d="m51.25 112.05c0.167-0.3 0.267-0.35 0.3-0.149 0.067 0.166 0.017 0.399-0.15 0.699-0.133 0.367-0.233 0.434-0.3 0.2-0.033-0.23 0.017-0.48 0.15-0.75z" fill="#158434"/>
		<path d="m52.4 115.9c0.333-0.233 0.45 0 0.35 0.699-0.133 0.733-0.317 1.051-0.55 0.95-0.233-0.066-0.317-0.316-0.25-0.75 0.067-0.43 0.217-0.73 0.45-0.9z" fill="#158434"/>
	</g>
	<g clip-rule="evenodd" fill-rule="evenodd">
			<linearGradient id="ej" x1="-129.87" x2="-104.41" y1="22.777" y2="22.777" gradientTransform="matrix(.054 -.9985 .9985 .054 -4.9748e-5 .00036262)" gradientUnits="userSpaceOnUse">
			<stop stop-color="#3A3866" offset="0"/>
			<stop stop-color="#35425F" offset=".1608"/>
			<stop stop-color="#285D4E" offset=".4353"/>
			<stop stop-color="#158434" offset=".7569"/>
			<stop stop-color="#70A834" offset="1"/>
		</linearGradient>
		<path d="m21.1 113.9c-2.3 5.666-3.15 12.383-2.55 20.149-0.1 0.267-0.5 0.45-1.2 0.55-0.4 0.067-0.767 0.017-1.1-0.149l-0.35-0.3c-0.133-1.434-0.1-3.417 0.1-5.95 0.367-5.167 1.55-10.2 3.55-15.101 1.8-4.133 1.467-7.149-1-9.05-0.667-0.566-1.45-0.883-2.35-0.95-0.967-0.066-1.717 0.217-2.25 0.851-0.467 0.467-0.75 1.017-0.85 1.649-0.067 0.534 0 1.25 0.2 2.15 0.4 0.967 0.95 1.7 1.65 2.2 0.733 0.566 1.45 0.7 2.15 0.399 0.667-0.3 1.15-0.8 1.45-1.5 0.267-0.699 0.25-1.35-0.05-1.949-0.433-0.9-1.167-1.4-2.2-1.5-1.1-0.101-1.667 0.3-1.7 1.199-0.033 0.801 0.383 1.483 1.25 2.051 0.467 0.3 0.933 0.283 1.4-0.051 0.37-0.309 0.612-0.691 0.725-1.149-1e-3 0.105 7e-3 0.271 0.025 0.5-0.067 0.5-0.383 0.899-0.95 1.2-0.367 0.133-0.8 0.116-1.3-0.051-0.533-0.166-0.933-0.433-1.2-0.8-0.4-0.467-0.633-0.983-0.7-1.55-0.067-0.667 0.133-1.267 0.6-1.8 0.5-0.434 1.1-0.634 1.8-0.601 0.767 0.034 1.417 0.317 1.95 0.851 1.066 1.066 1.55 2.267 1.45 3.6-0.1 0.867-0.45 1.55-1.05 2.05-0.667 0.601-1.483 0.834-2.45 0.7-1.9-0.3-3.2-1.366-3.9-3.2-0.333-0.866-0.483-1.616-0.45-2.25 0-0.833 0.284-1.733 0.85-2.699 0.333-0.5 0.85-0.9 1.55-1.2 0.767-0.334 1.517-0.45 2.25-0.351 1.167 0.101 2.25 0.517 3.25 1.25 1.533 1.134 2.35 2.834 2.45 5.101 0.133 1.9-0.217 3.8-1.05 5.7z" fill="url(#ej)"/>
		<path d="m19.55 114.2c0.333-0.367 0.5-0.3 0.5 0.2 0.034 0.5-0.1 0.899-0.4 1.199-0.3 0.301-0.467 0.217-0.5-0.25 0-0.47 0.133-0.85 0.4-1.15z" fill="#158434"/>
		<path d="m20.85 112.7c0.3-0.2 0.417-0.033 0.35 0.5-0.1 0.533-0.25 0.816-0.45 0.85-0.2 0-0.3-0.184-0.3-0.55 0.033-0.37 0.167-0.63 0.4-0.8z" fill="#158434"/>
		<path d="m20.75 111.6c0.2-0.233 0.35-0.233 0.45 0 0.066 0.233 0.017 0.434-0.15 0.601-0.2 0.1-0.316 0.05-0.35-0.15-0.067-0.2-0.05-0.35 0.05-0.45z" fill="#158434"/>
		<path d="m19.75 113.1c0.1-0.1 0.15-0.066 0.15 0.101 0 0.166-0.066 0.316-0.2 0.45-0.2 0.17-0.183-0.02 0.05-0.55z" fill="#158434"/>
		<path d="m19.75 115.85c0.233-0.133 0.35-0.05 0.35 0.25 0.033 0.301-0.05 0.483-0.25 0.551-0.167 0.066-0.25-0.017-0.25-0.25-0.033-0.27 0.017-0.45 0.15-0.55z" fill="#158434"/>
		<path d="m18.7 115.9c0.133-0.134 0.117 0.083-0.05 0.649-0.2 0.566-0.35 0.867-0.45 0.9s-0.083-0.184 0.05-0.65c0.167-0.47 0.317-0.77 0.45-0.9z" fill="#158434"/>
		<path d="m19.05 116.35c0.233-0.166 0.333-0.083 0.3 0.25-0.033 0.367-0.15 0.534-0.35 0.5-0.133-0.033-0.183-0.149-0.15-0.35s0.1-0.33 0.2-0.4z" fill="#158434"/>
		<path d="m19.45 117.6c0.267-0.199 0.333-0.083 0.2 0.351-0.033 0.066-0.117 0.333-0.25 0.8-0.066 0.2-0.133 0.233-0.2 0.1-0.1-0.133-0.117-0.35-0.05-0.649 0.033-0.27 0.133-0.47 0.3-0.6z" fill="#158434"/>
		<path d="m18.5 118.5c0.1-0.1 0.2-0.1 0.3 0 0.067 0.1 0.1 0.267 0.1 0.5-0.033 0.233-0.1 0.434-0.2 0.6-0.133 0.167-0.25 0.217-0.35 0.15-0.167-0.1-0.233-0.3-0.2-0.6 0.067-0.27 0.183-0.48 0.35-0.65z" fill="#158434"/>
		<path d="m18.45 117.4c0.066-0.101 0.15-0.117 0.25-0.051 0.066 0.101 0.066 0.217 0 0.351-0.1 0.133-0.184 0.149-0.25 0.05-0.067-0.13-0.067-0.25 0-0.35z" fill="#158434"/>
		<path d="m17.85 118.85c0.233-0.166 0.283 0 0.15 0.5-0.133 0.534-0.267 0.801-0.4 0.801-0.1-0.034-0.117-0.233-0.05-0.601 0.1-0.37 0.2-0.6 0.3-0.7z" fill="#158434"/>
		<path d="m18 117.95c0.067-0.167 0.117-0.2 0.15-0.101 0.033 0.101 0.017 0.233-0.05 0.4-0.1 0.2-0.167 0.233-0.2 0.1 0-0.13 0.033-0.27 0.1-0.4z" fill="#158434"/>
		<path d="m18.7 120.05c0.2-0.133 0.267 0 0.2 0.4-0.066 0.399-0.183 0.566-0.35 0.5-0.133-0.033-0.183-0.184-0.15-0.45 0.067-0.23 0.167-0.38 0.3-0.45z" fill="#158434"/>
	</g>
		<linearGradient id="ek" x1="-139.82" x2="-124.99" y1="52.597" y2="52.597" gradientTransform="matrix(6.7454e-5 -1 1 -.001 6.8017e-6 -.0002819)" gradientUnits="userSpaceOnUse">
		<stop stop-color="#242224" offset="0"/>
		<stop stop-color="#242629" offset=".0431"/>
		<stop stop-color="#225F70" offset=".698"/>
		<stop stop-color="#21758C" offset="1"/>
	</linearGradient>
	<path d="m50.3 141.25c0.167-3.967 1.1-7.816 2.8-11.55l1.775-3.175c-1.136 2.301-1.845 5.259-2.125 8.875-0.167 2.133-0.183 4.033-0.05 5.699-1.033 0.5-1.833 0.55-2.4 0.15z" clip-rule="evenodd" fill="url(#ek)" fill-rule="evenodd"/>
	<linearGradient id="el" x1="38.95" x2="38.95" y1="116.44" y2="140.06" gradientUnits="userSpaceOnUse">
		<stop stop-color="#365387" offset="0"/>
		<stop stop-color="#31456B" offset=".3176"/>
		<stop stop-color="#242224" offset="1"/>
	</linearGradient>
	<path d="m38.35 122.5c2.4 5.733 3.717 11.667 3.95 17.8-0.833 0.533-1.966 0.566-3.4 0.101 0.2-2.601 0.167-5.584-0.1-8.95-0.438-5.9-1.504-10.65-3.2-14.25l2.75 5.3z" clip-rule="evenodd" fill="url(#el)" fill-rule="evenodd"/>
		<use transform="matrix(1 0 0 -1 31.3 8.6499)" y="-57.702" width="79.1" height="57.747" enable-background="new" opacity=".2305" xlink:href="#ct"/>
			<linearGradient id="em" x1="-57.59" x2="-7.1011" y1="71.497" y2="71.497" gradientTransform="matrix(.024 -.9997 .9997 .024 -.00035731 5.6073e-5)" gradientUnits="userSpaceOnUse">
			<stop stop-color="#00263D" offset="0"/>
			<stop stop-color="#00562E" offset=".5451"/>
			<stop stop-color="#599D4A" offset="1"/>
		</linearGradient>
		<path d="m96.95 10.75c1.899 1.433 3.434 4.017 4.6 7.75 0.434 1.467 1.101 4.5 2 9.1 0.934 4.9 1.55 8.867 1.851 11.9 0.199 1.9 0.517 3.383 0.949 4.45 0.601 1.466 1.584 2.533 2.95 3.2 4.5 2.2 5.417 4.033 2.75 5.5-1.3 0.733-3.45 0.417-6.45-0.95-2.488-1.146-4.463-0.729-5.925 1.25 0.192-0.276 0.434-0.676 0.726-1.2 0.333-0.567 0.716-0.967 1.149-1.2-0.866 0.3-2.066 1.167-3.6 2.6-1.434 1.333-2.667 2.1-3.7 2.3-1.634-0.167-2.866-0.284-3.7-0.35-1.566-0.1-2.533 0.467-2.899 1.7 0.216-0.863 0.557-1.53 1.024-2-0.905 0.853-1.613 1.502-2.125 1.95-0.967 0.833-1.816 1.35-2.55 1.55-0.733 0.2-1.366 0.017-1.9-0.55-0.6-0.633-1.133-0.917-1.6-0.85-0.467 0.1-0.934 0.567-1.4 1.4-0.366 0.667-0.616 1.317-0.75 1.95 0.034-0.833 0.084-1.433 0.15-1.8-0.434 0.066-1 0.383-1.7 0.95-0.7 0.6-1.3 0.95-1.8 1.05-1.033 0.167-2.05-0.1-3.05-0.8-0.334-0.233-1.15-1-2.45-2.3-1.767-1.7-3.933-3.083-6.5-4.15-2.892-1.193-5.075-1.276-6.55-0.25 0.842-0.718 1.842-1.218 3-1.5-0.867-0.267-1.95-0.15-3.25 0.35-0.6 0.233-1.65 0.8-3.15 1.7-1.267 0.767-2.333 1.25-3.2 1.45-1.3 0.333-3.25-0.017-5.85-1.05-2.467-0.967-4.433-1.167-5.9-0.6-0.934 0.367-1.883 1.184-2.85 2.45-1.133 1.533-1.967 2.5-2.5 2.9-0.467 0.333-0.95 0.434-1.45 0.3-0.667-0.2-1.117-0.284-1.35-0.25-0.3 0.033-0.7 0.216-1.2 0.55-0.6 0.367-1.067 0.6-1.4 0.7-0.934-1.333-0.467-3.833 1.4-7.5 0.4-0.767 1.117-1.717 2.15-2.85 1.967-2.167 3.25-5.35 3.85-9.55 0.333-4.833 0.65-8.367 0.95-10.6 0.6-4.534 0.95-7.05 1.05-7.55 0.767-3.467 1.9-5.566 3.4-6.3 1.133-0.567 3.167-1.45 6.1-2.65 3-1.333 5.75-2.784 8.25-4.35 6.033-3.767 13.533-5.267 22.5-4.5 8.333 0.7 14.983 2.917 19.95 6.65z" clip-rule="evenodd" fill="url(#em)" fill-rule="evenodd"/>
			<linearGradient id="en" x1="-58.619" x2="-3.6277" y1="72.182" y2="72.182" gradientTransform="matrix(.0241 -.9997 .9997 .0241 .00026675 .00024523)" gradientUnits="userSpaceOnUse">
			<stop stop-color="#0D3F4D" offset="0"/>
			<stop stop-color="#186042" offset=".3255"/>
			<stop stop-color="#76C261" offset="1"/>
		</linearGradient>
		<path d="m121.85 21.55c5.334 2.367 9.4 5.184 12.2 8.45 4.233 4.9 3.95 9.617-0.85 14.15-1.634 1.533-4.3 2.917-8 4.15-1.533 0.467-2.684 0.817-3.45 1.05-1.434 0.467-2.5 1.017-3.2 1.65-0.467 0.4-0.866 1.067-1.2 2-0.399 1.1-0.733 1.817-1 2.15-0.666 0.867-1.483 1.3-2.449 1.3 0.633-0.1 1.149-0.434 1.55-1 0.366-0.534 0.55-1.133 0.55-1.8-0.366 0.667-0.667 1.15-0.9 1.45-0.399 0.533-0.866 0.833-1.399 0.9-0.667 0.067-1.084-0.433-1.25-1.5-0.033-0.167-0.066-0.6-0.101-1.3-0.033-0.733-0.033-1.117 0-1.15-1 0.867-3.033 0.217-6.1-1.95-2.889-2.036-4.973-2.21-6.25-0.525 0.197-0.272 0.447-0.681 0.75-1.225 0.333-0.533 0.7-0.917 1.1-1.15-0.933 0.333-2.083 1.117-3.449 2.35-1.367 1.3-2.417 2.083-3.15 2.35-1.934 0.733-3.167 0.55-3.7-0.55-0.566-1.1 0.05-2.2 1.851-3.3-1.134 0.567-2.767 1.817-4.9 3.75-2.033 1.8-3.684 2.967-4.95 3.5-0.366 0.133-0.816-0.167-1.35-0.9-0.533-0.767-0.983-1.133-1.351-1.1-0.366 0.034-0.683 0.317-0.949 0.85-0.233 0.667-0.417 1.1-0.551 1.3-0.666 1.2-1.433 1.816-2.3 1.85-0.7 0-1.583-0.4-2.649-1.2-1.101-0.733-2.034-1.367-2.801-1.9-1.455-0.992-2.222-1.643-2.3-1.95 0.336 1.436 1.169 2.902 2.5 4.4-0.967-0.367-1.983-1.066-3.05-2.1-1.167-1.233-2.067-2.133-2.7-2.7-1.6-1.434-3.733-2.317-6.4-2.65-1.7-0.233-3.55 0.283-5.55 1.55-2.533 1.6-4.233 2.517-5.1 2.75 1.5-0.5 2.333-1.217 2.5-2.15-1.033 0.4-2.383 0.4-4.05 0-1.967-0.5-3.617-0.75-4.95-0.75-1.7 0.033-3.283 0.467-4.75 1.3-0.367 0.2-1.333 1.483-2.9 3.85-1.267 1.9-2.417 2.65-3.45 2.25-0.6-0.233-0.967-0.683-1.1-1.35-0.1-0.633 0.034-1.233 0.4-1.8-1.2 0.767-1.733 2.066-1.6 3.9-0.3-0.667-0.367-1.417-0.2-2.25 0.133-0.8 0.417-1.5 0.85-2.1-0.6 0.3-1.317 1.583-2.15 3.85-0.733 2-1.483 2.95-2.25 2.85-1-0.167-1.45-1.25-1.35-3.25 0.1-2.633 0.133-4.017 0.1-4.15-0.267-0.8-2.167-1.9-5.7-3.3-4.167-1.633-7.033-3.133-8.6-4.5-3.568-3.033-4.868-6.667-3.901-10.9 0.867-3.867 3.317-7.383 7.35-10.55 3.5-2.767 8.517-5.35 15.05-7.75 3.4-1.267 7.467-2.767 12.2-4.5 1.133-0.567 3.15-1.45 6.05-2.65 3-1.333 5.767-2.783 8.3-4.35 6.233-3.9 13.4-5.6 21.5-5.1 7.867 0.5 14.85 2.933 20.95 7.3 3.167 2.267 7.267 4.85 12.3 7.75 5 2.9 9.08 5.033 12.25 6.4z" clip-rule="evenodd" fill="url(#en)" fill-rule="evenodd"/>
				<use transform="matrix(1 0 0 -1 62.5 18.95)" x="-0.026" y="-24.4" width="67.606" height="24.395" enable-background="new" opacity=".1016" xlink:href="#dy"/>
				<use transform="matrix(1 0 0 -1 53.45 7.0498)" x="-0.155" y="-13.4" width="53.955" height="13.414" enable-background="new" opacity=".1016" xlink:href="#cw"/>
				<use transform="matrix(1 0 0 -1 110.2 32.9)" y="-11.041" width="22.867" height="11.041" enable-background="new" opacity=".1016" xlink:href="#cu"/>
				<use transform="matrix(1 0 0 -1 8.7002 23.4)" x="-0.044" y="-22.788" width="50.928" height="22.816" enable-background="new" opacity=".1016" xlink:href="#cr"/>
				<use transform="matrix(1 0 0 -1 61.3 34.3)" y="-8.156" width="24.7" height="8.156" enable-background="new" opacity=".1016" xlink:href="#cq"/>
				<use transform="matrix(1 0 0 -1 85.9 41)" y="-2.211" width="14.95" height="2.191" enable-background="new" opacity=".1016" xlink:href="#cp"/>
				<use transform="matrix(1 0 0 -1 33.3 23)" y="-3.276" width="22.8" height="3.276" enable-background="new" opacity=".1016" xlink:href="#ck"/>
				<use transform="matrix(1 0 0 -1 30.3 9.75)" x="-0.004" y="-10.553" width="21.188" height="10.569" enable-background="new" opacity=".1016" xlink:href="#cc"/>
				<use transform="matrix(1 0 0 -1 44.05 18.8)" y="-2.75" width="8.003" height="2.8" enable-background="new" opacity=".1016" xlink:href="#cb"/>
		<linearGradient id="eo" x1="-142.75" x2="-108.6" y1="69.591" y2="69.591" gradientTransform="matrix(2.9283e-5 -1 1 -.001 4.0122e-5 .00021055)" gradientUnits="userSpaceOnUse">
		<stop stop-color="#242224" offset="0"/>
		<stop stop-color="#196853" offset=".6784"/>
		<stop stop-color="#158466" offset="1"/>
	</linearGradient>
	<path d="m65.5 145.75c0.3-9.066 1.917-17.85 4.85-26.35l3.325-7.676c-2.06 5.3-3.335 12.259-3.825 20.875-0.3 5-0.333 9.434-0.1 13.301-0.9 0.699-1.883 0.883-2.95 0.55l-1.3-0.7z" clip-rule="evenodd" fill="url(#eo)" fill-rule="evenodd"/>
		<linearGradient id="ep" x1="-144.52" x2="-127.72" y1="70.434" y2="70.434" gradientTransform="matrix(5.9524e-5 -1 1 -.001 5.3997e-5 .00021055)" gradientUnits="userSpaceOnUse">
		<stop stop-color="#242224" offset="0"/>
		<stop stop-color="#196853" offset=".6784"/>
		<stop stop-color="#158466" offset="1"/>
	</linearGradient>
	<path d="m68.6 145.95c0.133-4.467 0.85-8.783 2.15-12.95l1.5-3.775c-0.932 2.614-1.498 6.039-1.7 10.275-0.133 2.467-0.149 4.65-0.05 6.55-0.633 0.53-1.267 0.5-1.9-0.1z" clip-rule="evenodd" fill="url(#ep)" fill-rule="evenodd"/>
		<linearGradient id="er" x1="-142.23" x2="-111.68" y1="104.23" y2="104.23" gradientTransform="matrix(3.2733e-5 -1 1 -.001 .00023427 .00021055)" gradientUnits="userSpaceOnUse">
		<stop stop-color="#242224" offset="0"/>
		<stop stop-color="#283636" offset=".1529"/>
		<stop stop-color="#367D74" offset=".7333"/>
		<stop stop-color="#3B998C" offset="1"/>
	</linearGradient>
	<path d="m98.6 137.25c0.534-8.9 2.567-16.05 6.101-21.45 1.767-2.7 3.483-4.517 5.149-5.45-3.566 3.634-5.767 9.2-6.6 16.7-0.4 3.733-0.45 7.101-0.15 10.101-0.8 0.566-1.783 0.75-2.949 0.55l-1.55-0.45z" clip-rule="evenodd" fill="url(#er)" fill-rule="evenodd"/>
		<linearGradient id="es" x1="-143.85" x2="-101.75" y1="102.4" y2="102.4" gradientTransform="matrix(2.3753e-5 -1 1 -.001 5.0538e-5 .00021055)" gradientUnits="userSpaceOnUse">
		<stop stop-color="#242224" offset="0"/>
		<stop stop-color="#24373C" offset=".1804"/>
		<stop stop-color="#267483" offset=".7412"/>
		<stop stop-color="#268C9F" offset="1"/>
	</linearGradient>
	<path d="m96 136.95c0.533-14.2 2.816-24.617 6.85-31.25 2.034-3.334 4.017-5.25 5.95-5.75-4.233 2.533-6.95 9.55-8.149 21.05-0.601 5.767-0.784 11.267-0.551 16.5-1.267 0.333-2.333 0.35-3.199 0.05l-0.901-0.6z" clip-rule="evenodd" fill="url(#es)" fill-rule="evenodd"/>
	<linearGradient id="et" x1="13.6" x2="13.6" y1="110.24" y2="133.06" gradientUnits="userSpaceOnUse">
		<stop stop-color="#158466" offset="0"/>
		<stop stop-color="#236866" offset=".4039"/>
		<stop stop-color="#3A3866" offset="1"/>
	</linearGradient>
	<path d="m16.25 133.75c-0.233 0.2-0.517 0.35-0.85 0.45-0.667 0.233-1.283 0.133-1.85-0.3 0.167-2.334 0.15-5-0.05-8-0.351-5.29-1.201-9.54-2.55-12.75l2.2 4.75c1.867 5.1 2.9 10.38 3.1 15.85z" clip-rule="evenodd" fill="url(#et)" fill-rule="evenodd"/>
	<linearGradient id="eu" x1="62.075" x2="62.075" y1="111.58" y2="144.03" gradientUnits="userSpaceOnUse">
		<stop stop-color="#158466" offset="0"/>
		<stop stop-color="#196853" offset=".3216"/>
		<stop stop-color="#242224" offset="1"/>
	</linearGradient>
	<path d="m59.55 114.4l2.3 8.05c1.7 7.333 2.617 14.934 2.75 22.8-1.1 0.634-2.017 0.75-2.75 0.35 0.133-3.366 0.117-7.216-0.05-11.55-0.289-8.35-1.039-14.9-2.25-19.65z" clip-rule="evenodd" fill="url(#eu)" fill-rule="evenodd"/>
</svg>
