<?xml version="1.0" encoding="UTF-8"?>
<!DOCTYPE svg  PUBLIC '-//W3C//DTD SVG 1.1//EN'  'http://www.w3.org/Graphics/SVG/1.1/DTD/svg11.dtd'>
<svg enable-background="new 0 0 151.4 106.7" version="1.1" viewBox="0 0 151.4 106.7" xml:space="preserve" xmlns="http://www.w3.org/2000/svg" xmlns:xlink="http://www.w3.org/1999/xlink">
<symbol id="bq" viewBox="-0.035 -10.7 30.452 10.7">
		<path d="m30.4-4.55c-1.4-2.1-2.933-4.15-4.6-6.15l-7.6 2.9c-1.867 0.7-3.517 0.966-4.95 0.8-1.867-0.433-3.5-0.783-4.9-1.05-2.4-0.467-4.533-0.55-6.4-0.25-2.1 0.333-2.534 1.05-1.3 2.15 2.4 2.133 6.467 3.8 12.2 5 3.3 0.7 6.183 1.083 8.65 1.15-1.433-0.2-2.683-0.5-3.75-0.9-2.1-0.767-2.2-1.667-0.3-2.7 1.733-0.933 4.566-1.233 8.5-0.9 3.167 0.267 4.65 0.25 4.45-0.05z" clip-rule="evenodd" fill="#64C671" fill-rule="evenodd"/>
</symbol>
<symbol id="br" viewBox="-0.093 -2.439 6.735 2.477">
		<path d="m3.95-0.05c2.6-0.434 3.316-1 2.15-1.7-1.167-0.7-2.717-0.867-4.65-0.5-1.667 0.333-1.983 0.833-0.95 1.5 1 0.7 2.15 0.933 3.45 0.7z" clip-rule="evenodd" fill="#64C671" fill-rule="evenodd"/>
</symbol>
<symbol id="bs" viewBox="0.015 -15.659 71.385 15.659">
		<path d="m50.7-3.7c2.433-1.767 2.667-3.633 0.7-5.6-1.933-1.867 0.733-2.534 8-2 3.633 0.233 6.733-0.05 9.3-0.85 1.267-0.4 2.167-0.833 2.7-1.3-2.3 0.767-5.45 0.784-9.45 0.05-6.467-1.2-11.15-1.9-14.05-2.1-6.867-0.433-12.333 0.017-16.4 1.35-3.8 1.3-4.75 2.667-2.85 4.1 1.467 1.1 3.45 1.95 5.95 2.55 1.233 0.3 2.333 0.483 3.3 0.55-1.933-0.333-2.95-1.033-3.05-2.1-0.067-1.133 1.066-1.684 3.4-1.65 3.933 0.1 6.6 0.9 8 2.4 1.367 1.466 0.917 2.8-1.35 4-1.933 1-4.75 1.367-8.45 1.1-2.333-0.2-5.467-0.716-9.4-1.55-4.367-0.967-8.117-1.633-11.25-2-4.1-0.5-7.9-0.6-11.4-0.3-2 0.167-3.267 0.333-3.8 0.5-1.1 0.333-0.65 0.8 1.35 1.4 6.833 1.167 12.1 2.3 15.8 3.4 1.6 0.467 3.633 0.867 6.1 1.2 1.3 0.167 2.85 0.35 4.65 0.55-6.933-2.167-12.433-3.5-16.5-4 4.867-0.433 9.667-0.133 14.4 0.9 5.633 1.267 9.483 1.934 11.55 2 5.867 0.2 10.117-0.667 12.75-2.6z" clip-rule="evenodd" fill="#64C671" fill-rule="evenodd"/>
</symbol>
<symbol id="bt" viewBox="0 -50.152 94.8 50.159">
			<linearGradient id="cx" x1="16011" x2="16055" y1="122.48" y2="122.48" gradientTransform="matrix(.0239 .9997 -.9997 .0239 -212.44 -16058)" gradientUnits="userSpaceOnUse">
			<stop stop-color="#242224" offset="0"/>
			<stop stop-color="#27252E" offset=".1529"/>
			<stop stop-color="#302E49" offset=".4157"/>
			<stop stop-color="#3A3866" offset=".6471"/>
			<stop stop-color="#44828C" offset="1"/>
		</linearGradient>
		<path d="m84.9-46.85c-0.433 1-0.933 1.65-1.5 1.95-0.833 0.433-2.017 0.217-3.55-0.65-1.6-1.133-2.65-1.85-3.15-2.15-2.067-1.367-3.784-2.066-5.15-2.1 0.467 0.033 0.983 0.267 1.55 0.7 0.533 0.4 0.9 0.8 1.1 1.2-0.4 0-1.417-0.1-3.05-0.3-1.2-0.133-2.25-0.117-3.15 0.05-2.233 0.367-4.517 1.217-6.85 2.55-5.556 3.283-10.047 4.1-13.475 2.45 1.33 0.688 2.854 1.104 4.575 1.25-1.533 0.033-2.6 0.033-3.2 0-1.233-0.033-2.283-0.2-3.15-0.5-0.533-0.2-1.367-0.75-2.5-1.65-1.066-0.8-1.967-1.267-2.7-1.4-0.767-0.133-1.684 0.034-2.75 0.5-1.167 0.633-2.05 1.05-2.65 1.25-0.767 0.267-1.617 0.217-2.55-0.15-1.067-0.533-1.883-0.917-2.45-1.15-0.8-0.367-1.6-1.05-2.4-2.05-1.2-1.434-1.867-2.217-2-2.35-0.667-0.633-1.533-0.867-2.6-0.7-0.5 0.067-1.533 0.4-3.1 1-1.133 0.6-2.05 0.983-2.75 1.15-1.3 0.067-2.233 0.217-2.8 0.45 0.1-0.467 0.383-0.833 0.85-1.1 0.433-0.267 0.917-0.383 1.45-0.35-0.5-0.333-0.867-0.533-1.1-0.6-0.633-0.133-1.567-0.083-2.8 0.15-2.9 1.033-5.15 1.816-6.75 2.35-2.9 0.933-5 0.85-6.3-0.25l0.7 5.5c0.2 1.567 0.3 2.75 0.3 3.55 0 0.367-0.067 1.617-0.2 3.75-0.066 1.267 0.034 1.983 0.3 2.15 0.333 0.267 0.566 1 0.7 2.2 0.467 4 2.233 8.25 5.3 12.75 2.267 3.333 4.9 6.3 7.9 8.9 3.067 2.667 7.383 4.817 12.95 6.45 5.367 1.6 10.283 2.267 14.75 2 9.967-0.633 21.683-4.55 35.15-11.75 5.733-3.067 9.967-7.583 12.7-13.55 1.934-4.267 3.35-10.066 4.25-17.4-0.433-0.3-0.966-0.967-1.6-2-0.7-1.2-1.233-2.05-1.6-2.55-0.633-0.9-1.633-1.233-3-1s-2.233 0.816-2.6 1.75c-0.133-0.367-0.217-0.8-0.25-1.3 0-0.531 0.1-0.931 0.3-1.2-0.261 0.329-0.645 1.063-1.15 2.2z" clip-rule="evenodd" fill="url(#cx)" fill-rule="evenodd"/>
</symbol>
<symbol id="bu" viewBox="-0.082 -14.368 9.012 14.448">
			<linearGradient id="dj" x1="1561" x2="1588.6" y1="1295.5" y2="1295.5" gradientTransform="matrix(.9843 .1763 -.1763 .9843 -1307.3 -1558.1)" gradientUnits="userSpaceOnUse">
			<stop stop-color="#3A3866" offset="0"/>
			<stop stop-color="#44828C" offset="1"/>
		</linearGradient>
		<path d="m6.55-6.4c-2.933-5.567-4.95-8.217-6.05-7.95-1.067 0.267-0.667 2.383 1.2 6.35 1.867 4 3.733 6.55 5.6 7.65 2.4 1.4 2.15-0.617-0.75-6.05z" clip-rule="evenodd" fill="url(#dj)" fill-rule="evenodd"/>
</symbol>
<symbol id="bv" viewBox="-0.013 -12.65 31.341 12.675">
		<path d="m24-0.4c1.667-0.3 2.967-0.65 3.9-1.05-4.033 0.5-7.316-0.316-9.85-2.45-1.566-1.367-3.233-2.133-5-2.3l-2.2 0.2c1.2 0.2 2.15 0.467 2.85 0.8 0.9 0.434 1.167 0.867 0.8 1.3-0.5 0.566-2.167 0.6-5 0.1-2.933-0.533-4.367-1.35-4.3-2.45 0.066-1.267 1.3-1.9 3.7-1.9 2.5-0.033 5.283 0.633 8.35 2 2.633 1.167 5.55 1.95 8.75 2.35 1.6 0.2 2.933 0.283 4 0.25 1.1-1.8 1.517-3.867 1.25-6.2-0.133-1.133-0.383-2.1-0.75-2.9-0.6 1.1-1.9 1.9-3.9 2.4-2.3 0.567-4.967 0.533-8-0.1-4.033-0.8-7.783-0.833-11.25-0.1-3.4 0.733-5.733 2.017-7 3.85-1.067 1.567 0.217 2.95 3.85 4.15 2.033 0.667 5.167 1.35 9.4 2.05 3.6 0.567 7.067 0.567 10.4 0z" clip-rule="evenodd" fill="#64C671" fill-rule="evenodd"/>
</symbol>
<symbol id="bw" viewBox="-0.027 -5.901 3.074 5.99">
			<linearGradient id="du" x1="1574.7" x2="1583.5" y1="1309.4" y2="1309.4" gradientTransform="matrix(.9841 .1776 -.1776 .9841 -1316.6 -1571.4)" gradientUnits="userSpaceOnUse">
			<stop stop-color="#3A3866" offset="0"/>
			<stop stop-color="#44828C" offset="1"/>
		</linearGradient>
		<path d="m2.9-0.65c0.367-1.033 0.05-2.383-0.95-4.05-0.967-1.633-1.583-1.6-1.85 0.1-0.3 1.7-0.067 2.967 0.7 3.8 1.067 1.133 1.767 1.183 2.1 0.15z" clip-rule="evenodd" fill="url(#du)" fill-rule="evenodd"/>
</symbol>
<symbol id="bx" viewBox="-0.019 -26.908 13.838 26.899">
			<linearGradient id="dy" x1="1561.7" x2="1605" y1="1289.6" y2="1289.6" gradientTransform="matrix(.9843 .1764 -.1764 .9843 -1308.2 -1559.4)" gradientUnits="userSpaceOnUse">
			<stop stop-color="#3A3866" offset="0"/>
			<stop stop-color="#44828C" offset="1"/>
		</linearGradient>
		<path d="m5.4-4.55c0.967 0.567 1.783 0.517 2.45-0.15 0.7 2.3 1.75 3.783 3.15 4.45 1.5 0.667 2.4-0.05 2.7-2.15 0.3-1.967 0.033-4-0.8-6.1-0.967-2.5-2.167-3.75-3.6-3.75-0.1-2.833-0.5-5.4-1.2-7.7-1.434-4.8-3.2-7.117-5.3-6.95-2.033 0.133-2.966 2.217-2.8 6.25 0.167 3.9 0.717 7.283 1.65 10.15 0.967 3.033 2.217 5.017 3.75 5.95z" clip-rule="evenodd" fill="url(#dy)" fill-rule="evenodd"/>
</symbol>
<symbol id="by" viewBox="-0.091 -14.519 5.065 14.551">
			<linearGradient id="dz" x1="1564.6" x2="1579.5" y1="1298.5" y2="1298.5" gradientTransform="matrix(.9843 .1767 -.1767 .9843 -1310 -1562)" gradientUnits="userSpaceOnUse">
			<stop stop-color="#3A3866" offset="0"/>
			<stop stop-color="#44828C" offset="1"/>
		</linearGradient>
		<path d="m3.4-0.25c0.567-0.433 0.983-1.333 1.25-2.7 0.7-3.3 0.267-6.583-1.3-9.85-0.767-1.6-1.467-2.083-2.1-1.45-0.533 0.533-0.9 1.75-1.1 3.65-0.566 4.8-0.133 8.083 1.3 9.85 0.667 0.833 1.317 1 1.95 0.5z" clip-rule="evenodd" fill="url(#dz)" fill-rule="evenodd"/>
</symbol>
<symbol id="bz" viewBox="-0.136 -13.603 6.601 13.609">
			<linearGradient id="ea" x1="4220.3" x2="4244.4" y1="2669" y2="2669" gradientTransform="matrix(.9054 .4246 -.4246 .9054 -2687.3 -4216.4)" gradientUnits="userSpaceOnUse">
			<stop stop-color="#3A3866" offset="0"/>
			<stop stop-color="#44828C" offset="1"/>
		</linearGradient>
		<path d="m1.1-3.4c0.933 1.833 1.867 2.933 2.8 3.3 0.833 0.3 1.483-0.033 1.95-1 1.133-2.367 0.7-5.5-1.3-9.4-1.867-3.667-3.25-4.083-4.15-1.25s-0.667 5.617 0.7 8.35z" clip-rule="evenodd" fill="url(#ea)" fill-rule="evenodd"/>
</symbol>
<symbol id="ca" viewBox="0.011 -17.163 7.692 17.145">
			<linearGradient id="eb" x1="1566.8" x2="1589.9" y1="1298.3" y2="1298.3" gradientTransform="matrix(.9842 .1769 -.1769 .9842 -1311.5 -1564)" gradientUnits="userSpaceOnUse">
			<stop stop-color="#3A3866" offset="0"/>
			<stop stop-color="#44828C" offset="1"/>
		</linearGradient>
		<path d="m3.35-0.95c1.467 1.133 2.583 1.233 3.35 0.3 0.7-0.833 1.033-2.317 1-4.45-0.1-5.066-1.367-8.816-3.8-11.25-1.066-1.066-1.967-1.083-2.7-0.05-0.667 0.933-1.05 2.467-1.15 4.6-0.267 5.3 0.833 8.917 3.3 10.85z" clip-rule="evenodd" fill="url(#eb)" fill-rule="evenodd"/>
</symbol>
<symbol id="cb" viewBox="0 -11.546 11.851 11.546">
		<path d="m3.8 0c1.7-0.367 3.284-0.95 4.75-1.75 2.967-1.633 3.934-3.567 2.9-5.8-1.034-2.267-3.25-3.567-6.65-3.9-1.7-0.167-3.3-0.117-4.8 0.15 6.133 1.267 8.6 3.533 7.4 6.8-0.567 1.633-1.767 3.133-3.6 4.5z" clip-rule="evenodd" fill="#64C671" fill-rule="evenodd"/>
</symbol>
<symbol id="cc" viewBox="0.022 -34.2 8.178 34.2">
			<linearGradient id="ec" x1="1558.9" x2="1570.5" y1="1290.3" y2="1290.3" gradientTransform="matrix(.9842 .177 -.177 .9842 -1312.2 -1565.1)" gradientUnits="userSpaceOnUse">
			<stop stop-color="#242224" offset="0"/>
			<stop stop-color="#27252E" offset=".1529"/>
			<stop stop-color="#302E49" offset=".4157"/>
			<stop stop-color="#3A3866" offset=".6471"/>
			<stop stop-color="#44828C" offset="1"/>
		</linearGradient>
		<path d="m3 0l3.8-17.35-0.05-4.35c0.033-3.267 0.167-5.767 0.4-7.5 0.267-2 0.617-3.667 1.05-5-2.2 0.5-3.733 0.717-4.6 0.65-0.434 0-0.65-0.067-0.65-0.2-0.434 0.133-0.883 0.533-1.35 1.2-0.9 1.267-1.417 3.167-1.55 5.7-0.167 2.833 0.417 7.217 1.75 13.15 0.8 3.433 1.2 8 1.2 13.7z" clip-rule="evenodd" fill="url(#ec)" fill-rule="evenodd"/>
</symbol>
<symbol id="cd" viewBox="-0.088 -78.756 22.688 78.756">
			<linearGradient id="bp" x1="1533.1" x2="1579.6" y1="1264.8" y2="1264.8" gradientTransform="matrix(.9843 .1767 -.1767 .9843 -1310 -1562)" gradientUnits="userSpaceOnUse">
			<stop stop-color="#242224" offset="0"/>
			<stop stop-color="#27252E" offset=".1529"/>
			<stop stop-color="#302E49" offset=".4157"/>
			<stop stop-color="#3A3866" offset=".6471"/>
			<stop stop-color="#44828C" offset="1"/>
		</linearGradient>
		<path d="m20.3-17.25c-1.6-4.433-2.533-7.717-2.8-9.85-0.3-2.7-0.917-5.85-1.85-9.45-1-3.833-2.083-7.1-3.25-9.8-1.967-4.7-3.15-9.983-3.55-15.85-0.2-2.933 0.683-8.2 2.65-15.8-1.733 0.3-3.483 0.517-5.25 0.65-3.533 0.2-5.4-0.217-5.6-1.25-0.967-0.9-0.983 2.1-0.05 9 0.933 7.067 2.183 12.45 3.75 16.15 1.667 3.9 3.383 8.467 5.15 13.7 1.8 5.267 3.067 9.483 3.8 12.65 0.633 2.633 1.467 5.45 2.5 8.45 1.133 3 1.9 5.066 2.3 6.2 0.8 2.267 1.6 6.417 2.4 12.45 1.2-4.567 1.9-8.317 2.1-11.25-0.733-1.8-1.5-3.8-2.3-6z" clip-rule="evenodd" fill="url(#bp)" fill-rule="evenodd"/>
</symbol>
<symbol id="ce" viewBox="0 -93.858 20.95 93.858">
			<linearGradient id="cn" x1="1530.8" x2="1581.4" y1="1259" y2="1259" gradientTransform="matrix(.9842 .1769 -.1769 .9842 -1311.5 -1564.1)" gradientUnits="userSpaceOnUse">
			<stop stop-color="#242224" offset="0"/>
			<stop stop-color="#27252E" offset=".1529"/>
			<stop stop-color="#302E49" offset=".4157"/>
			<stop stop-color="#3A3866" offset=".6471"/>
			<stop stop-color="#44828C" offset="1"/>
		</linearGradient>
		<path d="m17.95-39.3c-2.467-6.567-5.05-14.534-7.75-23.9-0.867-2.933-1.333-8.883-1.4-17.85 0-4.5 0.067-8.7 0.2-12.6-3.6-0.333-6.6-0.267-9 0.2 0.033 0.167 0.533 2.567 1.5 7.2 0.767 3.633 1.267 6.767 1.5 9.4 0.467 5.033 2.267 12.434 5.4 22.2 1.3 3.9 2.25 6.833 2.85 8.8 1 3.367 1.633 6.05 1.9 8.05 0.2 1.433 0.45 4.933 0.75 10.5 0.3 5.133 0.55 8.216 0.75 9.25 0.4 1.933 1.3 7.95 2.7 18.05h3.6c-1.8-8.633-2.7-15.217-2.7-19.75 0-2.3 0.217-5.717 0.65-10.25 0.2-3.933-0.117-7.033-0.95-9.3z" clip-rule="evenodd" fill="url(#cn)" fill-rule="evenodd"/>
</symbol>
<symbol id="cf" viewBox="0 -89.2 35.7 89.2">
			<linearGradient id="co" x1="1522" x2="1591.3" y1="1257.9" y2="1257.9" gradientTransform="matrix(.9843 .1767 -.1767 .9843 -1310 -1562)" gradientUnits="userSpaceOnUse">
			<stop stop-color="#242224" offset="0"/>
			<stop stop-color="#27252E" offset=".1529"/>
			<stop stop-color="#302E49" offset=".4157"/>
			<stop stop-color="#3A3866" offset=".6471"/>
			<stop stop-color="#44828C" offset="1"/>
		</linearGradient>
		<path d="m26.35-17.55c0.267 1.966 0.7 3.917 1.3 5.85 0.967 3.233 2.05 7.05 3.25 11.45l4.8 0.25c-0.733-2.133-1.5-4.533-2.3-7.2-1.6-5.367-2.533-9.483-2.8-12.35-0.467-5.434-0.783-8.733-0.95-9.9-0.433-3.7-1.1-7.3-2-10.8-0.7-2.7-2.066-7.267-4.1-13.7-1.667-5.767-2.5-9.983-2.5-12.65 0-2.533-0.1-5.867-0.3-10s-0.3-6.483-0.3-7.05c0-1.8-0.4-3.434-1.2-4.9-2.633-0.434-5.75-0.65-9.35-0.65-3 0-6.3 0.067-9.9 0.2 1.6 0.9 3.783 3.433 6.55 7.6 3.534 5.3 6.083 10.883 7.65 16.75 1.033 3.833 2.45 9.617 4.25 17.35 1.267 5.533 2.233 9.183 2.9 10.95 1.066 2.467 1.8 4.2 2.2 5.2 0.633 1.633 1.2 3.8 1.7 6.5 0.167 0.933 0.533 3.3 1.1 7.1z" clip-rule="evenodd" fill="url(#co)" fill-rule="evenodd"/>
</symbol>
<symbol id="cg" viewBox="0 -68.9 29.276 69.004">
			<linearGradient id="cp" x1="1531.1" x2="1586.1" y1="1269.7" y2="1269.7" gradientTransform="matrix(.9843 .1766 -.1766 .9843 -1309.9 -1561.8)" gradientUnits="userSpaceOnUse">
			<stop stop-color="#242224" offset="0"/>
			<stop stop-color="#27252E" offset=".1529"/>
			<stop stop-color="#302E49" offset=".4157"/>
			<stop stop-color="#3A3866" offset=".6471"/>
			<stop stop-color="#44828C" offset="1"/>
		</linearGradient>
		<path d="m28.85-6.3c-0.833-2.633-1.65-5-2.45-7.1-0.5-1.267-1.283-3.184-2.35-5.75-1.966-4.8-3.767-11.533-5.4-20.2-1.933-10.3-3.933-17.65-6-22.05-1.133-2.333-2.4-4.283-3.8-5.85-0.7-0.8-1.283-1.35-1.75-1.65-1.233 0.3-2.517 0.483-3.85 0.55-1.433 0.033-2.517 0.083-3.25 0.15 1.267 0.7 2.6 1.784 4 3.25 1.3 1.333 2.4 2.733 3.3 4.2 1.1 1.733 2.034 3.717 2.8 5.95 0.233 0.7 0.983 3.283 2.25 7.75 0.4 1.4 1.017 4.117 1.85 8.15 0.633 3 1.4 5.65 2.3 7.95 0.967 2.467 1.6 6.983 1.9 13.55 0.149 6.44 0.308 11.016 0.475 13.725l-1.125-0.125c-1-2.133-0.833-1.267 0.5 2.6 0.733 2.167 0.967 1.633 0.7-1.6-0.021-0.268-0.046-0.559-0.075-0.875l10.225 1.075c0.3-1 0.217-2.233-0.25-3.7z" clip-rule="evenodd" fill="url(#cp)" fill-rule="evenodd"/>
</symbol>
<symbol id="ch" viewBox="-0.001 -31.633 144.819 31.617">
		<path d="m143.85-19.95c-0.934-0.033-1.583-0.083-1.95-0.15-2.633-0.2-4.617-0.367-5.95-0.5-0.667-0.066-1.917-0.083-3.75-0.05-1.567 0.066-2.8 0-3.7-0.2 0.1-0.1 0.667-0.467 1.7-1.1 0.267-0.367 0.1-0.7-0.5-1-0.467-0.233-1.017-0.4-1.65-0.5-4.4-0.867-10.433-0.6-18.1 0.8-1.534 0.333-2.7 0.566-3.5 0.7-1.367 0.233-2.55 0.35-3.55 0.35-3.633 0-4.633-0.533-3-1.6 1.767-1.066 2.983-1.716 3.65-1.95 1.2-0.4 3.067-0.85 5.6-1.35 1.3-0.333 1.733-0.783 1.3-1.35-0.367-0.533-1.083-0.85-2.15-0.95-0.767-0.1-1.917-0.184-3.45-0.25-1.567-0.067-2.733-0.133-3.5-0.2-4.533-0.7-7.934-1.1-10.2-1.2-0.433-0.033-3.566-0.316-9.4-0.85-3.733-0.333-6.883-0.417-9.45-0.25-3.733 0.267-6.05 0.433-6.95 0.5-2.6 0.133-4.917 0.183-6.95 0.15-0.933-0.033-2.1 0.017-3.5 0.15-2.433 0.167-3.9 0.267-4.4 0.3-1.033-0.066-1.9-0.1-2.6-0.1-1.367 0.033-2.1 0.3-2.2 0.8-0.067 0.367 0.9 0.983 2.9 1.85 1.467 0.667 1.35 1.15-0.35 1.45-2.267 0.4-3.983 0.583-5.15 0.55-2.434-0.067-4.267-0.117-5.5-0.15-6.5 0.133-11.35 0.1-14.55-0.1-3.933-0.267-8.283-0.4-13.05-0.4-0.5 1 1.417 1.9 5.75 2.7 5.367 1 8.617 1.883 9.75 2.65-2.3 1.967-6.383 2.833-12.25 2.6-7.133-0.3-11.433-0.25-12.9 0.15-1 0.434 0.133 1.083 3.4 1.95 1.7 0.467 3.867 1.033 6.5 1.7 0.633 0.233 2.3 0.8 5 1.7 2.033 0.633 3.65 1.267 4.85 1.9 2.7 1.4 5.667 2.567 8.9 3.5 1.533 0.434 4.633 1.2 9.3 2.3l3.4 0.75c13.533 2.933 25.733 4.467 36.6 4.6 5.867 0.066 9.967 0.033 12.3-0.1 4.667-0.3 8.667-1.05 12-2.25 1.566-0.567 3.45-1.417 5.65-2.55l5.45-2.85c1.833-0.9 4.633-2.083 8.4-3.55 0.433-0.167 1.583-0.7 3.45-1.6 1.4-0.7 2.55-1.15 3.45-1.35 2.133-0.534 5.3-1.45 9.5-2.75 0.733-0.2 1.8-0.434 3.2-0.7 1.233-0.267 2.267-0.617 3.1-1.05v-0.2c0.1-0.533-0.22-0.85-0.95-0.95z" clip-rule="evenodd" fill="#529676" fill-rule="evenodd"/>
</symbol>
<symbol id="ci" viewBox="0.014 -31.878 151.387 31.862">
		<path d="m138.25-14c4.3-0.633 7.683-1.3 10.15-2 1.1-0.333 1.7-0.517 1.8-0.55 0.767-0.333 1.167-0.75 1.2-1.25 0.033-0.7-0.65-1.233-2.05-1.6-1.833-0.367-4.617-0.684-8.35-0.95-1.5-0.1-3.05-0.483-4.65-1.15-1.867-0.9-3.45-1.583-4.75-2.05-2.267-0.8-5.333-0.9-9.2-0.3-0.7 0.1-3.417 0.717-8.15 1.85-1.267 0.267-2.7 0.5-4.3 0.7-2.2 0.233-3.6 0.2-4.2-0.1-0.267-0.133 0.2-0.5 1.4-1.1 1.133-0.6 2.017-0.967 2.65-1.1 0.767-0.2 1.9-0.433 3.4-0.7 1.3-0.267 2.4-0.6 3.3-1 1.433-0.667 1.833-1.284 1.2-1.85-0.467-0.434-1.417-0.8-2.85-1.1-0.567-0.1-1.783-0.233-3.65-0.4-1.967-0.2-3.633-0.4-5-0.6-5.967-1-11.317-1.7-16.05-2.1-5.333-0.433-11.1-0.6-17.3-0.5-2.367 0.033-5.983 0.4-10.85 1.1-4.5 0.667-8.217 0.95-11.15 0.85-6.167-0.267-8.417 0.167-6.75 1.3 0.566 0.367 1.433 0.667 2.6 0.9 1.367 0.233 2.183 0.417 2.45 0.55 0.9 0.4 1.167 0.65 0.8 0.75-0.1 0.066-0.7 0.133-1.8 0.2-0.433 0.067-1 0.05-1.7-0.05-1.133-0.167-2.117-0.267-2.95-0.3-3.1-0.233-5.633-0.367-7.6-0.4-1.767-0.033-4.4 0.167-7.9 0.6-3.6 0.4-6.233 0.6-7.9 0.6-0.9 0-3.184-0.133-6.85-0.4-2.3-0.167-3.433-0.083-3.4 0.25-0.2 0.833 1.383 1.733 4.75 2.7 4.367 1.3 7.133 2.317 8.3 3.05 0.367 0.566-0.267 1.033-1.9 1.4-1.2 0.267-2.65 0.433-4.35 0.5-1.4 0.067-4.017 0.083-7.85 0.05-3.433 0-6.25 0.083-8.45 0.25-0.733 0.633-0.267 1.267 1.4 1.9 0.933 0.333 2.317 0.733 4.15 1.2 0.767 0.267 2.567 0.833 5.4 1.7 2.2 0.667 3.95 1.316 5.25 1.95 2.934 1.367 6.15 2.517 9.65 3.45 1.433 0.4 4.783 1.167 10.05 2.3l3.6 0.8c14.667 2.933 27.85 4.467 39.55 4.6 6.333 0.066 10.767 0.033 13.3-0.1 5.033-0.3 9.35-1.05 12.95-2.25 1.667-0.567 3.684-1.417 6.05-2.55 3.633-1.733 5.617-2.683 5.95-2.85 6.87-3.1 13.73-5.167 20.6-6.2z" clip-rule="evenodd" fill="#0D5069" fill-rule="evenodd"/>
</symbol>
<symbol id="cj" viewBox="0 -5.8 4.612 5.8">
		<path d="m2.2 0c2.7-2.233 3.133-3.867 1.3-4.9-0.9-0.533-2.067-0.833-3.5-0.9 1.8 0.8 2.7 2.017 2.7 3.65 0.033 0.8-0.133 1.517-0.5 2.15z" clip-rule="evenodd" fill="#64C671" fill-rule="evenodd"/>
</symbol>
<symbol id="ck" viewBox="0 -6.403 37.15 6.383">
		<path d="m35.85-4.6c0.667-0.566 1.1-1 1.3-1.3-0.9 0.7-2.017 1.383-3.35 2.05-2.633 1.3-4.933 1.833-6.9 1.6-0.667-0.1-3.783-0.933-9.35-2.5-4.6-1.3-8.133-1.833-10.6-1.6-2.633 0.233-4.583 1-5.85 2.3-0.633 0.667-1 1.3-1.1 1.9 0.8-0.467 1.967-0.817 3.5-1.05 3.033-0.433 6.333-0.05 9.9 1.15 1.934 0.633 4.083 1.15 6.45 1.55 4.767 0.8 8.3 0.6 10.6-0.6s4.1-2.367 5.4-3.5z" clip-rule="evenodd" fill="#64C671" fill-rule="evenodd"/>
</symbol>
<symbol id="cl" viewBox="0.002 -24.022 78.067 24.084">
		<path d="m68.15-10.6c-5.2 0.867-10.35 0.417-15.45-1.35-5.267-1.8-7.2-3.983-5.8-6.55 1.2-2.267 3.45-3.817 6.75-4.65 1.633-0.434 3.15-0.633 4.55-0.6-1.5-0.233-3.233-0.317-5.2-0.25-3.967 0.1-7.1 0.833-9.4 2.2-3.233 2.267-5.633 3.8-7.2 4.6-2.6 1.3-5.483 1.633-8.65 1-17.733-3.533-26.95-1.967-27.65 4.7-0.233 2.1-0.05 3.867 0.55 5.3 1 2.5 3.2 4.35 6.6 5.55 3.967 1.4 7.533 0.733 10.7-2 1.3-1.133 2.1-2.35 2.4-3.65 0.3-1.4-0.033-2.6-1-3.6-2.033-2.033-5.267-2.917-9.7-2.65s-6.483 1.466-6.15 3.6c0.3 1.633 1.7 2.5 4.2 2.6 1.233 0.067 2.45-0.033 3.65-0.3-0.934 0-1.867-0.083-2.8-0.25-1.8-0.333-2.633-0.917-2.5-1.75 0.2-1 1.367-1.567 3.5-1.7s4.05 0.25 5.75 1.15c1.733 0.934 1.75 2.1 0.05 3.5-1.733 1.4-3.95 1.9-6.65 1.5-2.767-0.4-4.917-1.567-6.45-3.5-1.567-1.9-1.717-3.566-0.45-5 1.7-1.867 4.467-2.683 8.3-2.45 3 0.2 6.267 0.983 9.8 2.35 3.333 1.267 7.317 2.55 11.95 3.85 5.367 1.467 9.767 2.4 13.2 2.8-2.2-0.6-4.383-1.3-6.55-2.1-4.333-1.6-6.383-2.883-6.15-3.85 0.233-1.066 0.85-1.566 1.85-1.5 0.667 0.067 2.017 0.517 4.05 1.35 13.8 5.7 25.167 6.717 34.1 3.05 6.133-2.5 7.333-5.15 3.6-7.95-3.5-2.633-8.417-3.783-14.75-3.45-5.633 0.267-8.567 1.5-8.8 3.7-0.267 2.2 2.233 3.6 7.5 4.2 4.3 0.467 7.767 0.483 10.4 0.05 1.3-0.233 2.167-0.517 2.6-0.85-1.533 0.233-3.183 0.35-4.95 0.35-3.567 0.033-5.95-0.517-7.15-1.65-1.433-1.367-1.066-2.383 1.1-3.05 2.167-0.667 4.95-0.617 8.35 0.15 3.667 0.8 5.417 1.967 5.25 3.5-0.133 1.6-2.583 2.8-7.35 3.6z" clip-rule="evenodd" fill="#64C671" fill-rule="evenodd"/>
</symbol>
<symbol id="cm" viewBox="0 -3.172 13.4 3.172">
		<path d="m0 0c0.933-0.433 2.183-0.85 3.75-1.25 3.133-0.733 6.35-0.933 9.65-0.6-1.867-0.667-3.817-1.083-5.85-1.25-4.1-0.367-6.617 0.667-7.55 3.1z" clip-rule="evenodd" fill="#64C671" fill-rule="evenodd"/>
</symbol>
<symbol id="dc" viewBox="0 -11.932 55 11.942">
		<path d="m42.8-8.9c-6.233-1.8-11.833-2.8-16.8-3-3.367-0.167-6.367 0.316-9 1.45-3.167 1.333-3.983 3.1-2.45 5.3l-0.25-1.55c0.233-1.167 1.417-2.017 3.55-2.55s4.667-0.65 7.6-0.35c1.5 0.133 2.767 0.333 3.8 0.6-1.167 0.067-2.45 0.233-3.85 0.5-2.8 0.533-4.75 1.267-5.85 2.2-1.5 1.267-4.316 2.25-8.45 2.95-4.567 0.8-8.267 0.7-11.1-0.3 3.1 2.1 7.083 3.3 11.95 3.6 3.609 0.199 7.185-0.102 10.725-0.9-0.65 0.131-0.975-0.302-0.975-1.3-0.034-0.933 0.133-1.667 0.5-2.2 0.333-0.533 0.966-0.95 1.9-1.25 0.533-0.167 1.3-0.333 2.3-0.5 2.7-0.633 6.15-1.017 10.35-1.15 1.267-0.066 4.183 0.233 8.75 0.9 4.289 0.295 7.456-0.405 9.5-2.1-0.493 0.379-1.327 0.646-2.5 0.8-2.533 0.4-5.767 0.017-9.7-1.15z" clip-rule="evenodd" fill="#64C671" fill-rule="evenodd"/>
</symbol>
<symbol id="ed" viewBox="0.011 -1.959 9.239 2.018">
		<path d="m9.25-1c-2.633-0.7-5.083-1.017-7.35-0.95-1.533 0.067-2.133 0.35-1.8 0.85 0.3 0.5 0.983 0.85 2.05 1.05 1.667 0.3 4.033-0.017 7.1-0.95z" clip-rule="evenodd" fill="#64C671" fill-rule="evenodd"/>
</symbol>
	<g clip-rule="evenodd" fill-rule="evenodd">
			<linearGradient id="cq" x1="-93.388" x2="-67.088" y1="137.93" y2="137.93" gradientTransform="matrix(3.8023e-5 -1 1 -.001 4.0693e-5 -.00030507)" gradientUnits="userSpaceOnUse">
			<stop stop-color="#242224" offset="0"/>
			<stop stop-color="#323628" offset=".1529"/>
			<stop stop-color="#627D37" offset=".7255"/>
			<stop stop-color="#75993D" offset=".9922"/>
		</linearGradient>
		<path d="m131.7 89.05c0.6-7.666 2.85-13.816 6.75-18.45 1.967-2.333 3.866-3.899 5.7-4.699-3.967 3.133-6.4 7.916-7.301 14.35-0.433 3.233-0.483 6.134-0.149 8.7-0.9 0.467-2 0.633-3.3 0.5l-1.7-0.401z" fill="url(#cq)"/>
			<linearGradient id="cr" x1="-93.478" x2="-74.503" y1="140.38" y2="140.38" gradientTransform="matrix(5.2701e-5 -1 1 -.001 3.2597e-5 -.00030602)" gradientUnits="userSpaceOnUse">
			<stop stop-color="#242224" offset="0"/>
			<stop stop-color="#24373C" offset=".1804"/>
			<stop stop-color="#267483" offset=".7412"/>
			<stop stop-color="#268C9F" offset="1"/>
		</linearGradient>
		<path d="m134.6 89.85c0.601-7.666 2.7-12.666 6.301-15 1.8-1.166 3.55-1.566 5.25-1.199-4.101 0.433-6.884 3.316-8.351 8.649-0.733 2.667-1.066 5.283-1 7.851-0.866 0.466-1.5 0.566-1.899 0.3l-0.3-0.601z" fill="url(#cr)"/>
			<linearGradient id="cs" x1="-97.073" x2="-44.898" y1="135.9" y2="135.9" gradientTransform="matrix(1.9166e-5 -1 1 -.001 -.00018589 -.00030507)" gradientUnits="userSpaceOnUse">
			<stop stop-color="#242224" offset="0"/>
			<stop stop-color="#37323C" offset=".1804"/>
			<stop stop-color="#716283" offset=".7412"/>
			<stop stop-color="#87759F" offset="1"/>
		</linearGradient>
		<path d="m128.85 88.5c0.601-17.566 3.134-30.483 7.601-38.75 2.233-4.133 4.399-6.5 6.5-7.1-4.634 3.133-7.634 11.817-9 26.05-0.667 7.133-0.867 13.95-0.601 20.45-1.366 0.433-2.533 0.449-3.5 0.05l-1-0.7z" fill="url(#cs)"/>
	</g>
	<g clip-rule="evenodd" fill-rule="evenodd">
		<linearGradient id="ct" x1="13.35" x2="13.35" y1="62.213" y2="90.088" gradientUnits="userSpaceOnUse">
			<stop stop-color="#268C9F" offset="0"/>
			<stop stop-color="#267483" offset=".2588"/>
			<stop stop-color="#24373C" offset=".8196"/>
			<stop stop-color="#242224" offset="1"/>
		</linearGradient>
		<path d="m19.4 86.45c-0.167 0.166-0.45 0.3-0.85 0.399-0.8 0.233-1.8 0.233-3 0 0.233-3.8 0.05-7.767-0.55-11.899-1.167-8.334-3.733-13.4-7.7-15.2l1.7 0.7c1.4 0.8 2.7 1.95 3.9 3.45 3.833 4.8 6 12.317 6.5 22.55z" fill="url(#ct)"/>
		<linearGradient id="cu" x1="16.525" x2="16.525" y1="61.938" y2="91.162" gradientUnits="userSpaceOnUse">
			<stop stop-color="#454D9F" offset="0"/>
			<stop stop-color="#3E4383" offset=".2588"/>
			<stop stop-color="#2A2A3C" offset=".8196"/>
			<stop stop-color="#242224" offset="1"/>
		</linearGradient>
		<path d="m22.55 86.3c-0.167 0.2-0.45 0.367-0.85 0.5-0.8 0.3-1.8 0.3-3 0 0.233-4.8 0.066-9.833-0.5-15.1-1.167-10.533-3.733-16.95-7.7-19.25l1.7 0.9c1.4 1 2.7 2.45 3.9 4.35 3.833 6.1 5.983 15.633 6.45 28.6z" fill="url(#cu)"/>
	</g>
			<use transform="matrix(1 0 0 -1 0 74.8)" x="0.014" y="-31.878" width="151.387" height="31.862" enable-background="new" opacity=".4688" xlink:href="#ci"/>
			<use transform="matrix(1 0 0 -1 4.25 73.1)" x="-0.001" y="-31.633" width="144.819" height="31.617" enable-background="new" opacity=".2695" xlink:href="#ch"/>
		<linearGradient id="cv" x1="19.538" x2="139.26" y1="62.969" y2="62.969" gradientUnits="userSpaceOnUse">
			<stop stop-color="#3A3866" offset="0"/>
			<stop stop-color="#373557" offset=".0745"/>
			<stop stop-color="#2F2D36" offset=".2745"/>
			<stop stop-color="#2C2A29" offset=".3804"/>
			<stop stop-color="#2E2C33" offset=".4627"/>
			<stop stop-color="#34324E" offset=".5961"/>
			<stop stop-color="#3A3866" offset=".698"/>
			<stop stop-color="#44828C" offset="1"/>
		</linearGradient>
		<path d="m122.1 33.9c-0.233 3.434-0.35 5.2-0.35 5.3 0 2.966 0.25 6.066 0.75 9.3 0.434 2.933 0.967 5.367 1.6 7.3 0.5 1.5 1.134 4.017 1.9 7.55 0.467 2.167 1.3 6.15 2.5 11.95 0.9 4.3 2.833 7.667 5.8 10.101 2.233 1.899 5.351 3.416 9.351 4.55 3.233 0.934 4.5 1.633 3.8 2.1-0.667 0.434-2.601 0.483-5.8 0.15-1.733-0.2-4.034-0.167-6.9 0.1-2.4 0.2-4.616 0.066-6.65-0.399-2.733-0.634-3.899-0.634-3.5 0 0.4 0.633 1.834 1.283 4.301 1.949 2.267 0.601 2.6 1.034 1 1.301-1.334 0.199-4.384 0.3-9.15 0.3-1.833 0-5.767-0.517-11.8-1.55-4.667-0.834-7.7-0.9-9.101-0.2-1.433 1-0.199 2.233 3.7 3.7 2.167 0.8 5.384 1.833 9.65 3.1-0.9 0.4-2.483 0.517-4.75 0.35-2.467-0.233-4.15-0.35-5.05-0.35-7.301 0-15.217 0.483-23.75 1.45-1.667 0.2-4.25 0.149-7.75-0.15-3.667-0.333-6.25-0.45-7.75-0.35-2.7 0.3-4.85 0.5-6.45 0.6-3 0.167-4.1-0.083-3.3-0.75 0.4-0.434 2.033-1.1 4.9-2 2.867-0.899 4.55-1.583 5.05-2.05-0.233-0.6-1.55-0.75-3.95-0.45-3.7 0.4-5.833 0.6-6.4 0.6-7.933-0.067-14.233-0.034-18.9 0.1-5.567 0.2-11.283 0.6-17.15 1.2-1.034-0.4-0.9-0.867 0.4-1.4 0.7-0.3 1.883-0.7 3.55-1.2 1.934-0.699 3.15-1.166 3.65-1.399 0.9-0.467 1.684-1.084 2.35-1.851 0.167-1.166-1.617-1.85-5.35-2.05-2.933-0.133-6.333 0-10.2 0.4-2.867 0.3-4.65 0.217-5.35-0.25-0.7-0.5 0.283-1.167 2.95-2 2.1-0.634 3.483-1.117 4.15-1.45 1.333-0.667 2.75-1.7 4.25-3.1 1.2-1.167 2.433-3.117 3.7-5.851 1.3-2.767 2.45-5.916 3.45-9.45 0.867-3.133 1.7-7.566 2.5-13.3 0.4-2.867 1.033-8.183 1.9-15.95 0.533-4.767 0.883-7.917 1.05-9.45-0.067 0.4-0.083 0.1-0.05-0.9 0.167-3.367 15.05-5.233 44.65-5.6 14.8-0.167 29.584 0 44.351 0.5l0.1-0.2c0.167 0.367 0.583 1.833 1.25 4.4 0.63 2.468 0.92 4.234 0.85 5.301z" clip-rule="evenodd" fill="url(#cv)" fill-rule="evenodd"/>
			<use transform="matrix(1 0 0 -1 19.7 22.5)" y="-68.9" width="29.276" height="69.004" enable-background="new" opacity=".2109" xlink:href="#cg"/>
			<use transform="matrix(1 0 0 -1 41.5 8.2002)" y="-89.2" width="35.7" height="89.2" enable-background="new" opacity=".2109" xlink:href="#cf"/>
			<use transform="matrix(1 0 0 -1 73.3 8.2002)" y="-93.858" width="20.95" height="93.858" enable-background="new" opacity=".2109" xlink:href="#ce"/>
			<use transform="matrix(1 0 0 -1 98.55 16)" x="-0.088" y="-78.756" width="22.688" height="78.756" enable-background="new" opacity=".2109" xlink:href="#cd"/>
			<use transform="matrix(1 0 0 -1 121.7 57.95)" x="0.022" y="-34.2" width="8.178" height="34.2" enable-background="new" opacity=".2109" xlink:href="#cc"/>
			<linearGradient id="cw" x1="68.201" x2="89.005" y1="103.46" y2="103.46" gradientTransform="matrix(.9639 -.2664 .2664 .9639 .00037438 1.1295e-5)" gradientUnits="userSpaceOnUse">
			<stop stop-color="#3A3866" offset="0"/>
			<stop stop-color="#44828C" offset="1"/>
		</linearGradient>
		<path d="m95.7 73.55c1.533-1.333 2.467-0.816 2.8 1.55 0.366 2.233 0.1 4.884-0.8 7.95-0.867 3.101-1.767 4.983-2.7 5.65-1.033 0.733-1.717-0.45-2.05-3.55-0.334-3-0.167-5.567 0.5-7.7 0.5-1.667 1.25-2.967 2.25-3.9z" clip-rule="evenodd" fill="url(#cw)" fill-rule="evenodd"/>
			<linearGradient id="cy" x1="89.307" x2="118.54" y1="56.59" y2="56.59" gradientTransform="matrix(.9842 -.177 .177 .9842 .0004175 .00013037)" gradientUnits="userSpaceOnUse">
			<stop stop-color="#3A3866" offset="0"/>
			<stop stop-color="#44828C" offset="1"/>
		</linearGradient>
		<path d="m106.9 29.45c2.033-1.167 3.633-0.75 4.8 1.25 1.2 2.066 1.166 4.733-0.101 8-1.466 3.767-2.966 6.417-4.5 7.95-1.733 1.733-2.866 1.283-3.399-1.35-0.601-2.867-0.584-6 0.05-9.4 0.67-3.5 1.72-5.65 3.15-6.45z" clip-rule="evenodd" fill="url(#cy)" fill-rule="evenodd"/>
			<linearGradient id="cz" x1="89.263" x2="101.2" y1="71.98" y2="71.98" gradientTransform="matrix(.9844 -.1759 .1759 .9844 .00040317 -.00011766)" gradientUnits="userSpaceOnUse">
			<stop stop-color="#3A3866" offset="0"/>
			<stop stop-color="#44828C" offset="1"/>
		</linearGradient>
		<path d="m105.65 50.85c1.066-0.6 1.433 0.05 1.1 1.95s-1.1 3.45-2.3 4.65c-1.267 1.3-1.733 0.733-1.4-1.7 0.33-2.433 1.2-4.067 2.6-4.9z" clip-rule="evenodd" fill="url(#cz)" fill-rule="evenodd"/>
			<linearGradient id="da" x1="93.527" x2="118.18" y1="57.338" y2="57.338" gradientTransform="matrix(.999 .0443 -.0443 .999 .00018246 .00032249)" gradientUnits="userSpaceOnUse">
			<stop stop-color="#3A3866" offset="0"/>
			<stop stop-color="#44828C" offset="1"/>
		</linearGradient>
		<path d="m95.4 52.35c2.433-0.934 3.666 0.267 3.699 3.6 0.067 3.2-0.916 6.85-2.949 10.95-1.466 2.9-3.05 4.3-4.75 4.2-1.667-0.133-2.45-1.533-2.351-4.199 0.134-3 0.7-5.867 1.7-8.601 1.201-3.234 2.751-5.217 4.651-5.95z" clip-rule="evenodd" fill="url(#da)" fill-rule="evenodd"/>
			<linearGradient id="db" x1="68.822" x2="79.768" y1="101.85" y2="101.85" gradientTransform="matrix(.9844 -.1759 .1759 .9844 -8.6665e-5 .00016218)" gradientUnits="userSpaceOnUse">
			<stop stop-color="#3A3866" offset="0"/>
			<stop stop-color="#44828C" offset="1"/>
		</linearGradient>
		<path d="m86.75 84.65c1.1-1.134 1.8-0.834 2.1 0.899 0.267 1.733-0.233 3.467-1.5 5.2-1.3 1.767-1.983 1.483-2.05-0.85-0.1-2.399 0.384-4.149 1.45-5.249z" clip-rule="evenodd" fill="url(#db)" fill-rule="evenodd"/>
			<use transform="matrix(1 0 0 -1 72.4 57.95)" x="0.011" y="-17.163" width="7.692" height="17.145" enable-background="new" opacity=".2813" xlink:href="#ca"/>
			<use transform="matrix(1 0 0 -1 72.65 42.4)" x="-0.136" y="-13.603" width="6.601" height="13.609" enable-background="new" opacity=".2813" xlink:href="#bz"/>
			<use transform="matrix(1 0 0 -1 65.7 75.55)" x="-0.091" y="-14.519" width="5.065" height="14.551" enable-background="new" opacity=".2813" xlink:href="#by"/>
			<use transform="matrix(1 0 0 -1 43 48.95)" x="-0.019" y="-26.908" width="13.838" height="26.899" enable-background="new" opacity=".2813" xlink:href="#bx"/>
			<use transform="matrix(1 0 0 -1 62 27.65)" x="-0.027" y="-5.901" width="3.074" height="5.99" enable-background="new" opacity=".2813" xlink:href="#bw"/>
			<use transform="matrix(1 0 0 -1 43.7 75.4)" x="-0.082" y="-14.368" width="9.012" height="14.448" enable-background="new" opacity=".2813" xlink:href="#bu"/>
			<linearGradient id="dd" x1="84.88" x2="111.63" y1="95.062" y2="95.062" gradientTransform="matrix(.9843 -.1767 .1767 .9843 2.9236e-5 .00016083)" gradientUnits="userSpaceOnUse">
			<stop stop-color="#3A3866" offset="0"/>
			<stop stop-color="#44828C" offset="1"/>
		</linearGradient>
		<path d="m117.2 68.45c1.733-0.767 2.983-0.584 3.75 0.55 0.7 1 0.934 2.55 0.7 4.65-0.2 1.966-0.75 3.833-1.65 5.6-0.967 1.9-2.083 3.1-3.35 3.6-1.233 0.5-2.184 0.15-2.851-1.05-0.6-1.066-0.866-2.566-0.8-4.5 0.2-4.734 1.6-7.684 4.2-8.85z" clip-rule="evenodd" fill="url(#dd)" fill-rule="evenodd"/>
			<linearGradient id="de" x1="93.33" x2="114.16" y1="75.279" y2="75.279" gradientTransform="matrix(.9843 -.1765 .1765 .9843 .00019726 -5.5254e-5)" gradientUnits="userSpaceOnUse">
			<stop stop-color="#3A3866" offset="0"/>
			<stop stop-color="#44828C" offset="1"/>
		</linearGradient>
		<path d="m118.9 60.6c-0.967 1.567-1.784 2.2-2.45 1.9-0.566-0.233-0.9-1.1-1-2.6-0.3-3.7 0.467-7 2.3-9.9 1-1.533 1.85-2.217 2.55-2.05 0.634 0.2 1.033 1.017 1.2 2.45 0.37 3.533-0.5 6.933-2.6 10.2z" clip-rule="evenodd" fill="url(#de)" fill-rule="evenodd"/>
			<linearGradient id="df" x1="-49.403" x2="-32.855" y1="-32.219" y2="-32.219" gradientTransform="matrix(-.9684 -.2493 .2493 -.9684 -6.9588e-5 .00081664)" gradientUnits="userSpaceOnUse">
			<stop stop-color="#3A3866" offset="0"/>
			<stop stop-color="#44828C" offset="1"/>
		</linearGradient>
		<path d="m35.8 33.6c1.333-1.6 1.75 0.617 1.25 6.65s-1.417 9.667-2.75 10.9c-1.333 1.267-1.8-0.9-1.4-6.5 0.433-5.6 1.4-9.283 2.9-11.05z" clip-rule="evenodd" fill="url(#df)" fill-rule="evenodd"/>
			<linearGradient id="dg" x1="-45.431" x2="-30.177" y1="-52.676" y2="-52.676" gradientTransform="matrix(-.9784 -.2065 .2065 -.9784 -.00022849 2.1189e-5)" gradientUnits="userSpaceOnUse">
			<stop stop-color="#3A3866" offset="0"/>
			<stop stop-color="#44828C" offset="1"/>
		</linearGradient>
		<path d="m31.05 54.95c1.167-1.3 1.617-0.617 1.35 2.05-0.233 2.6-0.917 5.25-2.05 7.95-0.533 1.267-0.95 1.65-1.25 1.15-0.3-0.399-0.434-1.35-0.4-2.85 0.067-3.866 0.85-6.634 2.35-8.3z" clip-rule="evenodd" fill="url(#dg)" fill-rule="evenodd"/>
			<linearGradient id="dh" x1="-42.772" x2="-25.845" y1="-73.576" y2="-73.576" gradientTransform="matrix(-.9836 -.1802 .1802 -.9836 .00047123 .00064564)" gradientUnits="userSpaceOnUse">
			<stop stop-color="#3A3866" offset="0"/>
			<stop stop-color="#44828C" offset="1"/>
		</linearGradient>
		<path d="m26.05 76.4c1.067-0.934 1.483-0.617 1.25 0.949-0.267 1.567-1.066 3.101-2.4 4.601-1.4 1.6-1.9 1.35-1.5-0.75 0.433-2.066 1.317-3.667 2.65-4.8z" clip-rule="evenodd" fill="url(#dh)" fill-rule="evenodd"/>
			<use transform="matrix(1 0 0 -1 28.05 8.1499)" y="-50.152" width="94.8" height="50.159" enable-background="new" opacity=".25" xlink:href="#bt"/>
			<linearGradient id="di" x1="-51.246" x2="-14.585" y1="75.141" y2="75.141" gradientTransform="matrix(.0239 -.9997 .9997 .0239 -7.6024e-5 3.3382e-5)" gradientUnits="userSpaceOnUse">
			<stop stop-color="#00263D" offset="0"/>
			<stop stop-color="#00562E" offset=".5451"/>
			<stop stop-color="#599D4A" offset="1"/>
		</linearGradient>
		<path d="m123.8 45.75c-0.733-1.033-1.75-1.133-3.05-0.3-0.533 0.333-1.434 1.133-2.7 2.4 0.233-0.333 0.617-0.9 1.15-1.7 0.467-0.733 0.733-1.367 0.8-1.9-0.833 1.167-2.017 1.917-3.55 2.25-1.7 0.4-2.834-0.15-3.4-1.65-0.166 0.367-0.25 0.783-0.25 1.25 0 0.482 0.075 0.849 0.226 1.1-0.257-0.37-0.599-1.054-1.025-2.05-0.434-1-0.934-1.65-1.5-1.95-0.833-0.434-2-0.217-3.5 0.65-1.566 1.133-2.6 1.85-3.1 2.15-2.067 1.333-3.75 2.033-5.051 2.1 0.467-0.033 0.983-0.267 1.551-0.7 0.5-0.4 0.85-0.8 1.05-1.2-0.533 0-1.417 0.066-2.65 0.2-1.1 0.133-1.967 0.167-2.6 0.1-0.7-0.133-1.2-0.2-1.5-0.2-0.467 0-0.95 0.15-1.45 0.45-0.8 0.467-1.517 1.217-2.15 2.25-0.646 1.065-0.929 1.991-0.85 2.775-0.159-1.271-0.06-2.429 0.3-3.475 0.3-0.633 0.5-1.133 0.601-1.5 0.233-0.733 0.149-1.2-0.25-1.4-0.4-0.2-0.851-0.033-1.351 0.5-0.333 0.367-0.583 0.767-0.75 1.2-0.366 1-0.55 2.083-0.55 3.25 0.033 1.233 0.267 2.3 0.7 3.2-0.5-0.767-0.834-1.716-1-2.85-0.134-1.867-0.283-3.284-0.45-4.25-0.233-1.733-0.833-3.017-1.8-3.85-1.267-1.133-3.017-1.783-5.25-1.95-1.99-0.146-3.673 0.104-5.05 0.75 1.359-0.687 2.859-1.104 4.5-1.25-1.167 0-2.551 0.15-4.15 0.45-2.2 0.4-3.55 0.633-4.05 0.7-1.467-0.2-2.684-0.367-3.65-0.5-1.833-0.2-2.883 0.133-3.15 1-0.1 0.367 0.033 0.65 0.4 0.85 0.333 0.167 0.733 0.217 1.2 0.15-0.967 0.4-2.383 0.317-4.25-0.25-1.867-0.533-3.25-0.617-4.15-0.25-0.934 0.367-1.75 0.95-2.45 1.75-0.733 1-1.35 1.733-1.85 2.2-1.566 1.567-3.35 1.95-5.35 1.15-1.133-0.633-2.05-1.033-2.75-1.2-0.233-0.034-0.684-0.083-1.35-0.15-0.6-0.033-1.067-0.117-1.4-0.25 0.267 0.967 1.033 1.45 2.3 1.45-0.967 0.033-1.917-0.017-2.85-0.15-2.867-0.6-5.25-0.8-7.15-0.6-2.733 0.3-4.7 1.367-5.9 3.2 0.733-1.267 1.167-2.233 1.3-2.9-3.168 2.619-4.735 3.344-4.7 2.175-0.058 0.92 0.217 1.712 0.825 2.375-0.719-0.745-1.177-1.611-1.375-2.6-0.167-1.4-0.417-2.533-0.75-3.4-0.467 0.433-0.75 1.033-0.85 1.8-0.066 0.7 0.017 1.367 0.25 2-0.367-0.7-0.55-1.45-0.55-2.25 0.1-0.867 0.167-1.533 0.2-2 0.1-0.9 0.033-1.55-0.2-1.95-0.533-0.867-1-0.95-1.4-0.25-0.427 0.689-0.318 1.331 0.325 1.925-1.521-1.326-2.579-2.685-3.175-4.075-1.767-4.3-0.483-8.716 3.85-13.25 3.3-3.466 7.816-6.55 13.55-9.25 1.4-0.7 3.033-1.383 4.9-2.05 10.467-3.667 22.733-4.667 36.8-3 9 1.067 14.634 1.817 16.9 2.25 6.667 1.233 12.017 2.967 16.05 5.2 2.566 1.433 5.167 3.966 7.8 7.6 3.301 4.5 5.617 7.367 6.95 8.6 1.733 1.567 2.9 3.5 3.5 5.8 0.733 2.6 0.3 4.583-1.3 5.95-0.967 0.867-1.616 2.283-1.95 4.25-0.065 0.692-0.099 1.725-0.1 3.1-9e-3 -0.279-0.075-1.013-0.2-2.2-0.066-0.9-0.05-1.65 0.05-2.25 0.167-0.833 0.217-1.617 0.15-2.35-0.101-1.2-0.517-1.617-1.25-1.25-0.267 0.133-0.483 0.733-0.65 1.8-0.128 0.929-0.145 1.554-0.05 1.875-0.163-0.517-0.163-1.458 0-2.825 0.13-1.267-0.02-2.2-0.45-2.8z" clip-rule="evenodd" fill="url(#di)" fill-rule="evenodd"/>
			<linearGradient id="dk" x1="-44.39" x2="-2.1528" y1="77.48" y2="77.48" gradientTransform="matrix(.0237 -.9997 .9997 .0237 .00041436 0)" gradientUnits="userSpaceOnUse">
			<stop stop-color="#043842" offset="0"/>
			<stop stop-color="#167040" offset=".3686"/>
			<stop stop-color="#82D671" offset="1"/>
		</linearGradient>
		<path d="m135.95 35.15c-2.066 3.333-3.351 5.567-3.851 6.7-0.3 0.7-0.767 2-1.399 3.9-0.733 1.533-1.767 2.317-3.101 2.35-1.399 0.033-2.083-1.15-2.05-3.55 0.033-0.933-0.149-1.466-0.55-1.6-0.527-0.198-1.577 0.177-3.15 1.125 0.571-0.365 0.921-0.773 1.051-1.225 0.166-0.533-0.15-0.867-0.95-1-0.634-0.1-1.3 0.2-2 0.9-0.967 0.9-1.55 1.4-1.75 1.5-0.967 0.467-1.934 0.367-2.9-0.3-0.833-0.6-1.434-1.417-1.8-2.45-0.167 0.333-0.25 0.75-0.25 1.25-0.024 0.423 0.033 0.765 0.175 1.025-0.25-0.383-0.574-1.041-0.975-1.975-0.434-1-0.934-1.65-1.5-1.95-0.834-0.434-2-0.217-3.5 0.65-1.566 1.133-2.601 1.85-3.101 2.15-2.066 1.333-3.767 2.033-5.1 2.1 0.467-0.033 0.983-0.267 1.55-0.7 0.533-0.4 0.884-0.8 1.05-1.2-0.066 0.167-0.883 0.267-2.449 0.3-1.267 0-2.233-0.017-2.9-0.05-1.533-0.067-2.483-0.1-2.85-0.1-1.067 0.033-1.967 0.233-2.7 0.6 0.366-0.467 0.816-0.883 1.35-1.25-0.5-0.233-1.017-0.333-1.55-0.3-0.6 0.067-0.983 0.333-1.15 0.8 0.233-1.133 0.101-1.517-0.399-1.15-0.5 0.333-0.733 0.933-0.7 1.8-0.066-0.167-0.184-0.8-0.35-1.9-0.134-0.8-0.367-1.4-0.7-1.8-0.334-0.4-0.867-0.75-1.601-1.05-0.866-0.267-1.5-0.467-1.899-0.6-3.078-1.045-5.678-1.12-7.8-0.225 1.231-0.564 2.632-0.939 4.199-1.125-3.066 0-5.149 0.184-6.25 0.55-0.434 0.167-1.3 0.6-2.6 1.3-1.033 0.567-1.933 0.9-2.7 1-0.833 0.167-1.7 0.117-2.6-0.15-0.167-0.033-1-0.333-2.5-0.9-1.633-0.567-3.483-0.333-5.55 0.7-0.8 0.367-1.517 0.917-2.15 1.65-0.7 0.9-1.283 1.566-1.75 2-1.567 1.5-3.367 1.867-5.4 1.1-1.1-0.633-2-1.017-2.7-1.15-0.267-0.066-0.733-0.133-1.4-0.2-0.6-0.034-1.05-0.117-1.35-0.25 0.133 0.466 0.417 0.833 0.85 1.1 0.406 0.25 0.856 0.367 1.35 0.35-1.121 0.062-2.038 0.012-2.75-0.15-2.967-0.6-4.934-0.917-5.9-0.95-2.267-0.066-4.083 0.5-5.45 1.7 0.533-1.033 1.3-1.683 2.3-1.95-0.767-0.033-1.5 0.083-2.2 0.35-0.733 0.3-1.317 0.717-1.75 1.25-0.267 0.367-0.6 0.95-1 1.75-0.434 0.633-1.017 0.917-1.75 0.85-0.733-0.033-1.35-0.6-1.85-1.7-0.567-1.3-1.033-2.066-1.4-2.3-0.333-0.233-0.767-0.367-1.3-0.4-0.767-0.067-1.233-0.117-1.4-0.15-0.833-0.2-1.6-0.784-2.3-1.75-4.458-6.867-5.841-13.583-4.141-20.15 1.767-6.933 6.466-11.216 14.1-12.85l2.05-0.35c4.9-0.633 9.4-0.684 13.5-0.15 4.267 0.6 7 0.933 8.2 1 3.067 0.233 5.8 0.083 8.2-0.45 0.967-0.2 3.417-0.883 7.35-2.05 3-0.9 5.5-1.45 7.5-1.65 2.067-0.2 5.784-0.917 11.15-2.15 4.7-1.066 8.434-1.617 11.2-1.65 10.166-0.2 19.583 1.8 28.25 6 11.066 5.367 15.399 12.8 13 22.3-0.47 1.833-1.55 4.117-3.25 6.85z" clip-rule="evenodd" fill="url(#dk)" fill-rule="evenodd"/>
			<use transform="matrix(1 0 0 -1 55.5 2.8999)" x="0.015" y="-15.659" width="71.385" height="15.659" enable-background="new" opacity=".0781" xlink:href="#bs"/>
			<use transform="matrix(1 0 0 -1 109.45 11.25)" x="0.011" y="-1.959" width="9.239" height="2.018" enable-background="new" opacity=".0781" xlink:href="#ed"/>
			<use transform="matrix(1 0 0 -1 22.25 6.75)" y="-11.932" width="55" height="11.942" enable-background="new" opacity=".0781" xlink:href="#dc"/>
			<use transform="matrix(1 0 0 -1 50.45 9.6001)" y="-3.172" width="13.4" height="3.172" enable-background="new" opacity=".0781" xlink:href="#cm"/>
			<use transform="matrix(1 0 0 -1 14.45 12.5)" x="0.002" y="-24.022" width="78.067" height="24.084" enable-background="new" opacity=".0781" xlink:href="#cl"/>
			<use transform="matrix(1 0 0 -1 18.7 31.2)" y="-6.403" width="37.15" height="6.383" enable-background="new" opacity=".0781" xlink:href="#ck"/>
			<use transform="matrix(1 0 0 -1 92.85 24.85)" y="-5.8" width="4.612" height="5.8" enable-background="new" opacity=".0781" xlink:href="#cj"/>
			<use transform="matrix(1 0 0 -1 94.4 23.45)" y="-11.546" width="11.851" height="11.546" enable-background="new" opacity=".0781" xlink:href="#cb"/>
			<use transform="matrix(1 0 0 -1 108.5 17.9)" x="-0.013" y="-12.65" width="31.341" height="12.675" enable-background="new" opacity=".0781" xlink:href="#bv"/>
			<use transform="matrix(1 0 0 -1 128.65 29.1)" x="-0.093" y="-2.439" width="6.735" height="2.477" enable-background="new" opacity=".0781" xlink:href="#br"/>
			<use transform="matrix(1 0 0 -1 106.9 29.4)" x="-0.035" y="-10.7" width="30.452" height="10.7" enable-background="new" opacity=".0781" xlink:href="#bq"/>
		<linearGradient id="dl" x1="-98.407" x2="-22.234" y1="40.044" y2="40.044" gradientTransform="matrix(.0624 -.9981 .9981 .0624 -.00042675 .00041733)" gradientUnits="userSpaceOnUse">
		<stop stop-color="#20141B" offset="0"/>
		<stop stop-color="#303B3B" offset="1"/>
	</linearGradient>
	<path d="m30.2 97.7c1.733-2.634 3.3-5.8 4.7-9.5 2.767-7.434 3.3-13.816 1.6-19.15l0.85 1.851c0.6 1.666 1.017 3.5 1.25 5.5 0.8 6.433-0.35 13.466-3.45 21.1l-4.95 0.199z" clip-rule="evenodd" fill="url(#dl)" fill-rule="evenodd"/>
		<linearGradient id="dm" x1="-88.522" x2="-37.397" y1="111.28" y2="111.28" gradientTransform="matrix(.0626 -.998 .998 .0626 2.7552e-5 -1.4037e-5)" gradientUnits="userSpaceOnUse">
		<stop stop-color="#20141B" offset="0"/>
		<stop stop-color="#303B3B" offset="1"/>
	</linearGradient>
	<path d="m102.65 93.3c1.566-1.833 2.916-4.017 4.05-6.55 2.3-5.033 2.45-9.267 0.45-12.7l0.75 1.101c0.533 1 0.916 2.166 1.149 3.5 0.767 4.166-0.066 9.1-2.5 14.8l-3.9-0.151z" clip-rule="evenodd" fill="url(#dm)" fill-rule="evenodd"/>
		<linearGradient id="dn" x1="-98.874" x2="12.394" y1="47.138" y2="47.138" gradientTransform="matrix(.0625 -.998 .998 .0625 -.00048535 .00015358)" gradientUnits="userSpaceOnUse">
		<stop stop-color="#20141B" offset="0"/>
		<stop stop-color="#303B3B" offset="1"/>
	</linearGradient>
	<path d="m43.75 97.25l-5.6 0.15c0.9-3.267 1.717-7.467 2.45-12.601 1.433-10.3 1.7-20.184 0.8-29.649l2.4 13.6c1.333 10.733 1.317 20.233-0.05 28.5z" clip-rule="evenodd" fill="url(#dn)" fill-rule="evenodd"/>
	<linearGradient id="do" x1="106.62" x2="101.88" y1="4.7598" y2="80.509" gradientUnits="userSpaceOnUse">
		<stop stop-color="#303B3B" offset="0"/>
		<stop stop-color="#20141B" offset="1"/>
	</linearGradient>
	<path d="m103.9 93.3l-3.75 0.15c-0.967-8.267-0.983-17.767-0.051-28.5l1.65-13.6c-0.6 9.466-0.417 19.3 0.55 29.5 0.47 5.1 1 9.25 1.6 12.45z" clip-rule="evenodd" fill="url(#do)" fill-rule="evenodd"/>
	<linearGradient id="dp" x1="109.55" x2="105.63" y1="19.484" y2="82.259" gradientUnits="userSpaceOnUse">
		<stop stop-color="#303B3B" offset="0"/>
		<stop stop-color="#20141B" offset="1"/>
	</linearGradient>
	<path d="m110.12 61.45c-2.767 7.17-4.491 14.386-5.175 21.649-0.4 4.267-0.434 7.684-0.101 10.25h-3.1c0.4-7.6 2.167-15.8 5.3-24.6l3.08-7.299z" clip-rule="evenodd" fill="url(#dp)" fill-rule="evenodd"/>
		<linearGradient id="dq" x1="-99.958" x2="51.462" y1="53.671" y2="53.671" gradientTransform="matrix(.0624 -.9981 .9981 .0624 -.00049483 3.5666e-5)" gradientUnits="userSpaceOnUse">
		<stop stop-color="#20141B" offset="0"/>
		<stop stop-color="#303B3B" offset="1"/>
	</linearGradient>
	<path d="m43.35 97.3c-0.333-5.9-0.05-12.7 0.85-20.4 1.833-15.367 5.85-27.534 12.05-36.5-2.367 3.833-4.433 9.083-6.2 15.75-3.533 13.333-3.767 27.033-0.7 41.1l-6 0.05z" clip-rule="evenodd" fill="url(#dq)" fill-rule="evenodd"/>
		<linearGradient id="dr" x1="-94.394" x2="-62.965" y1="99.896" y2="99.896" gradientTransform="matrix(.1068 -.9943 .9943 .1068 -.00035899 -.00048129)" gradientUnits="userSpaceOnUse">
		<stop stop-color="#242224" offset="0"/>
		<stop stop-color="#2A2A3C" offset=".1804"/>
		<stop stop-color="#3E4383" offset=".7412"/>
		<stop stop-color="#454D9F" offset="1"/>
	</linearGradient>
	<path d="m92.35 80.1c1.801-2.767 3.434-4.566 4.9-5.399-4 3.533-6.533 9.283-7.6 17.25-0.567 4-0.717 7.649-0.45 10.95-1.367 0.233-2.533 0.316-3.5 0.25l-1.1-0.15c1.6-9.7 4.183-17.333 7.75-22.9z" clip-rule="evenodd" fill="url(#dr)" fill-rule="evenodd"/>
		<linearGradient id="ds" x1="97.509" x2="121.42" y1="-32.986" y2="-32.986" gradientTransform="matrix(.366 .9306 -.9306 .366 -.00038591 5.43e-5)" gradientUnits="userSpaceOnUse">
		<stop stop-color="#6EB361" offset="0"/>
		<stop stop-color="#00697D" offset=".6745"/>
		<stop stop-color="#001726" offset="1"/>
	</linearGradient>
	<path d="m69.85 84.45c3.267 4.066 5.8 10.166 7.6 18.3-1.667 0.434-3.083 0.35-4.25-0.25 0.066-2.733-0.2-5.7-0.8-8.9-1.2-6.366-3.483-10.633-6.85-12.8l1.25 0.7c1.033 0.7 2.05 1.684 3.05 2.95z" clip-rule="evenodd" fill="url(#ds)" fill-rule="evenodd"/>
	<g clip-rule="evenodd" fill-rule="evenodd">
			<linearGradient id="dt" x1="-88.867" x2="-51.56" y1="96.736" y2="96.736" gradientTransform="matrix(.1052 -.9945 .9945 .1052 -.00032952 -.0001758)" gradientUnits="userSpaceOnUse">
			<stop stop-color="#043840" offset="0"/>
			<stop stop-color="#00562E" offset=".3255"/>
			<stop stop-color="#6EB360" offset="1"/>
		</linearGradient>
		<path d="m86.5 83.65c0.3-0.634 0.733-1.233 1.3-1.801 1.066-1.133 2.2-1.517 3.4-1.149-0.5-0.134-1.117 0.066-1.851 0.6-1.466 1.101-2.75 3.351-3.85 6.75l1.001-4.4z" fill="url(#dt)"/>
		<linearGradient id="dv" x1="90.714" x2="69.714" y1="52.789" y2="100.01" gradientUnits="userSpaceOnUse">
			<stop stop-color="#6EB360" offset="0"/>
			<stop stop-color="#00562E" offset=".6745"/>
			<stop stop-color="#043840" offset="1"/>
		</linearGradient>
		<path d="m76.4 89.45l-1 8.8c-0.134-1.033-0.134-2.316 0-3.85 0.066-1.4 0.05-2.434-0.051-3.101-0.366-2.333-1.167-3.967-2.399-4.899l-1.75-0.75c1.733-0.034 3.117 0.6 4.149 1.899 0.535 0.635 0.884 1.267 1.051 1.901z" fill="url(#dv)"/>
			<linearGradient id="dw" x1="-81.339" x2="-36.727" y1="90.004" y2="90.004" gradientTransform="matrix(.1031 -.9947 .9947 .1031 -.00026166 -6.7815e-5)" gradientUnits="userSpaceOnUse">
			<stop stop-color="#043840" offset="0"/>
			<stop stop-color="#00562E" offset=".3255"/>
			<stop stop-color="#6EB360" offset="1"/>
		</linearGradient>
		<path d="m83.95 74l-2.35 4.45c0.134-0.533 0.4-1.217 0.801-2.05 0.333-0.7 0.533-1.25 0.6-1.65 0.3-1.3 0.217-2.333-0.25-3.1l-0.751-0.75c0.934 0.366 1.533 0.983 1.8 1.85 0.134 0.467 0.183 0.884 0.15 1.25z" fill="url(#dw)"/>
			<linearGradient id="dx" x1="-88.924" x2="-33.669" y1="88.48" y2="88.48" gradientTransform="matrix(.105 -.9945 .9945 .105 .00041427 -.00023256)" gradientUnits="userSpaceOnUse">
			<stop stop-color="#043840" offset="0"/>
			<stop stop-color="#00562E" offset=".3255"/>
			<stop stop-color="#6EB360" offset="1"/>
		</linearGradient>
		<path d="m86.1 87.05c-1.4 5.533-1.433 10.95-0.1 16.25-0.733 0.3-2.517 0.45-5.35 0.45-1.4 0-2.667-0.066-3.801-0.2l-1.25-0.25c-0.5-2.733-0.533-5.899-0.1-9.5 0.733-6.1 2.75-11.483 6.05-16.149 5.334-7.534 7-13.467 5-17.801l0.4 2.2c-0.101 1.8-0.967 3.467-2.601 5-1.866 1.767-4.116 2.134-6.75 1.101-2.933-1.134-4.683-3.767-5.25-7.9-0.633-4.767 0.95-8.283 4.75-10.55 3.733-2.233 7.351-2.05 10.851 0.55 2.967 2.2 4.6 5.717 4.899 10.55 0.267 4.4-0.566 9.217-2.5 14.45-2.698 7.332-4.115 11.266-4.248 11.799z" fill="url(#dx)"/>
		<path d="m90.75 56.75c-0.8-2.5-2.15-4.217-4.05-5.15-1.367-0.7-2.983-0.95-4.851-0.75-1.767 0.167-3.366 1.133-4.8 2.9-1.467 1.733-2.233 3.634-2.3 5.7-0.067 1.267 0.133 2.467 0.6 3.6 0.534 1.334 1.334 2.334 2.4 3 1.366 0.867 2.684 1.184 3.95 0.95 1.267-0.267 2.333-1.033 3.2-2.3 0.767-1.134 1.116-2.584 1.05-4.351-0.066-1.633-0.434-2.916-1.101-3.85-0.566-0.833-1.35-1.25-2.35-1.25-0.934-0.033-1.684 0.316-2.25 1.05-0.6 0.733-0.866 1.767-0.8 3.101 0.066 1.333 0.483 2.199 1.25 2.6 0.767 0.366 1.35 0.25 1.75-0.35 0.366-0.567 0.399-1.184 0.1-1.851l0.452 0.801c0.233 0.667 0.15 1.233-0.25 1.7-0.667 0.867-1.55 1.033-2.65 0.5-1.199-0.533-1.85-1.666-1.949-3.399-0.101-1.801 0.383-3.217 1.449-4.25 0.967-0.967 2.084-1.351 3.351-1.15s2.3 0.983 3.1 2.35c0.867 1.467 1.217 3.167 1.05 5.101-0.166 1.934-0.767 3.533-1.8 4.8-0.967 1.134-2.116 1.866-3.45 2.2-0.866 0.2-1.783 0.233-2.75 0.1-1.233-0.166-2.316-0.583-3.25-1.25l-0.201-0.152c-0.7-0.5-1.317-1.167-1.851-2-1.2-1.834-1.733-4.034-1.6-6.601 0.1-2.434 0.75-4.517 1.95-6.25 1.367-2 3.25-3.283 5.65-3.85 2.3-0.534 4.55-0.284 6.75 0.75 2.066 0.933 3.65 2.533 4.75 4.8 1.3 2.767 1.783 6.333 1.45 10.7-0.3 3.967-1.167 7.816-2.6 11.55-0.7 1.866-1.384 3.333-2.051 4.4 1.434-3.834 2.45-6.9 3.051-9.2 0.533-2 0.816-4.184 0.85-6.55 1e-3 -2.866-0.416-5.583-1.249-8.149z" fill="#6EB360"/>
		<path d="m81.65 58.9c0.533 0.866 0.616 1.616 0.25 2.25-0.334 0.6-0.75 0.55-1.25-0.15-0.467-0.733-0.567-1.434-0.301-2.1 0.368-0.9 0.801-0.9 1.301 0z" fill="#93C688"/>
		<path d="m84.2 57.35c0.067 0.433-0.2 0.65-0.8 0.65-0.601 0-1.067-0.25-1.4-0.75-0.267-0.366-0.283-0.65-0.05-0.85 0.2-0.167 0.5-0.25 0.899-0.25 0.767 0.034 1.217 0.433 1.351 1.2z" fill="#93C688"/>
		<path d="m85.1 59.7c0.467 0.233 0.634 0.7 0.5 1.399-0.133 0.7-0.383 0.967-0.75 0.801-0.3-0.134-0.399-0.567-0.3-1.301 0.134-0.699 0.316-0.999 0.55-0.899z" fill="#93C688"/>
		<path d="m83.9 64c0.8 0.233 0.733 0.733-0.2 1.5-0.9 0.767-1.667 1-2.3 0.7-0.534-0.267-0.351-0.733 0.55-1.4 0.9-0.633 1.55-0.9 1.95-0.8z" fill="#93C688"/>
		<path d="m75.7 61.75c0.133-0.733 0.566-0.85 1.3-0.35 0.7 0.5 1.283 1.233 1.75 2.199 0.833 1.801 0.45 2.334-1.15 1.601-0.699-0.3-1.233-0.884-1.6-1.75-0.3-0.733-0.4-1.3-0.3-1.7z" fill="#93C688"/>
		<path d="m77.5 54.15c0.533-0.267 0.866-0.284 1-0.051 0.167 0.233 0.15 0.634-0.05 1.2-0.8 2.434-1.434 3.217-1.9 2.351-0.3-0.601-0.333-1.284-0.1-2.051 0.234-0.699 0.583-1.182 1.05-1.449z" fill="#93C688"/>
		<path d="m85.9 52.05c0.767 0.2 1.383 0.633 1.85 1.3 0.5 0.633 0.667 1.216 0.5 1.75-0.167 0.567-0.7 0.617-1.6 0.15-0.467-0.267-1.334-0.884-2.601-1.85-0.533-0.433-0.6-0.816-0.2-1.15 0.434-0.367 1.118-0.433 2.051-0.2z" fill="#93C688"/>
		<path d="m89.3 60.25c0.634-0.7 1.15-0.483 1.55 0.65 0.367 1.066 0.467 2.1 0.301 3.1-0.167 0.9-0.483 1.533-0.95 1.9-0.501 0.4-0.868 0.2-1.101-0.6-0.233-0.767-0.3-1.767-0.199-3 0.066-1.133 0.199-1.817 0.399-2.05z" fill="#93C688"/>
		<path d="m88.45 70.6c1.566-0.433 1.866 0.867 0.899 3.9-1 3.033-2.017 4.167-3.05 3.4-0.899-0.667-0.95-2.034-0.149-4.101 0.767-1.933 1.534-2.999 2.3-3.199z" fill="#93C688"/>
		<path d="m84.55 82.35c0.7-0.399 0.917 0.217 0.65 1.851-0.267 1.6-0.667 2.35-1.2 2.25-0.5-0.101-0.65-0.75-0.45-1.95 0.167-1.168 0.5-1.885 1-2.151z" fill="#93C688"/>
		<path d="m83.75 91.6c0.4-0.199 0.6 0.134 0.6 1 0 0.867-0.166 1.45-0.5 1.75-0.3 0.301-0.466-0.033-0.5-1-0.034-1 0.1-1.583 0.4-1.75z" fill="#93C688"/>
	</g>
</svg>
