<?xml version="1.0" encoding="UTF-8"?>
<!DOCTYPE svg  PUBLIC '-//W3C//DTD SVG 1.1//EN'  'http://www.w3.org/Graphics/SVG/1.1/DTD/svg11.dtd'>
<svg enable-background="new 0 0 63.85 25.25" version="1.1" viewBox="0 0 63.85 25.25" xml:space="preserve" xmlns="http://www.w3.org/2000/svg">
<radialGradient id="f" cx="31.925" cy="19.45" r="31.599" gradientTransform="matrix(1 0 0 -.2949 0 25.187)" gradientUnits="userSpaceOnUse">
	<stop stop-opacity=".1686" offset="0"/>
	<stop stop-opacity="0" offset=".902"/>
</radialGradient>
<path d="m23.35 14.15l-1.05-0.45c0.267-0.066 1.067-0.101 2.4-0.101l7.149 0.351c2.601 0 5.917 0.149 9.95 0.45-0.033 0.466-0.083 0.767-0.149 0.899 0.899 0.033 2.066 0.184 3.5 0.45 1.733 0.3 2.899 0.483 3.5 0.55 0 0.434-0.034 0.733-0.101 0.9 1.767 0.033 3.917 0.2 6.45 0.5v0.55c0.767 0.066 1.884 0.15 3.35 0.25 0.5 0.066 1.467 0.15 2.9 0.25 1.267 0.167 2.134 0.517 2.6 1.05-0.267 0.167-0.649 0.25-1.149 0.25h-1.2c0.167 0.066 0.45 0.101 0.85 0.101 0.367 0 0.634 0.05 0.801 0.149-0.367 0.134-0.9 0.25-1.601 0.351-0.8 0.133-1.35 0.233-1.649 0.3-0.034 0.1-0.017 0.184 0.05 0.25 0.2 0.033 0.467 0.149 0.8 0.35-0.2 0.134-0.517 0.2-0.95 0.2h-1.1c0.033 0.434-0.184 0.667-0.65 0.7-0.435 0.067-0.651 0.283-0.651 0.65-0.233 0.034-0.95 0-2.15-0.1-0.934-0.033-1.65 0.033-2.15 0.2-0.6 0.399-1.083 0.633-1.449 0.7-0.301 0.066-0.7 0.083-1.2 0.05-0.601-0.066-1.017-0.084-1.25-0.05-0.334 0.033-0.717 0.133-1.15 0.3-0.467 0.166-0.816 0.267-1.05 0.3-0.4 0.066-0.8 0.033-1.2-0.1-0.7-0.233-1.066-0.351-1.1-0.351-0.733-0.133-1.684-0.184-2.851-0.149-1.166 0.066-2.133 0.216-2.899 0.449-0.967 0.467-1.767 0.733-2.4 0.801-2.201 0.2-3.584 0.15-4.151-0.15 0.166-0.267 0.55-0.467 1.149-0.6-0.467-0.101-1.149-0.084-2.05 0.05-1.066 0.133-1.767 0.2-2.1 0.2-2.1 0-3.417-0.017-3.95-0.051-1.934-0.1-2.95-0.333-3.05-0.699-0.933 0.066-1.683 0.116-2.25 0.149-1.133 0-1.733-0.2-1.8-0.6-0.434-0.033-1.967-0.05-4.6-0.05-1.867-0.034-3.4-0.2-4.6-0.5l0.7-0.101h-2.55c-1.167 0-1.883-0.217-2.15-0.649 0.2-0.267 0.6-0.417 1.2-0.45 0.633-0.066 1.033-0.233 1.2-0.5-0.166-0.166-0.349-0.449-0.549-0.849-0.133-0.267-0.4-0.517-0.8-0.75l0.45-0.2c-0.7-0.067-1.8-0.067-3.3 0-1.467 0.067-2.583 0.05-3.35-0.05l2.4-0.65c0.1 0 0.6-0.033 1.5-0.101 0.633-0.033 1.1-0.133 1.4-0.3l-0.3-0.449c0.167-0.033 0.65-0.066 1.45-0.1 0.6 0 1.017-0.083 1.25-0.25l-0.5-0.3c0.366-0.167 0.95-0.233 1.75-0.2l-0.15-0.25c0.3-0.167 0.717-0.267 1.25-0.3 0.333-0.033 0.784-0.05 1.35-0.05-0.333-0.334-0.533-0.517-0.6-0.551 0.333-0.1 1.05-0.133 2.15-0.1 0.9 0 1.55-0.134 1.95-0.4l-0.45-0.199c0.333-0.4 1.05-0.601 2.15-0.601 0.6 0.033 1.417 0.084 2.45 0.15 0.434-0.033 1.167-0.05 2.2-0.05 0.934-0.066 1.633-0.232 2.1-0.499z" clip-rule="evenodd" fill="url(#f)" fill-rule="evenodd"/>
<g clip-rule="evenodd" fill-rule="evenodd">
	<path d="m45.5 9.65h0.85l-0.2 0.25 0.1 0.05c-0.2 0.2-0.35 0.433-0.45 0.7l0.8-0.25-0.05 0.35 0.3-0.15c0.067 0.333 0.134 0.533 0.2 0.6 0.134 0.133 0.334 0.1 0.601-0.1 0.133 0.367 0.3 0.5 0.5 0.4 0.1-0.067 0.283-0.2 0.55-0.4l0.1 0.15c0.101 0 0.167-0.067 0.2-0.2 0.1 0.034 0.267 0.083 0.5 0.15l0.05-1 0.351 0.1v-0.55c0.399 0.067 0.566-0.117 0.5-0.55l0.198-0.05c0.1-0.3-0.1-0.417-0.6-0.35 0.333-0.333 0.217-0.6-0.35-0.8l-0.9 0.1c1.533-0.367 3.134 0.017 4.8 1.15 0.5 0.367 1.267 0.767 2.3 1.2 0.067 0.066 0.067 0.133 0 0.2-0.833-0.233-1.466-0.316-1.899-0.25 0.1 0.1 0.233 0.217 0.399 0.35 0.134 0.133 0.2 0.283 0.2 0.45-0.467-0.067-0.767-0.083-0.899-0.05 0.433 0.434 0.666 0.684 0.699 0.75-0.166 0.067-0.4 0.1-0.7 0.1h-0.7l-0.05 0.2h-0.95l0.05 0.7h-1.15c0.034 0.1 0.034 0.25 0 0.45l-0.699-0.1v0.35c-0.867-0.366-1.517-0.6-1.95-0.7v0.25c-0.334-0.134-0.584-0.184-0.75-0.15-0.101 0-0.2 0.05-0.3 0.15-0.134 0.1-0.217 0.149-0.25 0.149-0.534-0.166-0.95-0.25-1.25-0.25 0.1-0.5-0.134-0.7-0.7-0.6 0.033-0.333-0.15-0.467-0.55-0.4l0.199-0.549-0.4-0.1c0.033-0.066 0.066-0.217 0.1-0.45l-0.25-0.05c0.334-0.2 0.55-0.35 0.65-0.45l-0.25-0.05c0.233-0.066 0.399-0.217 0.5-0.45h-0.2l0.75-0.3zm-6.175-2.55c0.323-0.133 0.515-0.2 0.575-0.2 0.132-0.026 0.266-0.043 0.399-0.05-0.108 8e-3 -0.225 0.025-0.35 0.05 0.166 0.067 0.533 0.133 1.1 0.2 0.233 0.133 0.283 0.3 0.15 0.5 0.066 0.133 0.233 0.25 0.5 0.35 0.133 0.1 0.184 0.183 0.149 0.25 0 0.033-0.066 0.117-0.199 0.25-0.099-0.033-0.182 0.017-0.249 0.15 0.1 0.233 0.133 0.383 0.1 0.45-0.033 0.2-0.2 0.317-0.5 0.35-0.4 0-0.65 0.033-0.75 0.1-0.066 0.033-0.15 0.017-0.25-0.05-0.134-0.067-0.267-0.1-0.4-0.1-0.666 0.133-1.017 0.2-1.05 0.2-0.633 0.133-1.15 0.217-1.55 0.25-0.7 0.034-1.333 0.1-1.9 0.2-1 0.133-1.583 0.333-1.75 0.6-0.1-0.333 0.134-0.7 0.7-1.1l1.45-0.6c0.333-0.1 0.85-0.2 1.55-0.3-0.2 0.167-0.05 0.117 0.45-0.15l1.05-0.4v0.25c0.101 0 0.334 0.017 0.7 0.05 0.3 0 0.45-0.067 0.45-0.2l-0.2-0.05c0.033-0.1 0.167-0.2 0.4-0.3 0.199-0.066 0.316-0.167 0.35-0.3-0.134 0.033-0.283 0.017-0.45-0.05v-0.1h-0.4c0.267-0.1 0.416-0.233 0.449-0.4-0.086 0-0.261 0.05-0.524 0.15zm6.95 2.1c-0.241 0.118-0.5 0.251-0.775 0.4v-0.05c0.282-0.128 0.54-0.245 0.775-0.35zm-30.975-3.65c-0.267-0.333-0.183-0.75 0.25-1.25 0.048-0.047 0.098-0.098 0.15-0.15 0.466-0.267 1.15-0.667 2.05-1.2 0.133-0.067 0.85-0.284 2.15-0.65-0.1 0.1 0.1 0.017 0.6-0.25 0.933-0.333 1.45-0.533 1.55-0.6v0.35c0.167 0 0.5 0.017 1 0.05 0.434 0 0.667-0.1 0.7-0.3h-0.35c0.067-0.133 0.267-0.25 0.6-0.35 0.267-0.133 0.433-0.267 0.5-0.4-0.333 0-0.567-0.033-0.7-0.1l0.05-0.1h-0.6c0.367-0.1 0.583-0.283 0.65-0.55h0.05c0.158-0.026 0.316-0.043 0.475-0.05-0.125 8e-3 -0.25 0.025-0.375 0.05 0.233 0.067 0.8 0.15 1.7 0.25 0.2 0.1 0.283 0.2 0.25 0.3-0.067 0.133-0.083 0.25-0.05 0.35 0.066 0.167 0.3 0.333 0.7 0.5 0.167 0.167 0.233 0.3 0.2 0.4l-0.3 0.25c-0.167-0.067-0.3-0.033-0.4 0.1-0.033 0.066-0.017 0.167 0.05 0.3 0.033 0.167 0.05 0.267 0.05 0.3-0.067 0.233-0.3 0.35-0.7 0.35-0.566 0-0.917 0.033-1.05 0.1-0.1 0.067-0.217 0.05-0.35-0.05-0.167-0.067-0.35-0.1-0.55-0.1-0.733 0.133-1.217 0.217-1.45 0.25-0.333 0-0.7 0.05-1.1 0.15-0.533 0.167-0.883 0.267-1.05 0.3-0.6 0.034-1.433 0.217-2.5 0.55-1.367 0.4-2.1 0.8-2.2 1.2zm-4.5 4.05l0.7-0.2h0.95l-0.25 0.2 0.15 0.05c-0.233 0.167-0.4 0.367-0.5 0.6 0.2 0 0.483-0.067 0.85-0.2l-0.05 0.35 0.4-0.2c0.067 0.3 0.133 0.483 0.2 0.55 0.133 0.1 0.35 0.083 0.65-0.05 0.133 0.3 0.3 0.4 0.5 0.3 0.133-0.067 0.35-0.167 0.65-0.3l0.1 0.15 0.25-0.25c0.1 0.033 0.283 0.083 0.55 0.15v-0.9l0.4 0.1c0.066-0.233 0.083-0.4 0.05-0.5 0.467 0.066 0.633-0.083 0.5-0.45l0.25-0.05c0.1-0.3-0.117-0.417-0.65-0.35 0.3-0.267 0.167-0.5-0.4-0.7 1.4-0.033 2.833 0.35 4.3 1.15 0.267 0.167 0.817 0.4 1.65 0.7l0.1 0.05 0.3 0.1c0.179 0.05 0.362 0.117 0.55 0.2l-0.05 0.15c-0.934-0.167-1.633-0.233-2.1-0.2 0.1 0.1 0.25 0.2 0.45 0.3 0.133 0.133 0.2 0.267 0.2 0.4h-1c0.433 0.3 0.7 0.517 0.8 0.65-0.1 0.033-0.617 0.05-1.55 0.05l-0.05 0.2h-1.05l0.05 0.65h-1.25l-0.05 0.4-0.75-0.1v0.3c-0.933-0.3-1.65-0.5-2.15-0.6v0.2c-0.333-0.133-0.617-0.183-0.85-0.15-0.267 0.167-0.467 0.25-0.6 0.25-0.167 0.033-0.383 0-0.65-0.1-0.3-0.067-0.533-0.1-0.7-0.1 0.1-0.433-0.167-0.617-0.8-0.55 0.067-0.3-0.133-0.417-0.6-0.35l0.25-0.45-0.5-0.1c0.034-0.067 0.083-0.2 0.15-0.4l-0.3-0.05 0.7-0.4-0.25-0.05c0.2-0.066 0.383-0.2 0.55-0.4h-0.25c0.036-1e-3 0.085-0.018 0.15-0.05zm0.75-0.3c0.325-0.125 0.633-0.242 0.925-0.35-0.292 0.116-0.6 0.25-0.925 0.4v-0.05z" fill="#5B6E78"/>
	<path d="m43.05 10.7c0.467-0.233 1.066-0.5 1.8-0.8 0.167-0.067 0.35-0.15 0.55-0.25h0.1l-0.75 0.3h0.2c-0.101 0.233-0.267 0.383-0.5 0.45l0.25 0.05c-0.101 0.1-0.316 0.25-0.65 0.45l0.25 0.05c-0.033 0.233-0.066 0.383-0.1 0.45l0.399 0.1-0.199 0.55c0.399-0.066 0.583 0.067 0.55 0.4 0.566-0.1 0.8 0.1 0.7 0.6 0.3 0 0.716 0.084 1.25 0.25 0.033 0 0.116-0.05 0.25-0.149 0.1-0.101 0.199-0.15 0.3-0.15 0.166-0.033 0.416 0.017 0.75 0.15v-0.251c0.434 0.1 1.083 0.333 1.95 0.7v-0.35l0.699 0.1c0.034-0.199 0.034-0.35 0-0.45h1.151l-0.05-0.7h0.95l0.05-0.2h0.7c0.3 0 0.533-0.033 0.699-0.1-0.033-0.066-0.267-0.316-0.699-0.75 0.133-0.033 0.433-0.017 0.899 0.05 0-0.167-0.066-0.317-0.2-0.45-0.166-0.133-0.3-0.25-0.399-0.35 0.434-0.066 1.066 0.017 1.899 0.25 0.067-0.066 0.067-0.133 0-0.2-1.033-0.434-1.8-0.833-2.3-1.2 0.434 0.3 1.367 0.767 2.8 1.4 0.467 0.2 0.851 0.383 1.15 0.55-0.333 0.1-0.634 0.133-0.9 0.1l0.051 0.2h-0.8c-0.166 0.067-0.25 0.133-0.25 0.2 0 0.033-0.017 0.15-0.05 0.35l-0.1 0.6c-0.167 0.033-0.283 0.117-0.351 0.25h-0.199c0.033 0.367-0.134 0.6-0.5 0.7-0.301-0.066-0.5-0.066-0.601 0-0.1 0.034-0.166 0.084-0.2 0.15 0 0.1-0.017 0.15-0.05 0.15-0.233 0.2-0.549 0.3-0.949 0.3h-0.55c-0.2 0-0.316 0.1-0.35 0.3-1.066-0.233-1.667-0.184-1.8 0.15-2.067 0.133-3.584 0.066-4.551-0.2-0.966-0.233-1.716-0.517-2.25-0.851-0.399-0.233-0.632-0.399-0.699-0.499-0.101-0.433-0.284-0.683-0.551-0.75-0.033-0.2-0.033-0.35 0-0.45h-0.149v-0.4c0.033-0.067 0.066-0.1 0.1-0.1 0.032-0.064 0.082-0.098 0.15-0.1v-0.05c0.2-0.133 0.567-0.317 1.1-0.55zm-9.55 0.15c-0.066-0.067-0.116-0.15-0.15-0.25 0.167-0.267 0.75-0.467 1.75-0.6 0.567-0.1 1.2-0.167 1.9-0.2 0.4-0.033 0.917-0.117 1.55-0.25 0.033 0 0.384-0.066 1.05-0.2 0.134 0 0.267 0.033 0.4 0.1 0.1 0.066 0.184 0.083 0.25 0.05 0.1-0.067 0.35-0.1 0.75-0.1 0.3-0.033 0.467-0.15 0.5-0.35 0.033-0.066 0-0.216-0.1-0.45 0.066-0.133 0.149-0.184 0.25-0.15 0.133-0.133 0.199-0.217 0.199-0.25 0.034-0.067-0.017-0.15-0.149-0.25-0.267-0.1-0.434-0.217-0.5-0.35 0.133-0.2 0.083-0.367-0.15-0.5-0.566-0.067-0.934-0.133-1.1-0.2 0.125-0.025 0.241-0.042 0.35-0.05h0.6c1.049 0 2.099 0.292 3.149 0.875-0.25-0.134-0.5-0.242-0.749-0.325l0.2 0.15 0.55 0.6c0.1 0.067 0.25 0.117 0.45 0.15 0.134 0.067 0.217 0.167 0.25 0.3 0.033 0.167-0.017 0.267-0.15 0.3-0.166 0.033-0.316 0.05-0.449 0.05v0.5c-0.534 0-0.851 0.017-0.95 0.05l-0.15 0.1h-0.5c-0.166 0.033-0.333 0.117-0.5 0.25-0.166 0.133-0.3 0.2-0.399 0.2-0.267 0.067-0.917 0.1-1.95 0.1h-2c-0.3 0-1.117 0.117-2.45 0.35-0.6 0-1.05 0.033-1.35 0.1l-0.402 0.25zm-17.9-5.05c-0.133-0.066-0.233-0.15-0.3-0.25 0.1-0.4 0.833-0.8 2.2-1.2 1.067-0.333 1.9-0.517 2.5-0.55 0.167-0.033 0.517-0.133 1.05-0.3 0.4-0.1 0.767-0.15 1.1-0.15 0.233-0.033 0.717-0.117 1.45-0.25 0.2 0 0.383 0.033 0.55 0.1 0.133 0.1 0.25 0.117 0.35 0.05 0.133-0.067 0.483-0.1 1.05-0.1 0.4 0 0.633-0.117 0.7-0.35 0-0.033-0.017-0.133-0.05-0.3-0.067-0.133-0.083-0.233-0.05-0.3 0.1-0.133 0.233-0.167 0.4-0.1l0.3-0.25c0.033-0.1-0.033-0.233-0.2-0.4-0.4-0.167-0.633-0.333-0.7-0.5-0.033-0.1-0.017-0.217 0.05-0.35 0.033-0.1-0.05-0.2-0.25-0.3-0.9-0.1-1.467-0.183-1.7-0.25 0.125-0.025 0.25-0.042 0.375-0.05l1.875 0.1c0.4 0.033 0.817 0.117 1.25 0.25 0.267 0.1 0.534 0.2 0.8 0.3l0.9 0.5 0.1 0.1 0.65 0.85c0.133 0.1 0.333 0.2 0.6 0.3 0.233 0.133 0.35 0.283 0.35 0.45 0 0.2-0.1 0.316-0.3 0.35-0.267-0.033-0.483-0.067-0.65-0.1l-0.15 0.6c-0.8-0.1-1.233-0.15-1.3-0.15-0.1 0.1-0.167 0.15-0.2 0.15-0.333-0.034-0.567-0.05-0.7-0.05-0.233-0.033-0.467 0-0.7 0.1-0.267 0.133-0.467 0.2-0.6 0.2-0.3 0.033-0.733 0.017-1.3-0.05-0.7-0.066-1.15-0.1-1.35-0.1l-2.7 0.05c-0.5 0.033-1.05 0.167-1.65 0.4-0.7 0.267-1.233 0.45-1.6 0.55-0.8 0.2-1.367 0.383-1.7 0.55-0.167 0.067-0.317 0.217-0.45 0.45zm-8.3 5.2c0.067-0.067 0.167-0.133 0.3-0.2 0.433-0.233 1.45-0.617 3.05-1.15h0.25c-0.167 0.2-0.35 0.333-0.55 0.4l0.25 0.05-0.7 0.4 0.3 0.05c-0.067 0.2-0.117 0.333-0.15 0.4l0.5 0.1-0.25 0.45c0.467-0.067 0.667 0.05 0.6 0.35 0.633-0.067 0.9 0.117 0.8 0.55 0.167 0 0.4 0.033 0.7 0.1 0.267 0.1 0.483 0.133 0.65 0.1 0.133 0 0.333-0.083 0.6-0.25 0.233-0.033 0.517 0.017 0.85 0.15v-0.2c0.5 0.1 1.217 0.3 2.15 0.6v-0.3l0.75 0.1 0.05-0.4h1.25l-0.05-0.65h1.05l0.05-0.2c0.933 0 1.45-0.017 1.55-0.05-0.1-0.133-0.367-0.35-0.8-0.65h1c0-0.133-0.067-0.267-0.2-0.4-0.2-0.1-0.35-0.2-0.45-0.3 0.467-0.033 1.167 0.034 2.1 0.2l0.05-0.15c-0.188-0.083-0.371-0.15-0.55-0.2 0.189 0.049 0.389 0.116 0.6 0.2 0.133 0.033 0.284 0.083 0.45 0.15 0.5 0.167 0.933 0.333 1.3 0.5-0.4 0.1-0.733 0.133-1 0.1l0.05 0.2h-0.9c-0.167 0.067-0.25 0.117-0.25 0.15s-0.017 0.15-0.05 0.35c0.033 0.2-0.017 0.367-0.15 0.5-0.1 0.034-0.183 0.067-0.25 0.1s-0.117 0.067-0.15 0.1l-0.2 0.05c0.033 0.2 0.017 0.35-0.05 0.45-0.067 0.033-0.233 0.083-0.5 0.15-0.333-0.033-0.567-0.033-0.7 0-0.1 0.033-0.15 0.083-0.15 0.15s-0.017 0.117-0.05 0.15c-0.333 0.166-0.7 0.25-1.1 0.25-0.3-0.033-0.517-0.033-0.65 0-0.2 0-0.317 0.083-0.35 0.25-1.2-0.134-1.85-0.084-1.95 0.149-2.3 0.134-3.983 0.067-5.05-0.199-1.267-0.301-2.1-0.551-2.5-0.75-0.467-0.233-0.717-0.367-0.75-0.4-0.1-0.433-0.3-0.667-0.6-0.7-0.067-0.2-0.083-0.333-0.05-0.4l-0.15-0.05v-0.35zm4.2-1.6l-0.7 0.2c0.267-0.1 0.517-0.2 0.75-0.3v0.05c-0.066 0-0.133 0.017-0.2 0.05h0.15z" fill="#516366"/>
	<path d="m57.5 11.2c0.233 0.133 0.417 0.25 0.55 0.35 0.2 0.133 0.334 0.267 0.4 0.4 0.333 0.6-0.3 1.333-1.9 2.2-1.366 0.733-2.866 1.216-4.5 1.449-0.533 0.068-1.083 0.101-1.65 0.101-0.767 0.033-1.5 0.017-2.2-0.05h-0.101c-1.5-0.134-2.8-0.434-3.899-0.9-0.8-0.366-1.434-0.783-1.9-1.25-0.2-0.2-0.383-0.4-0.55-0.6-0.033-0.066-0.066-0.117-0.1-0.15-0.067-0.133-0.117-0.25-0.15-0.35-0.033-0.066-0.05-0.133-0.05-0.2-0.033-0.3 0.05-0.55 0.25-0.75v0.45h0.149c-0.033 0.1-0.033 0.25 0 0.45 0.267 0.066 0.45 0.316 0.551 0.75 0.066 0.101 0.3 0.267 0.699 0.5 0.534 0.334 1.284 0.617 2.25 0.851 0.967 0.267 2.483 0.333 4.551 0.2 0.133-0.334 0.733-0.384 1.8-0.15 0.033-0.2 0.149-0.3 0.35-0.3h0.55c0.4 0 0.717-0.101 0.95-0.3 0.033 0 0.05-0.051 0.05-0.15 0.034-0.066 0.101-0.116 0.2-0.15 0.101-0.066 0.3-0.066 0.601 0 0.366-0.1 0.533-0.333 0.5-0.7h0.199c0.067-0.133 0.184-0.217 0.351-0.25l0.1-0.6c0.033-0.2 0.05-0.316 0.05-0.35 0-0.067 0.084-0.133 0.25-0.2h0.801l-0.052-0.201c0.266 0.033 0.567 0 0.9-0.1zm-18.25 1.25v0.3c-1.533-0.1-2.833-0.367-3.9-0.8l-0.449-0.2c-0.467-0.233-0.884-0.483-1.25-0.75l-0.15-0.15 0.4-0.25c0.3-0.067 0.75-0.1 1.35-0.1 1.333-0.233 2.15-0.35 2.45-0.35h2c1.033 0 1.684-0.033 1.95-0.1 0.1 0 0.233-0.066 0.399-0.2 0.167-0.133 0.334-0.217 0.5-0.25h0.5l0.15-0.1c0.1-0.033 0.416-0.05 0.95-0.05v-0.5c0.133 0 0.283-0.017 0.449-0.05 0.134-0.033 0.184-0.133 0.15-0.3-0.033-0.133-0.116-0.233-0.25-0.3-0.2-0.033-0.35-0.083-0.45-0.15l-0.55-0.6-0.199-0.15c0.249 0.083 0.499 0.191 0.75 0.325l0.15 0.075c0.434 0.267 1.2 0.7 2.3 1.3-0.069 0.031-0.145 0.064-0.225 0.1-0.235 0.105-0.493 0.222-0.775 0.35v0.05c-0.033 0-0.083 0.017-0.15 0.05h0.05c-0.2 0.1-0.384 0.184-0.551 0.25-0.733 0.3-1.333 0.567-1.8 0.8-0.8-0.1-1.25-0.15-1.35-0.15-2.5-0.066-4.134-0.066-4.9 0-1.833 0.2-2.684 0.35-2.55 0.45 0.2 0.2 0.733 0.45 1.6 0.75 1.067 0.367 2.2 0.583 3.4 0.65v0.05zm-10-11.3l-0.15-0.15c0.3 0.133 0.717 0.383 1.25 0.75 1.266 0.867 2.333 1.683 3.2 2.45 1.1 1.033 1.55 1.783 1.35 2.25-0.267 0.6-1.2 0.966-2.801 1.1-0.966 0.067-2.899 0.034-5.8-0.1v-0.25c-0.033-0.067-0.05-0.133-0.05-0.2 0.767 0.033 1.617 0.067 2.55 0.1 1.567 0.066 2.601 0.066 3.101 0 0.633-0.067 0.983-0.15 1.05-0.25 0.066-0.133-0.134-0.283-0.601-0.45-2.566-1.066-4.55-1.65-5.95-1.75-1.066-0.133-2.267-0.183-3.6-0.15-1.3 0.033-2.283 0.117-2.95 0.25-0.733 0.1-1.483 0.283-2.25 0.55-0.833 0.233-1.167 0.4-1 0.5 0.3 0.167 1.05 0.35 2.25 0.55 1.4 0.233 2.833 0.4 4.3 0.5v0.1l0.05 0.4c-3.367-0.2-5.833-0.684-7.4-1.45-0.066-0.033-0.133-0.066-0.2-0.1 0.133-0.233 0.283-0.383 0.45-0.45 0.333-0.167 0.9-0.35 1.7-0.55 0.367-0.1 0.9-0.283 1.6-0.55 0.6-0.233 1.15-0.367 1.65-0.4l2.7-0.05c0.2 0 0.65 0.034 1.35 0.1 0.567 0.067 1 0.083 1.3 0.05 0.133 0 0.333-0.067 0.6-0.2 0.233-0.1 0.466-0.133 0.7-0.1 0.133 0 0.367 0.017 0.7 0.05 0.033 0 0.1-0.05 0.2-0.15 0.067 0 0.5 0.05 1.3 0.15l0.151-0.6c0.167 0.033 0.383 0.066 0.65 0.1 0.2-0.034 0.3-0.15 0.3-0.35 0-0.167-0.117-0.317-0.35-0.45-0.267-0.1-0.467-0.2-0.6-0.3l-0.65-0.85-0.1-0.1zm-4.45 9.6c0.067 0.033 0.133 0.067 0.2 0.1 0.133 0.066 0.25 0.133 0.35 0.2 0.233 0.133 0.4 0.267 0.5 0.4 0.2 0.3 0.066 0.65-0.4 1.05-0.367 0.267-0.95 0.566-1.75 0.9-0.733 0.333-1.517 0.6-2.35 0.8-1.133 0.3-2.35 0.483-3.65 0.55h-0.8c-1 0.033-1.933 0.033-2.8 0h-0.1c-3.233-0.233-5.433-1.05-6.6-2.45-0.267-0.3-0.383-0.583-0.35-0.85 0.033-0.167 0.117-0.317 0.25-0.45v0.35l0.15 0.05c-0.034 0.067-0.017 0.2 0.05 0.4 0.3 0.034 0.5 0.267 0.6 0.7 0.033 0.033 0.283 0.167 0.75 0.4 0.4 0.2 1.233 0.45 2.5 0.75 1.066 0.267 2.75 0.333 5.05 0.199 0.1-0.233 0.75-0.283 1.95-0.149 0.033-0.167 0.15-0.25 0.35-0.25 0.133-0.033 0.35-0.033 0.65 0 0.4 0 0.767-0.084 1.1-0.25 0.033-0.033 0.05-0.084 0.05-0.15s0.05-0.117 0.15-0.15c0.133-0.033 0.367-0.033 0.7 0 0.267-0.066 0.433-0.117 0.5-0.15 0.066-0.1 0.083-0.25 0.05-0.45l0.2-0.05c0.033-0.033 0.083-0.067 0.15-0.1s0.15-0.066 0.25-0.1c0.133-0.133 0.183-0.3 0.15-0.5 0.033-0.2 0.05-0.316 0.05-0.35s0.083-0.083 0.25-0.15h0.9l-0.05-0.2c0.267 0.033 0.6 0 1-0.1z" fill="#424B51"/>
	<path d="m41.95 11.3c-0.068 2e-3 -0.118 0.036-0.15 0.1-0.033 0-0.066 0.033-0.1 0.1v-0.05c-0.2 0.2-0.283 0.45-0.25 0.75 0 0.066 0.017 0.133 0.05 0.2 0.033 0.1 0.083 0.217 0.15 0.35 0.033 0.033 0.066 0.083 0.1 0.15 0.167 0.2 0.35 0.4 0.55 0.6 0.033 0.6 0.066 1.1 0.101 1.5 0.1 0.634 0.166 1.45 0.199 2.45 0 0.566-0.017 1.017-0.05 1.35-0.033 0.3-0.066 0.517-0.1 0.65l-0.2 0.649v-0.05l-0.05-0.049c-0.101-0.1-0.184-0.184-0.25-0.25-0.101-0.033-0.217-0.017-0.351 0.05-0.033 0.167-0.116 0.267-0.25 0.3-0.1 0.034-0.166 0.017-0.199-0.05-0.067-0.1-0.117-0.15-0.15-0.15-0.1 0-0.25 0.066-0.45 0.199-0.166 0.134-0.316 0.2-0.45 0.2-0.399-0.066-0.616-0.1-0.649-0.1-0.2 0.033-0.384 0.05-0.55 0.05-0.101-0.033-0.184-0.05-0.25-0.05l-0.5-0.15-0.051-0.049-0.1-0.15v-0.05l1.1 0.3 1.1-0.15c0.2-0.066 0.533-0.167 1-0.3 0.166-0.101 0.333-0.384 0.5-0.851v-0.1l0.35-1.2c0.066-0.3-0.033-1.066-0.3-2.3-0.066-0.2-0.1-0.634-0.1-1.3-0.034-0.467-0.101-0.851-0.2-1.15-0.033-0.033-0.05-0.067-0.05-0.1-0.034-0.1-0.084-0.183-0.15-0.25-0.1-0.066-0.2-0.117-0.3-0.15h-0.05c-0.034-0.033-0.067-0.05-0.101-0.05-0.066-0.034-0.116-0.05-0.149-0.05-0.134-0.066-0.233-0.117-0.301-0.15l-0.399-0.2c-0.167 0.1-0.3 0.15-0.4 0.15h-0.1l-0.25-0.049v-0.1c-0.334 0-0.634-0.017-0.9-0.05-0.666-0.033-1.2-0.067-1.6-0.1-0.367-0.167-0.7-0.283-1-0.35l0.55 0.1c-0.4-0.133-0.717-0.3-0.95-0.5 0.3-0.033 0.816 0.1 1.55 0.4l1.45 0.25c-0.633-0.167-1.233-0.417-1.8-0.75 0.3 0.067 0.767 0.184 1.4 0.35 0.566 0.167 1.05 0.233 1.449 0.2-0.166-0.033-0.3-0.067-0.399-0.1 0.166 0.033 0.316 0.067 0.45 0.1l0.05-0.05c0.033-0.033 0.083-0.05 0.149-0.05-0.199-0.1-0.366-0.233-0.5-0.4 0.134 0.066 0.4 0.183 0.801 0.35 0.133-0.034 0.283-0.05 0.449-0.05v-0.05c0.034-0.267 0.051-0.417 0.051-0.45 0.066 0.167 0.116 0.333 0.149 0.5 0.2 0 0.417 0.017 0.65 0.05 0.1-0.067 0.2-0.167 0.3-0.3 0 0.033-0.083 0.15-0.25 0.35 0.1 0 0.217 0.017 0.35 0.05h0.351zm10.1 4.3c0.066 0.233 0.15 0.434 0.25 0.601 0.233 0.366 0.467 1.149 0.7 2.35 0.2 1.066 0.267 1.917 0.2 2.55v0.101l-0.15 1v-0.05l-0.15-0.052c-0.2-0.133-0.317-0.199-0.351-0.199-0.133-0.034-0.283 0.017-0.45 0.149-0.033 0.167-0.116 0.283-0.25 0.351-0.133 0.033-0.25 0.017-0.35-0.051-0.066-0.033-0.134-0.05-0.2-0.05-0.133 0-0.316 0.066-0.55 0.2s-0.434 0.184-0.6 0.15c-0.267-0.101-0.567-0.15-0.9-0.15s-0.616-0.017-0.85-0.05c-0.067-0.033-0.134-0.05-0.2-0.05l-0.5-0.2-0.099-0.05-0.25-0.25v-0.05l0.2 0.101c0.267 0.166 0.617 0.3 1.05 0.399 0.034 0.034 0.084 0.051 0.15 0.051 0.467 0.066 0.95 0.05 1.45-0.051 0.666-0.066 1.116-0.199 1.35-0.399 0.2-0.134 0.351-0.4 0.45-0.8 0.033-0.101 0.05-0.217 0.05-0.351 0.101-0.333 0.184-0.833 0.25-1.5 0.066-0.633-0.2-1.283-0.8-1.95-0.033-0.066-0.15-0.267-0.35-0.6-0.134-0.2-0.317-0.366-0.551-0.5-0.133-0.066-0.533-0.134-1.199-0.2l-1.15-0.05c-0.033-0.167-0.05-0.283-0.05-0.35 0.7 0.066 1.434 0.083 2.2 0.05 0.567 0 1.117-0.033 1.65-0.1zm-28.9-8.65v-0.1l-0.05-0.5 0.1-0.05c-0.833 0.1-1.434 0.1-1.8 0 0.233-0.066 0.65-0.1 1.25-0.1 0.267 0.033 0.5 0.033 0.7 0l-0.05 0.05 0.15-0.1c-1 0-1.8-0.017-2.4-0.05-0.733-0.033-1.367-0.117-1.9-0.25-0.467-0.1-0.867-0.25-1.2-0.45 0.167-0.033 0.867 0.05 2.1 0.25 0.034 0 0.567 0.05 1.6 0.15 0.733 0.1 1.184 0.133 1.35 0.1-1.067 0-2.233-0.267-3.5-0.8 0.4 0.066 1.017 0.167 1.85 0.3 0.767 0.133 1.4 0.184 1.9 0.15-0.4-0.066-0.683-0.117-0.85-0.15l-1.95-0.6c0.267 0.034 0.816 0.184 1.65 0.45 0.667 0.233 1.2 0.333 1.6 0.3-0.367-0.2-0.617-0.4-0.75-0.6 0.633 0.333 1.033 0.517 1.2 0.55 0.267 0.033 0.417-0.05 0.45-0.25-0.033-0.233-0.033-0.417 0-0.55 0.1 0.333 0.183 0.683 0.25 1.05 0.2-0.033 0.433-0.033 0.7 0-0.167-0.033-0.317-0.05-0.45-0.05 0.267-0.067 0.583-0.25 0.95-0.55 0 0.067-0.167 0.2-0.5 0.4 0.434 0.067 1.1 0.067 2 0h0.9c-0.133 0.2-0.45 0.333-0.95 0.4-0.533 0-0.9 0.017-1.1 0.05 0.633 0.1 1.6 0.183 2.9 0.25 0.034 0 0.317-0.033 0.85-0.1 0.367-0.033 0.65-0.017 0.85 0.05-0.167 0.233-0.617 0.35-1.35 0.35-0.8 0-1.316 0.017-1.55 0.05 0.767 0.133 1.917 0.25 3.45 0.35-0.667 0.133-1.833 0.117-3.5-0.05-0.4 0-0.8-0.05-1.2-0.15-0.233-0.1-0.434-0.167-0.6-0.2v0.15c0.067 0.033 0.15 0.1 0.25 0.2h-0.25v0.1c0 0.067 0.017 0.133 0.05 0.2v0.4c0.067 1.233 0.2 2.2 0.4 2.9 0.033 0.2 0.083 0.4 0.15 0.6 0.1 0.433 0.183 0.833 0.25 1.2 0 0.034 0.017 0.067 0.05 0.1v0.2l0.35 2c0.033 0.2 0.067 0.4 0.1 0.601v1.05c-0.033 0.066-0.05 0.116-0.05 0.15l-0.15 0.649-0.05 0.25v-0.1l-0.15-0.05c-0.233-0.2-0.367-0.301-0.4-0.301-0.133-0.1-0.3-0.1-0.5 0-0.033 0.2-0.15 0.317-0.35 0.351-0.167 0.033-0.284 0-0.35-0.101-0.1-0.1-0.167-0.149-0.2-0.149-0.167-0.033-0.383 0.017-0.65 0.149-0.267 0.167-0.5 0.217-0.7 0.15-0.3-0.167-0.633-0.25-1-0.25-0.533-0.033-0.95-0.116-1.25-0.25l-0.5-0.2-0.25-0.149-0.2-0.25 0.05-0.05 0.25 0.101c0.533 0.3 0.967 0.483 1.3 0.55 0.533 0.134 1.1 0.167 1.7 0.1 0.9-0.1 1.417-0.183 1.55-0.25 0.267-0.166 0.466-0.583 0.6-1.25l0.3-1.5c0.033-0.399-0.033-0.917-0.2-1.55-0.2-0.667-0.35-1.167-0.45-1.5-0.1-0.3-0.184-0.85-0.25-1.65-0.067-0.733-0.167-1.267-0.3-1.6-0.066-0.233-0.217-0.4-0.45-0.5-0.267-0.066-0.467-0.133-0.6-0.2-0.167-0.1-0.3-0.15-0.4-0.15-0.167 0.133-0.317 0.216-0.45 0.25h-0.35zm16.05 4.95v0.05h-0.5c-0.367 0-0.65-0.034-0.851-0.1 0.134-0.033 0.467-0.033 1 0 0.134 0 0.251 0.017 0.351 0.05zm0.05 0.25h-0.3l0.3-0.1v0.1zm-18.15 4.3c0.234 0.195 0.543 0.37 0.925 0.524-0.267-0.1-0.492-0.208-0.675-0.324-0.067-0.034-0.133-0.084-0.2-0.15l-0.05-0.05zm1.7-9.9l0.3-0.1v0.1h-0.3zm-4.05 11.9c0.033 0.366 0.033 0.684 0 0.95l-0.1 0.8v-0.05l-0.1-0.051c-0.167-0.066-0.283-0.116-0.35-0.149-0.1 0-0.233 0.05-0.4 0.149-0.033 0.134-0.117 0.217-0.25 0.25-0.133 0.034-0.233 0.034-0.3 0-0.1-0.066-0.167-0.1-0.2-0.1-0.133 0-0.3 0.066-0.5 0.2-0.2 0.1-0.383 0.133-0.55 0.1l-0.85-0.149c-0.4 0-0.733-0.034-1-0.101l-0.65-0.299c0.3 0.2 0.683 0.366 1.15 0.5-0.433-0.1-0.783-0.233-1.05-0.4l-0.1-0.1-0.15-0.15v-0.05l0.2 0.101c0.267 0.133 0.517 0.233 0.75 0.3 0.133 0.066 0.267 0.1 0.4 0.1 0.033 0 0.066 0.017 0.1 0.05 0.233 0 0.517 0.017 0.85 0.051 0.133-0.034 0.267-0.067 0.4-0.101 0.667-0.066 1.083-0.166 1.25-0.3 0.133-0.066 0.284-0.384 0.45-0.95l0.2-1.3c0.033-0.5-0.217-1.05-0.75-1.65-0.2-0.267-0.333-0.433-0.4-0.5-0.1-0.166-0.267-0.3-0.5-0.399-0.267-0.134-0.633-0.2-1.1-0.2l-0.6-0.1-0.45 0.05c-0.033-0.101-0.05-0.167-0.05-0.2 0.867 0.033 1.8 0.033 2.8 0h0.8c0.066 0.134 0.133 0.267 0.2 0.4 0.233 0.333 0.45 1 0.65 2 0.1 0.498 0.167 0.931 0.2 1.298zm19.4 1.6c0.066 0.033 0.149 0.084 0.25 0.15-0.067-0.033-0.134-0.066-0.2-0.101l-0.05-0.049z" fill="#907D50"/>
	<path d="m48.2 16.1c0-0.066-0.017-0.149-0.05-0.25l-0.05-0.2h0.101c0 0.066 0.017 0.183 0.05 0.35l1.15 0.05c0.666 0.066 1.066 0.134 1.199 0.2 0.233 0.134 0.417 0.3 0.551 0.5 0.199 0.333 0.316 0.533 0.35 0.6 0.6 0.667 0.866 1.317 0.8 1.95-0.066 0.667-0.149 1.167-0.25 1.5 0 0.134-0.017 0.25-0.05 0.351-0.1 0.399-0.25 0.666-0.45 0.8-0.233 0.2-0.684 0.333-1.35 0.399-0.5 0.101-0.983 0.117-1.45 0.051-0.066 0-0.116-0.017-0.15-0.051-0.433-0.1-0.783-0.233-1.05-0.399l-0.2-0.101 0.049-0.75c0.066 0.167 0.183 0.317 0.35 0.45 0.033-0.066 0.116-0.1 0.25-0.1 0 0.267 0.2 0.45 0.6 0.55 0.267 0.033 0.534 0.05 0.801 0.05 0.1-0.033 0.216-0.066 0.35-0.1l0.15 0.1c0.466-0.233 0.783-0.434 0.949-0.6 0-0.066 0.017-0.117 0.051-0.15-0.067-0.3-0.067-0.533 0-0.7 0.233-0.366 0.35-0.649 0.35-0.85l-0.251-1.1c-0.1-0.634-0.2-1.101-0.3-1.4-0.167-0.533-0.467-0.85-0.9-0.95-0.1-0.033-0.399-0.033-0.899 0l-0.5-0.05c-0.101-0.1-0.168-0.15-0.201-0.15zm-10.2 3.7l0.05-1 0.05 0.05c0.134 0.2 0.217 0.317 0.25 0.351l0.2-0.2c0 0.267 0.084 0.434 0.25 0.5 0.233 0.1 0.601 0.066 1.101-0.1l0.1 0.1c0.4-0.267 0.667-0.5 0.8-0.7v-0.05c0-0.333 0.033-0.583 0.101-0.75 0.199-0.267 0.316-0.517 0.35-0.75l-0.052-1.251c0.033-0.7 0.033-1.217 0-1.55-0.033-0.634-0.217-1.134-0.55-1.5-0.067-0.067-0.15-0.133-0.25-0.2-0.134-0.033-0.301-0.067-0.5-0.1h-0.45c-0.066-0.133-0.134-0.2-0.2-0.2v-0.05c-1.2-0.066-2.333-0.283-3.4-0.65-0.866-0.3-1.399-0.55-1.6-0.75-0.134-0.1 0.717-0.25 2.55-0.45 0.767-0.066 2.4-0.066 4.9 0 0.1 0 0.55 0.05 1.35 0.15-0.533 0.233-0.899 0.417-1.1 0.55v0.05h-0.351c-0.133-0.033-0.25-0.05-0.35-0.05 0.167-0.2 0.25-0.317 0.25-0.35-0.1 0.133-0.2 0.233-0.3 0.3-0.233-0.034-0.45-0.05-0.65-0.05-0.033-0.167-0.083-0.333-0.149-0.5 0 0.033-0.017 0.184-0.051 0.45v0.05c-0.166 0-0.316 0.017-0.449 0.05-0.4-0.167-0.667-0.284-0.801-0.35 0.134 0.167 0.301 0.3 0.5 0.4-0.066 0-0.116 0.017-0.149 0.05l-0.05 0.05c-0.134-0.033-0.284-0.067-0.45-0.1 0.1 0.033 0.233 0.067 0.399 0.1-0.399 0.033-0.883-0.033-1.449-0.2-0.634-0.167-1.101-0.283-1.4-0.35 0.566 0.333 1.167 0.583 1.8 0.75l-1.45-0.25c-0.733-0.3-1.25-0.433-1.55-0.4 0.233 0.2 0.55 0.367 0.95 0.5l-0.55-0.1c0.3 0.067 0.633 0.184 1 0.35 0.399 0.033 0.934 0.067 1.6 0.1 0.267 0.033 0.566 0.05 0.9 0.05v0.1l0.25 0.05h0.1c0.101 0 0.233-0.05 0.4-0.15l0.4 0.2c0.067 0.033 0.167 0.083 0.301 0.15 0.033 0 0.083 0.017 0.149 0.05 0.033 0 0.066 0.017 0.101 0.05h0.05c0.1 0.033 0.2 0.083 0.3 0.15 0.066 0.067 0.116 0.15 0.15 0.25 0 0.033 0.017 0.067 0.05 0.1 0.1 0.3 0.166 0.684 0.2 1.15 0 0.666 0.033 1.1 0.1 1.3 0.267 1.233 0.366 2 0.3 2.3l-0.35 1.2v0.1c-0.167 0.467-0.334 0.75-0.5 0.851-0.467 0.133-0.8 0.233-1 0.3l-1.101 0.149-1.1-0.3zm-15.2-13.25h0.3v-0.1l-0.3 0.1zm0.35 0.4h0.35c0.133-0.034 0.283-0.117 0.45-0.25 0.1 0 0.233 0.05 0.4 0.15 0.133 0.066 0.333 0.133 0.6 0.2 0.233 0.1 0.383 0.267 0.45 0.5 0.133 0.333 0.233 0.867 0.3 1.6 0.066 0.8 0.15 1.35 0.25 1.65 0.1 0.333 0.25 0.833 0.45 1.5 0.167 0.633 0.233 1.15 0.2 1.55l-0.3 1.5c-0.133 0.667-0.333 1.084-0.6 1.25-0.133 0.067-0.65 0.15-1.55 0.25-0.6 0.067-1.167 0.034-1.7-0.1-0.333-0.066-0.767-0.25-1.3-0.55l-0.25-0.1-0.05 0.051 0.3-1.15c0.067 0.2 0.184 0.366 0.35 0.5 0.033-0.033 0.133-0.1 0.3-0.2-0.066 0.367 0.117 0.634 0.55 0.8h0.05c0.367 0.134 0.817 0.134 1.35 0l0.1 0.15c0.633-0.267 1.033-0.55 1.2-0.85v-0.051c-0.033-0.399-0.017-0.699 0.05-0.899l0.25-0.451c0.1-0.167 0.15-0.333 0.15-0.5l-0.05-1c0.466-0.4 0.6-0.75 0.4-1.05-0.1-0.133-0.267-0.267-0.5-0.4-0.033-0.5-0.067-0.9-0.1-1.2-0.067-0.8-0.267-1.417-0.6-1.85-0.1-0.167-0.2-0.25-0.3-0.25h-0.95c-0.066-0.1-0.117-0.15-0.15-0.15h-0.05v-0.25l-0.05-0.4zm3.1 0.05v-0.1h0.25c-0.1-0.1-0.183-0.167-0.25-0.2v-0.15c0.167 0.034 0.367 0.1 0.6 0.2 0.4 0.1 0.8 0.15 1.2 0.15 1.667 0.167 2.833 0.184 3.5 0.05-1.533-0.1-2.683-0.217-3.45-0.35 0.233-0.033 0.75-0.05 1.55-0.05 0.733 0 1.184-0.117 1.35-0.35-0.2-0.067-0.483-0.083-0.85-0.05-0.533 0.067-0.816 0.1-0.85 0.1-1.3-0.067-2.267-0.15-2.9-0.25 0.2-0.033 0.567-0.05 1.1-0.05 0.5-0.067 0.817-0.2 0.95-0.4h-0.9c-0.9 0.067-1.566 0.067-2 0 0.333-0.2 0.5-0.333 0.5-0.4-0.367 0.3-0.683 0.483-0.95 0.55 0.133 0 0.283 0.017 0.45 0.05-0.267-0.033-0.5-0.033-0.7 0-0.067-0.367-0.15-0.717-0.25-1.05-0.033 0.133-0.033 0.316 0 0.55-0.033 0.2-0.184 0.283-0.45 0.25-0.167-0.033-0.566-0.217-1.2-0.55 0.133 0.2 0.383 0.4 0.75 0.6-0.4 0.034-0.934-0.066-1.6-0.3-0.833-0.267-1.383-0.417-1.65-0.45l1.95 0.6c0.167 0.033 0.45 0.083 0.85 0.15-0.5 0.034-1.133-0.017-1.9-0.15-0.833-0.133-1.45-0.233-1.85-0.3 1.267 0.533 2.433 0.8 3.5 0.8-0.167 0.033-0.617 0-1.35-0.1-1.033-0.1-1.566-0.15-1.6-0.15-1.233-0.2-1.933-0.283-2.1-0.25 0.333 0.2 0.733 0.35 1.2 0.45 0.533 0.133 1.167 0.217 1.9 0.25 0.6 0.033 1.4 0.05 2.4 0.05l-0.15 0.1 0.05-0.05c-0.2 0.033-0.434 0.033-0.7 0-0.6 0-1.017 0.033-1.25 0.1 0.367 0.1 0.967 0.1 1.8 0l-0.1 0.05 0.05 0.5c-1.467-0.1-2.9-0.267-4.3-0.5-1.2-0.2-1.95-0.383-2.25-0.55-0.167-0.1 0.167-0.267 1-0.5 0.767-0.267 1.517-0.45 2.25-0.55 0.667-0.133 1.65-0.217 2.95-0.25 1.333-0.033 2.534 0.017 3.6 0.15 1.4 0.1 3.383 0.684 5.95 1.75 0.467 0.167 0.667 0.317 0.601 0.45-0.066 0.1-0.417 0.183-1.05 0.25-0.5 0.066-1.534 0.066-3.101 0-0.933-0.033-1.783-0.067-2.55-0.1zm12.95 4.9c-0.101-0.033-0.217-0.05-0.351-0.05-0.533-0.033-0.866-0.033-1 0 0.2 0.066 0.483 0.1 0.851 0.1h0.5v-0.05zm0.05 0.25v-0.1l-0.3 0.1h0.3zm-25.9 7.65l0.05-0.649c0.067 0.166 0.184 0.3 0.35 0.399l0.2-0.05c0 0.2 0.183 0.35 0.55 0.45 0.067 0 0.117 0.017 0.15 0.05 0.333 0.033 0.65 0.017 0.95-0.05l0.15 0.1c0.5-0.2 0.8-0.416 0.9-0.649-0.033-0.233-0.033-0.417 0-0.551 0.067-0.1 0.133-0.183 0.2-0.25 0.066-0.199 0.1-0.35 0.1-0.449l-0.2-0.95c-0.133-0.533-0.25-0.934-0.35-1.2-0.167-0.434-0.45-0.7-0.85-0.8-0.1-0.033-0.367-0.033-0.8 0l-0.45-0.05-0.2-0.151-0.05-0.25h0.05c0 0.033 0.017 0.1 0.05 0.2l0.45-0.05 0.6 0.1c0.466 0 0.833 0.066 1.1 0.2 0.233 0.1 0.4 0.233 0.5 0.399 0.067 0.067 0.2 0.233 0.4 0.5 0.533 0.601 0.783 1.15 0.75 1.65l-0.2 1.3c-0.167 0.566-0.317 0.884-0.45 0.95-0.167 0.134-0.583 0.233-1.25 0.3-0.133 0.033-0.267 0.066-0.4 0.101-0.333-0.034-0.617-0.051-0.85-0.051-0.033-0.033-0.066-0.05-0.1-0.05-0.133 0-0.267-0.033-0.4-0.1-0.233-0.066-0.483-0.167-0.75-0.3l-0.2-0.099z" fill="#C0A771"/>
	<path d="m46.275 9.2c0.08-0.036 0.155-0.069 0.225-0.1 0.066-0.036 0.133-0.07 0.2-0.1 0.1-0.067 0.2-0.117 0.3-0.15 0.134-0.067 0.267-0.133 0.4-0.2 0.5-0.233 0.899-0.4 1.199-0.5 0.033-0.033 0.083-0.049 0.15-0.05l0.9-0.1c0.566 0.2 0.683 0.467 0.35 0.8 0.5-0.066 0.7 0.05 0.6 0.35l-0.199 0.05c0.066 0.433-0.101 0.617-0.5 0.55v0.55l-0.351-0.1-0.05 1c-0.233-0.067-0.4-0.117-0.5-0.15-0.033 0.133-0.1 0.2-0.2 0.2l-0.1-0.15c-0.267 0.2-0.45 0.333-0.55 0.4-0.2 0.1-0.367-0.033-0.5-0.4-0.267 0.2-0.467 0.233-0.601 0.1-0.066-0.067-0.133-0.267-0.2-0.6l-0.3 0.15 0.05-0.35-0.8 0.25c0.101-0.267 0.25-0.5 0.45-0.7l-0.1-0.05 0.199-0.25h-0.997c0.067-0.033 0.117-0.05 0.15-0.05 0.275-0.148 0.534-0.282 0.775-0.4zm-6.95-2.1c0.263-0.1 0.438-0.15 0.524-0.15-0.033 0.167-0.183 0.3-0.449 0.4h0.4v0.1c0.167 0.066 0.316 0.083 0.45 0.05-0.033 0.133-0.15 0.233-0.35 0.3-0.233 0.1-0.367 0.2-0.4 0.3l0.2 0.05c0 0.133-0.15 0.2-0.45 0.2-0.366-0.033-0.6-0.05-0.7-0.05v-0.25l-1.05 0.4c-0.5 0.267-0.65 0.317-0.45 0.15-0.7 0.1-1.217 0.2-1.55 0.3l-1.45 0.6-0.15 0.05c0.2-0.167 0.55-0.35 1.05-0.55l0.35-0.2c0.334-0.167 0.7-0.333 1.1-0.5 1.3-0.533 2.233-0.917 2.8-1.15l0.125-0.05zm-23.625-2.95l0.3-0.3c0.633-0.567 1.6-1.184 2.9-1.85 2.434-1.133 4.1-1.783 5-1.95-0.066 0.267-0.283 0.45-0.65 0.55h0.6l-0.05 0.1c0.133 0.066 0.367 0.1 0.7 0.1-0.067 0.133-0.233 0.267-0.5 0.4-0.333 0.1-0.533 0.216-0.6 0.35h0.35c-0.033 0.2-0.267 0.3-0.7 0.3-0.5-0.033-0.833-0.05-1-0.05v-0.35c-0.1 0.066-0.617 0.267-1.55 0.6-0.5 0.267-0.7 0.35-0.6 0.25-1.3 0.367-2.017 0.583-2.15 0.65-0.9 0.533-1.583 0.933-2.05 1.2zm0.4 3.75c0.566 0.2 0.7 0.434 0.4 0.7 0.533-0.067 0.75 0.05 0.65 0.35l-0.25 0.05c0.133 0.367-0.033 0.517-0.5 0.45 0.033 0.1 0.017 0.267-0.05 0.5l-0.4-0.1v0.9c-0.267-0.067-0.45-0.117-0.55-0.15l-0.25 0.25-0.1-0.15c-0.3 0.133-0.517 0.233-0.65 0.3-0.2 0.1-0.367 0-0.5-0.3-0.3 0.133-0.517 0.15-0.65 0.05-0.067-0.067-0.133-0.25-0.2-0.55l-0.4 0.2 0.05-0.35c-0.367 0.133-0.65 0.2-0.85 0.2 0.1-0.233 0.267-0.433 0.5-0.6l-0.15-0.05 0.25-0.2h-1.1c0.066-0.033 0.133-0.05 0.2-0.05 0.326-0.15 0.634-0.284 0.925-0.4l0.625-0.2c1.066-0.433 1.717-0.683 1.95-0.75h0.05c0.333-0.067 0.667-0.1 1-0.1z" fill="#677982"/>
	<path d="m38.1 18.85v-0.3c0.101-0.934 0.217-1.566 0.351-1.899 0.533-1.067 0.8-1.934 0.8-2.601 0.033-0.399 0.033-0.833 0-1.3v-0.3c0.066 0 0.134 0.066 0.2 0.2h0.45c0.199 0.033 0.366 0.067 0.5 0.1 0.1 0.067 0.183 0.133 0.25 0.2 0.333 0.366 0.517 0.866 0.55 1.5 0.033 0.333 0.033 0.85 0 1.55l0.05 1.25c-0.033 0.233-0.15 0.483-0.35 0.75-0.067 0.167-0.101 0.417-0.101 0.75v0.05c-0.133 0.2-0.4 0.433-0.8 0.7l-0.1-0.1c-0.5 0.166-0.867 0.199-1.101 0.1-0.166-0.066-0.25-0.233-0.25-0.5l-0.2 0.2c-0.033-0.033-0.116-0.15-0.249-0.35zm9.25 3c0-0.3 0.017-0.616 0.051-0.949 0.066-0.7 0.183-1.15 0.35-1.351 0.167-0.233 0.316-0.583 0.45-1.05 0.133-0.4 0.2-0.717 0.2-0.95-0.034-0.399-0.101-0.883-0.2-1.45 0.033 0 0.1 0.051 0.2 0.15l0.5 0.05c0.5-0.033 0.8-0.033 0.899 0 0.434 0.101 0.733 0.417 0.9 0.95 0.1 0.3 0.2 0.767 0.3 1.4l0.25 1.1c0 0.2-0.116 0.483-0.35 0.85-0.067 0.167-0.067 0.4 0 0.7-0.034 0.033-0.051 0.084-0.051 0.15-0.166 0.166-0.483 0.366-0.949 0.6l-0.15-0.1c-0.134 0.033-0.25 0.066-0.35 0.1-0.267 0-0.534-0.017-0.801-0.05-0.399-0.1-0.599-0.283-0.599-0.55-0.134 0-0.217 0.033-0.25 0.1-0.167-0.133-0.283-0.283-0.35-0.45l-0.05 0.75zm-22-10.8c-0.1-0.066-0.217-0.133-0.35-0.2-0.067-0.033-0.133-0.067-0.2-0.1-0.367-0.167-0.8-0.333-1.3-0.5-0.167-0.067-0.317-0.117-0.45-0.15 0.067-0.267 0.1-0.467 0.1-0.6 0.1-0.567 0.133-1.2 0.1-1.9 0.033 0 0.083 0.05 0.15 0.15h0.95c0.1 0 0.2 0.083 0.3 0.25 0.333 0.433 0.533 1.05 0.6 1.85 0.033 0.3 0.067 0.7 0.1 1.2zm-4.5 5.1c0.1-0.434 0.217-0.917 0.35-1.45 0.033-0.167 0.083-0.334 0.15-0.5 0.833-0.2 1.617-0.467 2.35-0.8 0.8-0.334 1.383-0.634 1.75-0.9l0.05 1c0 0.167-0.05 0.333-0.15 0.5l-0.25 0.45c-0.067 0.2-0.083 0.5-0.05 0.899v0.051c-0.167 0.3-0.566 0.583-1.2 0.85l-0.1-0.15c-0.533 0.134-0.983 0.134-1.35 0h-0.05c-0.434-0.166-0.617-0.433-0.55-0.8-0.167 0.101-0.267 0.167-0.3 0.2-0.167-0.134-0.283-0.3-0.35-0.5l-0.3 1.15zm-6.8-1.4l0.05 0.25 0.2 0.15 0.45 0.05c0.433-0.033 0.7-0.033 0.8 0 0.4 0.1 0.684 0.366 0.85 0.8 0.1 0.267 0.217 0.667 0.35 1.2l0.2 0.95c0 0.1-0.034 0.25-0.1 0.449-0.067 0.067-0.133 0.15-0.2 0.25-0.033 0.134-0.033 0.317 0 0.551-0.1 0.233-0.4 0.449-0.9 0.649l-0.15-0.1c-0.3 0.066-0.617 0.083-0.95 0.05-0.033-0.033-0.083-0.05-0.15-0.05-0.367-0.101-0.55-0.25-0.55-0.45l-0.2 0.05c-0.167-0.1-0.283-0.233-0.35-0.399l-0.05 0.65c0-0.267 0.017-0.533 0.05-0.8 0.067-0.6 0.167-0.983 0.3-1.15 0.167-0.166 0.316-0.433 0.45-0.8 0.1-0.366 0.133-0.633 0.1-0.8l-0.25-1.5h0.05z" fill="#DEC383"/>
	<path d="m42.25 20.1c-0.333 0.3-1.25 0.4-2.75 0.3h-0.1c-0.4-0.034-0.717-0.084-0.95-0.15l-0.05-0.05c-0.101-0.066-0.184-0.117-0.25-0.15l0.5 0.15c0.066 0 0.149 0.017 0.25 0.05 0.166 0 0.35-0.017 0.55-0.05 0.033 0 0.25 0.033 0.649 0.1 0.134 0 0.284-0.066 0.45-0.2 0.201-0.133 0.351-0.2 0.451-0.2 0.033 0 0.083 0.05 0.15 0.149 0.033 0.066 0.1 0.084 0.199 0.05 0.134-0.033 0.217-0.133 0.25-0.3 0.134-0.066 0.25-0.083 0.351-0.05 0.067 0.067 0.15 0.151 0.25 0.251l0.05 0.05v0.05zm6.35 2.45c-0.433-0.1-0.767-0.233-1-0.399l0.1 0.049 0.5 0.2c0.066 0 0.133 0.017 0.2 0.05 0.233 0.033 0.517 0.05 0.85 0.05s0.634 0.05 0.9 0.15c0.166 0.033 0.366-0.017 0.6-0.15s0.417-0.2 0.55-0.2c0.066 0 0.134 0.017 0.2 0.05 0.1 0.067 0.217 0.084 0.35 0.051 0.134-0.067 0.217-0.184 0.25-0.351 0.167-0.133 0.317-0.184 0.45-0.149 0.033 0 0.15 0.066 0.351 0.199l0.149 0.051v0.05c-0.434 0.566-1.717 0.717-3.85 0.45-0.233-0.035-0.433-0.068-0.6-0.101zm-21.25-5.25c-0.133 0.101-0.417 0.184-0.85 0.25-0.867 0.101-2.05 0-3.55-0.3l-0.925-0.275c-0.382-0.154-0.69-0.329-0.925-0.524l-0.05-0.05 0.25 0.149 0.5 0.2c0.3 0.134 0.717 0.217 1.25 0.25 0.367 0 0.7 0.083 1 0.25 0.2 0.066 0.434 0.017 0.7-0.15 0.267-0.133 0.483-0.183 0.65-0.149 0.033 0 0.1 0.05 0.2 0.149 0.066 0.101 0.183 0.134 0.35 0.101 0.2-0.033 0.316-0.15 0.35-0.351 0.2-0.1 0.367-0.1 0.5 0 0.034 0 0.167 0.101 0.4 0.301l0.15 0.05v0.099zm-8.7 2.9c-0.1 0.133-0.316 0.25-0.65 0.35-0.067 0-0.133 0.017-0.2 0.05-0.7 0.101-1.6 0.084-2.7-0.05l-0.45-0.05c-0.467-0.134-0.85-0.3-1.15-0.5l0.65 0.3c0.267 0.066 0.6 0.101 1 0.101l0.85 0.149c0.167 0.033 0.35 0 0.55-0.1 0.2-0.134 0.367-0.2 0.5-0.2 0.034 0 0.1 0.033 0.2 0.1 0.067 0.034 0.167 0.034 0.3 0 0.133-0.033 0.217-0.116 0.25-0.25 0.167-0.1 0.3-0.149 0.4-0.149 0.066 0.033 0.183 0.083 0.35 0.149l0.1 0.051v0.049z" fill="#6D5F39"/>
	<linearGradient id="g" x1="38.037" x2="45.662" y1="19.75" y2="19.75" gradientUnits="userSpaceOnUse">
		<stop stop-opacity=".2" offset="0"/>
		<stop stop-opacity=".2" offset="1"/>
	</linearGradient>
	<path d="m39.5 20.4c1.5 0.1 2.417 0 2.75-0.301l0.2-0.649c0.033-0.134 0.066-0.351 0.1-0.65h3.101c-0.034 1.233-1.134 1.867-3.301 1.9-1.1 0-2.05-0.1-2.85-0.3z" fill="url(#g)"/>
	<linearGradient id="h" x1="48.375" x2="55.325" y1="21.975" y2="21.975" gradientUnits="userSpaceOnUse">
		<stop stop-opacity=".2" offset="0"/>
		<stop stop-opacity=".2" offset="1"/>
	</linearGradient>
	<path d="m53.2 21.1c0.1-0.033 0.184-0.05 0.25-0.05 0.833-0.033 1.45 0.05 1.85 0.25-0.166 0.867-1.184 1.384-3.05 1.55-1.5 0.134-2.717 0.034-3.65-0.3 0.167 0.033 0.367 0.066 0.601 0.101 2.133 0.267 3.416 0.116 3.85-0.45l0.15-1c-1e-3 -0.034-1e-3 -0.067-1e-3 -0.101z" fill="url(#h)"/>
	<linearGradient id="i" x1="21.362" x2="29.837" y1="16.125" y2="16.125" gradientUnits="userSpaceOnUse">
		<stop stop-opacity=".2" offset="0"/>
		<stop stop-opacity=".2" offset="1"/>
	</linearGradient>
	<path d="m27.6 15.2c1.033 0 1.667 0.1 1.9 0.3 0.4 0.333 0.4 0.634 0 0.9-0.1 0.033-0.483 0.166-1.15 0.399-0.3 0.101-0.617 0.184-0.95 0.25l0.15-0.649c0-0.034 0.017-0.084 0.05-0.15v-1.05z" fill="url(#i)"/>
	<linearGradient id="j" x1="14.2" x2="22.3" y1="19.545" y2="19.545" gradientUnits="userSpaceOnUse">
		<stop stop-opacity=".2" offset="0"/>
		<stop stop-opacity=".2" offset="1"/>
	</linearGradient>
	<path d="m18.65 20.2l0.1-0.8c0.033-0.267 0.033-0.584 0-0.95 1.2 0 1.933 0.017 2.2 0.05 1.667 0.2 1.8 0.7 0.4 1.5-0.934 0.533-2.117 0.733-3.55 0.6 0.067-0.033 0.133-0.05 0.2-0.05 0.333-0.1 0.55-0.217 0.65-0.35z" fill="url(#j)"/>
</g>
</svg>
